<?xml version="1.0" standalone="no"?>
<!DOCTYPE svg PUBLIC "-//W3C//DTD SVG 1.1//EN" "http://www.w3.org/Graphics/SVG/1.1/DTD/svg11.dtd" >
<svg>
<metadata>
Created by FontForge 20090914 at Fri Jun 26 21:58:41 2020
 By www-data
Rammstein logo font by CybaPee, 1999
</metadata>
<defs>
<font id="Rammstein" horiz-adv-x="330" >
  <font-face 
    font-family="Rammstein"
    font-weight="400"
    font-stretch="normal"
    units-per-em="1000"
    panose-1="2 0 5 8 2 0 0 2 0 4"
    ascent="800"
    descent="-200"
    x-height="991.004"
    cap-height="1299"
    bbox="-1 -327.996 1203 1458.01"
    underline-thickness="50"
    underline-position="-75"
    unicode-range="U+0020-U+20B4"
  />
<missing-glyph horiz-adv-x="500" 
 />
    <glyph glyph-name=".notdef" horiz-adv-x="500" 
 />
    <glyph glyph-name="space" unicode=" " horiz-adv-x="500" 
 />
    <glyph glyph-name="exclam" unicode="!" horiz-adv-x="247" 
d="M113 246l49 -0.000976562l19 1008c6.66699 8.66699 10 20.667 10 36h-104v-12c0 -6.66699 0.333008 -11.667 1 -15c0 -2.66699 1 -4 3 -4v2c1.33301 -2 2.33301 -4.16699 3 -6.5s1.66699 -4.16602 3 -5.49902zM105 117.999v-118h59v118h-59zM98 1246l-1 1z" />
    <glyph glyph-name="quotedbl" unicode="&#x22;" horiz-adv-x="272" 
d="M78 950l0.000976562 -2.99805c0 -9.33301 2.16699 -15.5 6.5 -18.5s9.83301 -4.5 16.5 -4.5c2.66699 0 5.33398 0.666992 8.00098 2l-2 -1c1.33301 0 2.16602 0.166992 2.49902 0.5s2.16602 1.16602 5.49902 2.49902c2.66699 23.333 4.83398 48.666 6.50098 75.999
s3 55 4 83s1.5 55.333 1.5 82v76v21h-61c0 -54 0.666992 -107.167 2 -159.5s4.66602 -104.5 9.99902 -156.5zM162.001 926.002l36.001 0.000976562c0.666992 4 1.66699 11.333 3 22s2.5 22 3.5 34s2 23.333 3 34s1.5 18 1.5 22c0 8 0.166992 22.833 0.5 44.5
s0.666016 44.667 0.999023 69s0.5 47.166 0.5 68.499v46h-49v-340z" />
    <glyph glyph-name="quotesingle" unicode="'" horiz-adv-x="165" 
d="M60 1267c0 -8.66699 0.167969 -24.3291 0.500977 -46.9961s0.666016 -46.667 0.999023 -72s0.833008 -49.333 1.5 -72s1 -38.334 1 -47.001c0 -4 0.333008 -10.833 1 -20.5s1.5 -19.834 2.5 -30.501l3 -30.5c1 -9.66699 1.83301 -16.5 2.5 -20.5h21
c0.666992 0 1.5 2 2.5 6l3.5 14.5l4 17c1.33301 5.66699 2 10.5 2 14.5c0.666992 5.33301 1.33398 14.666 2.00098 27.999s1.5 27.166 2.5 41.499l3 41c1 13 1.5 21.833 1.5 26.5c0 6 0.166992 16.167 0.5 30.5s0.666016 29.5 0.999023 45.5s0.5 31 0.5 45v30h-57z" />
    <glyph glyph-name="parenleft" unicode="(" horiz-adv-x="273" 
d="M193 1350c-18.667 0 -33.5039 -6.49805 -44.5039 -19.498s-19.5 -28.667 -25.5 -47s-10.167 -37.5 -12.5 -57.5s-4.16602 -37 -5.49902 -51c-0.666992 -7.33301 -1.5 -17.666 -2.5 -30.999l-3 -40.5c-1 -13.667 -1.83301 -26.167 -2.5 -37.5s-1 -18.333 -1 -21v-744
c0 -2.66699 0.333008 -10 1 -22s1.5 -25.5 2.5 -40.5l3 -44.5c1 -14.667 1.83301 -25.667 2.5 -33c0.666992 -12 2.33398 -29.167 5.00098 -51.5s7.33398 -44.5 14.001 -66.5s15.834 -41 27.501 -57s27.5 -24 47.5 -24c0 20 -1.66699 37.833 -5 53.5s-7 31.167 -11 46.5
c-3.33301 13.333 -6.33301 26.666 -9 39.999s-4.33398 26.666 -5.00098 39.999c-0.666992 8.66699 -1.5 22 -2.5 40l-3 55.5c-1 19 -1.83301 36.5 -2.5 52.5s-1 26 -1 30v50v65c0 24.667 -0.166992 49.5 -0.5 74.5s-0.5 48.833 -0.5 71.5v57v56
c0 23.333 0.166992 47.5 0.5 72.5s0.5 49.833 0.5 74.5v64v51c0 4.66699 0.333008 15.167 1 31.5s1.5 34.5 2.5 54.5l3 59c1 19.333 1.83301 33.666 2.5 42.999c0.666992 14 2.33398 28.5 5.00098 43.5s5.66699 30.5 9 46.5c4 18.667 7.5 37.167 10.5 55.5
s4.5 36.833 4.5 55.5z" />
    <glyph glyph-name="parenright" unicode=")" horiz-adv-x="276" 
d="M119 630l0.000976562 -39.0029c0 -15.333 -0.166992 -31.666 -0.5 -48.999s-0.5 -34.666 -0.5 -51.999v-44v-38c0 -7.33301 -0.333008 -22 -1 -44s-1.5 -45.667 -2.5 -71l-3 -73c-1 -23.333 -1.83301 -40 -2.5 -50c-1.33301 -15.333 -3.33301 -31 -6 -47
s-5.66699 -32 -9 -48c-3.33301 -18 -6.5 -36.333 -9.5 -55s-4.5 -38.667 -4.5 -60c20 0 35.833 8.33301 47.5 25s20.667 36.5 27 59.5s10.5 46.833 12.5 71.5l5 61c0 2.66699 0.166992 5 0.5 7s0.5 4 0.5 6c0.666992 8.66699 1.5 22 2.5 40l3 55.5
c1 19 1.83301 36.333 2.5 52s1 25.834 1 30.501v50v61c0 23.333 0.166992 46.666 0.5 69.999s0.5 45.666 0.5 66.999v55v54c0 22 -0.166992 44.667 -0.5 68s-0.5 46.666 -0.5 69.999v61v50c0 4.66699 -0.333008 15.167 -1 31.5s-1.5 34 -2.5 53l-3 55
c-1 17.667 -1.83301 30.834 -2.5 39.501l-5.5 51c-2.33301 22 -6.83301 44 -13.5 66s-15.834 41.167 -27.501 57.5s-27.5 24.5 -47.5 24.5c0 -17.333 1 -32.833 3 -46.5s4.66699 -27.167 8 -40.5c1.33301 -9.33301 3 -18.333 5 -27s3.66699 -17.667 5 -27
c7.33301 -59.333 11.833 -118.666 13.5 -177.999s3.16699 -118.666 4.5 -177.999v-41v-46c0 -16.667 0.166992 -33.5 0.5 -50.5s0.5 -33.5 0.5 -49.5v-38z" />
    <glyph glyph-name="asterisk" unicode="*" horiz-adv-x="386" 
d="M103 740c0 -8.66699 2.33105 -17.6699 6.99805 -27.0029s12.667 -14 24 -14c12.667 0 21.667 5 27 15s10.666 21.333 15.999 34c4.66699 15.333 10.334 27 17.001 35c2 -4.66699 5.16699 -11 9.5 -19l13 -24.5c4.33301 -8.33301 8.66602 -16.166 12.999 -23.499
s8.16602 -12.666 11.499 -15.999c2 -0.666992 4.66699 -1 8 -1c9.33301 0 18.333 3.5 27 10.5s13 15.167 13 24.5c0 10.667 -2.83301 19.334 -8.5 26.001s-12.167 12.667 -19.5 18l-15 15c-4.66699 4.66699 -7 10.667 -7 18c0 0.666992 0.166992 1.33398 0.5 2.00098
s0.5 1.66699 0.5 3c4.66699 0 11.334 0.5 20.001 1.5s18 2.5 28 4.5s19.5 4.16699 28.5 6.5s15.833 5.16602 20.5 8.49902c0.666992 2 1 4.33301 1 7v2c0 0.666992 -0.666992 2.66699 -2 6c-2 4.66699 -3.66699 9.66699 -5 15c-2 8.66699 -4.66699 15.334 -8 20.001
s-9.66602 7 -18.999 7c-0.666992 0 -1.66699 -0.166992 -3 -0.5s-2.66602 -0.5 -3.99902 -0.5h-6c-2 -1.33301 -6 -3.33301 -12 -6l-19.5 -9l-21 -10.5c-7 -3.66699 -12.833 -6.83398 -17.5 -9.50098v102h-48v-103l-12.5 7c-3.66699 2 -7.16699 4.33301 -10.5 7l-26 15.5
c-8 5 -17.667 7.5 -29 7.5c-12 0 -19.833 -3.33301 -23.5 -10s-5.5 -15 -5.5 -25c0 -8 3 -14.667 9 -20s13.333 -9.5 22 -12.5s17.667 -5.16699 27 -6.5s17.333 -2.33301 24 -3c2 0 3.66699 -0.333008 5 -1v-3l-47 -57v1c-1.33301 -1.33301 -2.16602 -4 -2.49902 -8
s-0.5 -7 -0.5 -9z" />
    <glyph glyph-name="plus" unicode="+" horiz-adv-x="380" 
d="M226 323v171h91v58h-91v171h-58v-171h-91v-58h91v-171h58z" />
    <glyph glyph-name="comma" unicode="," horiz-adv-x="122" 
d="M47 -85c0 -9.33301 -0.999023 -19.0039 -2.99902 -29.0039c0 -1.33301 -0.166992 -2.66602 -0.5 -3.99902s-0.5 -2.66602 -0.5 -3.99902v1c-1.33301 -6 -2.33301 -12.5 -3 -19.5s-1 -16.167 -1 -27.5h30l16 51c0.666992 3.33301 1.83398 8.83301 3.50098 16.5
s2.5 12.5 2.5 14.5c0 3.33301 0.166992 12 0.5 26s0.666016 29 0.999023 45s0.666016 31 0.999023 45s0.5 22.667 0.5 26h-54v-131c3.33301 -1.33301 5.33301 -2.66602 6 -3.99902s1 -2.66602 1 -3.99902v-2z" />
    <glyph glyph-name="hyphen" unicode="-" horiz-adv-x="376" 
d="M69 497h239v69h-239v-69z" />
    <glyph glyph-name="period" unicode="." horiz-adv-x="140" 
d="M54 84v-80h50v80h-50z" />
    <glyph glyph-name="slash" unicode="/" horiz-adv-x="388" 
d="M60 41l0.000976562 -40c2 0 5.33301 0.166992 10 0.5l14.5 1c5 0.333008 9.5 0.833008 13.5 1.5s6.66699 1 8 1c1.33301 0.666992 3.5 2.66699 6.5 6s4.83301 6 5.5 8l232 1240v40c-2 0 -5.33301 -0.166992 -10 -0.5l-14.5 -1c-5 -0.333008 -9.5 -0.833008 -13.5 -1.5
s-6.66699 -1 -8 -1c-2 -0.666992 -4.33301 -2.66699 -7 -6s-4.33398 -6 -5.00098 -8z" />
    <glyph glyph-name="zero" unicode="0" horiz-adv-x="312" 
d="M161 1298c-28 0 -49.668 -9.00293 -65.001 -27.0029s-26.666 -40.167 -33.999 -66.5s-11.833 -54.166 -13.5 -83.499s-2.5 -55 -2.5 -77v-797c0 -24 1 -50.5 3 -79.5s6.83301 -56.333 14.5 -82s19.167 -47 34.5 -64s36.333 -25.5 63 -25.5
c27.333 0 48.666 8.83301 63.999 26.5s26.833 39.334 34.5 65.001s12.334 52.5 14.001 80.5s2.5 52 2.5 72v814c0 20 -0.833008 44 -2.5 72s-6.33398 54.833 -14.001 80.5s-19.167 47.334 -34.5 65.001s-36.666 26.5 -63.999 26.5zM160.999 1238
c4.66699 0 8.6709 -2.66406 12.0039 -7.99707s6.16602 -11.5 8.49902 -18.5s4.16602 -14.167 5.49902 -21.5s2.33301 -12.666 3 -15.999v-2c9.33301 -58 15.166 -116.333 17.499 -175s3.5 -117.334 3.5 -176.001v-89c0 -15.333 -0.166992 -31 -0.5 -47
s-0.5 -31.667 -0.5 -47v-46c0 -18 -0.166992 -37 -0.5 -57s-0.5 -40 -0.5 -60v-51v-45c0 -7.33301 -0.333008 -21 -1 -41s-1.5 -41.5 -2.5 -64.5s-2.16699 -45.167 -3.5 -66.5s-2.33301 -36.666 -3 -45.999c0 -4.66699 -0.333008 -12.834 -1 -24.501
s-2.16699 -23.5 -4.5 -35.5s-6 -22.667 -11 -32s-11.833 -14 -20.5 -14s-15.667 5.83301 -21 17.5s-9.33301 25 -12 40s-4.33398 29.167 -5.00098 42.5s-1 22 -1 26v893c0 1.33301 0.333008 5.66602 1 12.999s1.5 15.666 2.5 24.999l3 28
c1 9.33301 1.83301 16.666 2.5 21.999c0 2 0.5 7.16699 1.5 15.5s2.66699 17 5 26s5.33301 17 9 24s8.16699 10.5 13.5 10.5z" />
    <glyph glyph-name="one" unicode="1" horiz-adv-x="146" 
d="M32 -2l98 -0.00195312c0 19.333 -6 35 -18 47v1256c-8 0 -17.5 -1.16699 -28.5 -3.5s-21.667 -6 -32 -11s-19 -11.167 -26 -18.5s-10.5 -16 -10.5 -26c0 -6.66699 1.5 -11.167 4.5 -13.5s6.16699 -4.16602 9.5 -5.49902s6.5 -2.66602 9.5 -3.99902s4.5 -3 4.5 -5v-1170
c-4 -6 -6.83301 -13 -8.5 -21s-2.5 -16.333 -2.5 -25z" />
    <glyph glyph-name="two" unicode="2" horiz-adv-x="310" 
d="M219 1083c0 -90 -8.33398 -178.488 -25.001 -265.488s-35 -174.167 -55 -261.5l-31 -134.5c-10 -45 -18.833 -90.5 -26.5 -136.5s-13.834 -92.667 -18.501 -140s-7 -95.333 -7 -144h215c1.33301 0 3.66602 4.33301 6.99902 13s5.66602 15.667 6.99902 21
c0 2.66699 1 7.66699 3 15l4 19.5l3 14.5v7c0 1.33301 0.166992 3.5 0.5 6.5s0.5 4.83301 0.5 5.5c-5.33301 0 -10.5 -1.33301 -15.5 -4s-9.66699 -5.83398 -14 -9.50098s-8.16602 -7.33398 -11.499 -11.001s-5.33301 -6.5 -6 -8.5h-113c0 4.66699 -0.166992 10.5 -0.5 17.5
s-0.833008 15.167 -1.5 24.5c-1.33301 12 -2.16602 24 -2.49902 36s-0.5 21.667 -0.5 29v8c0 4 0.833008 11.833 2.5 23.5l5.5 38l6 39.5c2 12.667 3.66699 21.667 5 27c2.66699 14 7.33398 36 14.001 66l22 102l25.5 119.5l26 119.5l22.5 102l15 66l9 62.5
c2.66699 18.333 4.83398 36 6.50098 53s3 33.667 4 50s1.5 34.166 1.5 53.499c0 10.667 -1 26.167 -3 46.5s-6 40.666 -12 60.999s-14.333 38.166 -25 53.499s-25 23 -43 23h-179v-10c0 -2.66699 0.333008 -5 1 -7c0 -4.66699 1 -9.33398 3 -14.001l4.5 -23.5l5 -26l4.5 -22
c1.33301 -6.33301 2 -10.5 2 -12.5c4.66699 -28.667 7.66699 -56.5 9 -83.5s2 -54.5 2 -82.5v-41c0 -14 -0.333008 -28 -1 -42c3.33301 -8.66699 10.166 -14.667 20.499 -18s19.5 -5 27.5 -5h8c2.66699 17.333 4.83398 32.5 6.50098 45.5s2.83398 25.167 3.50098 36.5
s1.16699 22.666 1.5 33.999s0.5 24 0.5 38s-0.5 28 -1.5 42s-2.16699 28 -3.5 42c-1.33301 13.333 -2.33301 26.666 -3 39.999s-1 26.666 -1 39.999h34c9.33301 0 17 -0.666992 23 -2s11.167 -4.33301 15.5 -9s8.16602 -11.334 11.499 -20.001s7 -20.334 11 -35.001v-37
c0 -8 0.166992 -15.333 0.5 -22s0.5 -11.334 0.5 -14.001z" />
    <glyph glyph-name="three" unicode="3" horiz-adv-x="298" 
d="M27 354l0.00195312 -25.999c0 -10 0.166992 -20.5 0.5 -31.5s0.5 -21.833 0.5 -32.5v-28v-21c0.666992 -20 2.33398 -42.333 5.00098 -67s8.16699 -47.834 16.5 -69.501s20.333 -40 36 -55s36.5 -22.5 62.5 -22.5c22 0 40.667 6 56 18s27.666 27.333 36.999 46
s16.166 38.667 20.499 60s6.5 41.666 6.5 60.999v426c0 2 -0.833008 7.83301 -2.5 17.5l-5.5 32l-6 34.5c-2 11.333 -3.66699 20 -5 26c-0.666992 2.66699 -1.83398 6.66699 -3.50098 12s-3.66699 10.833 -6 16.5l-6.5 15.5c-2 4.66699 -3.33301 7.66699 -4 9
c-2.66699 2 -4.5 3.33301 -5.5 4s-3.16699 2.33398 -6.5 5.00098l-16.5 14l-18 15.5c-5.66699 5 -10.5 9.66699 -14.5 14s-6 7.16602 -6 8.49902v4l107 462h-227c-3.33301 0 -6 -5 -8 -15s-3.5 -21.167 -4.5 -33.5s-1.83301 -23.833 -2.5 -34.5s-1 -17 -1 -19
c1.33301 0 4.83301 0.5 10.5 1.5s8.83398 1.83301 9.50098 2.5l5 5c4.66699 4 10.834 8.83301 18.501 14.5s12.167 9.16699 13.5 10.5c10 4.66699 22.333 7.66699 37 9c0.666992 -0.666992 5.16699 -1.16699 13.5 -1.5s15.166 -0.833008 20.499 -1.5
c4 -0.666992 8.33301 -1.16699 13 -1.5s9.33398 -0.5 14.001 -0.5l-95 -412h-20v-115c13.333 0 23.833 3.33301 31.5 10s14.5 13.667 20.5 21c2 2.66699 4.16699 5.33398 6.5 8.00098s4.83301 5 7.5 7l-1 -1l2 1c10.667 0 19.667 -4.66699 27 -14s13 -20.166 17 -32.499
s7 -25 9 -38l5 -31.5l3 -23c1.33301 -10 2.5 -20.167 3.5 -30.5s1.83301 -19.833 2.5 -28.5s1 -14 1 -16v-22v-28c0 -10.667 0.166992 -21.5 0.5 -32.5s0.5 -21.5 0.5 -31.5v-24v-38v-56c0 -16.667 -0.333008 -33.5 -1 -50.5s-1.83398 -34.5 -3.50098 -52.5
s-3.83398 -38.333 -6.50098 -61l-4 -26.5c-1.33301 -9 -3.5 -17.333 -6.5 -25s-7.16699 -13.834 -12.5 -18.501s-12.333 -7 -21 -7c-8 0 -14.833 3.66699 -20.5 11s-10 16.166 -13 26.499s-5.16699 21 -6.5 32s-2 19.833 -2 26.5v364c-2 0 -5 -0.333008 -9 -1
s-6.66699 -1.33398 -8 -2.00098v1l-9.5 -5l-17.5 -9.5l-19.5 -10.5c-6.33301 -3.33301 -10.833 -6 -13.5 -8c0 -5.33301 -0.166992 -14.666 -0.5 -27.999s-0.5 -27.666 -0.5 -42.999v-70z" />
    <glyph glyph-name="four" unicode="4" horiz-adv-x="307" 
d="M166 0l111.998 -0.00292969c0 5.33301 -0.666992 12.166 -2 20.499s-4.66602 14.166 -9.99902 17.499v411l19 9v57l-24 10v294c0 8.66699 -3.5 15.5 -10.5 20.5s-15.167 8.83301 -24.5 11.5s-18.833 4.16699 -28.5 4.5s-17.167 0.5 -22.5 0.5h-8
c0 -9.33301 0.833008 -16.666 2.5 -21.999s4.83398 -11 9.50098 -17v-291h-88l154 726c4.66699 3.33301 9.83398 8.33301 15.501 15s8.5 14.334 8.5 23.001h-112c0 -8 0.666992 -13.5 2 -16.5s3 -6.16699 5 -9.5c1.33301 -2 2.66602 -4.33301 3.99902 -7s2 -6.66699 2 -12
c0 -1.33301 -0.166992 -3.66602 -0.5 -6.99902s-0.5 -6.33301 -0.5 -9v-3l-168 -775h178v-413c-6 -3.33301 -9.66699 -9.16602 -11 -17.499s-2 -15.166 -2 -20.499z" />
    <glyph glyph-name="five" unicode="5" horiz-adv-x="321" 
d="M51 374c0 -5.33301 -0.162109 -11.0029 -0.495117 -17.0029s-0.5 -12.667 -0.5 -20c0 -9.33301 -0.166992 -19.333 -0.5 -30s-0.5 -21.667 -0.5 -33c0 -29.333 1.33301 -60.166 4 -92.499s8.5 -61.833 17.5 -88.5s22 -48.667 39 -66s39.5 -26 67.5 -26
c23.333 0 42.5 7.16699 57.5 21.5s26.667 32 35 53s14.166 43.333 17.499 67s5 44.5 5 62.5v467c0 30 -3.66699 55 -11 75s-18 36.333 -32 49s-31.167 22 -51.5 28s-43.166 9.66699 -68.499 11c-0.666992 3.33301 -1 7 -1 11v14v30c0 5.33301 0.166992 12.833 0.5 22.5
s0.5 18.167 0.5 25.5v12c0.666992 10.667 1.66699 29.334 3 56.001s3 55.334 5 86.001l5.5 88c1.66699 28 3.16699 48.667 4.5 62h10c3.33301 0 6.33301 0.166992 9 0.5s4.66699 0.5 6 0.5c12.667 0 24.167 -2.33301 34.5 -7s20.5 -9.66699 30.5 -15
c10 -6 20 -11.167 30 -15.5s21.667 -6.5 35 -6.5v103h-221c-0.666992 -9.33301 -1.5 -23.333 -2.5 -42s-2.33301 -40 -4 -64s-3.16699 -49.167 -4.5 -75.5s-2.5 -51.333 -3.5 -75s-2 -45 -3 -64s-1.5 -32.833 -1.5 -41.5v-19c0 -10.667 -0.166992 -22.5 -0.5 -35.5
s-0.5 -23.167 -0.5 -30.5v-42c0 -9.33301 0.166992 -17.833 0.5 -25.5s0.5 -13.167 0.5 -16.5c0.666992 -2.66699 4.33398 -7 11.001 -13s11.667 -10.333 15 -13h2c7.33301 0 13.666 1.16699 18.999 3.5s10.666 4.83301 15.999 7.5c5.33301 3.33301 10.833 6 16.5 8
s11.167 3 16.5 3c16 0 28.5 -6 37.5 -18s15.667 -26.167 20 -42.5s7 -33.333 8 -51s1.5 -32.167 1.5 -43.5v-25v-33c0 -12 0.166992 -24.333 0.5 -37s0.5 -25 0.5 -37v-28v-45v-66c0 -20 -0.333008 -39.833 -1 -59.5s-1.83398 -40.334 -3.50098 -62.001
s-3.83398 -45.834 -6.50098 -72.501c-0.666992 -7.33301 -1.5 -15.333 -2.5 -24s-2.83301 -17 -5.5 -25s-6.5 -14.667 -11.5 -20s-11.5 -8 -19.5 -8c-10.667 0 -19.167 4.66699 -25.5 14s-11 20.5 -14 33.5s-5 25.833 -6 38.5s-1.5 22.667 -1.5 30
c-0.666992 8 -1.16699 21 -1.5 39s-0.833008 38.167 -1.5 60.5s-1.33398 46 -2.00098 71l-2 71.5c-0.666992 22.667 -1.33398 42.834 -2.00098 60.501s-1 30.834 -1 39.501h-8c-1.33301 0 -2.5 0.166992 -3.5 0.5s-1.83301 0.5 -2.5 0.5c-11.333 0 -21.5 -3.33301 -30.5 -10
s-16.5 -14.667 -22.5 -24c0 -4.66699 -0.166992 -13 -0.5 -25s-0.5 -24 -0.5 -36v-60zM89.0049 743.997l-1 1v-1h1z" />
    <glyph glyph-name="six" unicode="6" horiz-adv-x="324" 
d="M166 1309c-20 0 -36.8311 -5.83203 -50.498 -17.499s-25.167 -26.667 -34.5 -45s-16.666 -39 -21.999 -62s-9.33301 -45.833 -12 -68.5s-4.33398 -44 -5.00098 -64s-1 -36.333 -1 -49v-684c0 -3.33301 0.333008 -11 1 -23s1.5 -25.5 2.5 -40.5s2.16699 -29.667 3.5 -44
l3 -32.5c2 -17.333 4.83301 -36.666 8.5 -57.999s9.66699 -41.333 18 -60s19.5 -34.334 33.5 -47.001s32.333 -19 55 -19c26 0 47.167 7.33301 63.5 22s29 32.834 38 54.501s15 45 18 70s4.83301 47.5 5.5 67.5v25v30c0 11.333 0.166992 22.833 0.5 34.5s0.5 22.5 0.5 32.5
v27c0 6 -0.166992 16.167 -0.5 30.5s-0.5 29.5 -0.5 45.5v73c-1.33301 18.667 -3.83301 37.667 -7.5 57s-9.5 37 -17.5 53s-18.833 29.167 -32.5 39.5s-31.167 15.5 -52.5 15.5c-14 0 -25.667 -1.33301 -35 -4s-18.666 -8.66699 -27.999 -18c0 10.667 -0.166992 24 -0.5 40
s-0.5 33.333 -0.5 52v108v38c0 15.333 0.166992 31.5 0.5 48.5s0.5 33.833 0.5 50.5v43v33c0 2 0.333008 6.66699 1 14s1.5 15.666 2.5 24.999s2.16699 18.5 3.5 27.5s2.33301 16.167 3 21.5c0 1.33301 0.166992 2.66602 0.5 3.99902s0.5 2.66602 0.5 3.99902
c0.666992 6.66699 1.83398 15 3.50098 25s3.83398 19.667 6.50098 29s6.16699 17.5 10.5 24.5s9.83301 10.5 16.5 10.5c7.33301 0 13.333 -4.33301 18 -13s8.5 -18.5 11.5 -29.5s5.16699 -21.833 6.5 -32.5s2.33301 -18 3 -22c0.666992 -5.33301 1.5 -12.833 2.5 -22.5
l3 -30c1 -10.333 1.83301 -19.833 2.5 -28.5s1 -14.334 1 -17.001c0 -8 0.166992 -22.833 0.5 -44.5s0.666016 -44.5 0.999023 -68.5s0.666016 -46.667 0.999023 -68s0.5 -36 0.5 -44c10 0 20.5 3.33301 31.5 10s19.5 12.334 25.5 17.001
c1.33301 1.33301 3.16602 2.83301 5.49902 4.5s3.16602 2.16699 2.49902 1.5v67c0 14 0.166992 27.167 0.5 39.5s0.5 20.833 0.5 25.5v54c0 24.667 -1 52.334 -3 83.001s-7 59.167 -15 85.5s-19.833 48.5 -35.5 66.5s-36.834 27 -63.501 27zM117.002 388.001
l0.000976562 79.0039c0 16 0.166992 31.167 0.5 45.5s0.5 24.833 0.5 31.5c5.33301 4 9.5 8.66699 12.5 14l9.5 17c5.33301 9.33301 11.166 17.833 17.499 25.5s13.833 11.5 22.5 11.5c6.66699 0 12.334 -3 17.001 -9s8.16699 -13.167 10.5 -21.5s4 -16.666 5 -24.999
s1.5 -14.833 1.5 -19.5v-377c0 -7.33301 -0.666992 -16.333 -2 -27s-3.83301 -21 -7.5 -31s-8.5 -18.667 -14.5 -26s-13.667 -11 -23 -11c-7.33301 0 -13.333 2.16699 -18 6.5s-8.33398 10 -11.001 17s-4.66699 14.333 -6 22s-2.33301 15.167 -3 22.5
c0 1.33301 -0.166992 2.66602 -0.5 3.99902s-0.5 2.66602 -0.5 3.99902l-3 21c-1.33301 9.33301 -2.5 18.666 -3.5 27.999s-1.83301 17.666 -2.5 24.999s-1 12 -1 14v25v32c0 12.667 -0.166992 25.167 -0.5 37.5s-0.5 24.166 -0.5 35.499v29z" />
    <glyph glyph-name="seven" unicode="7" horiz-adv-x="286" 
d="M89 -12c12.667 0 26.3301 3.16504 40.9971 9.49805s25.667 15.5 33 27.5c0 8 0.166992 20.667 0.5 38s0.666016 36.666 0.999023 57.999s0.833008 44 1.5 68s1.33398 46.667 2.00098 68s1.33398 40.5 2.00098 57.5s1.33398 29.5 2.00098 37.5
c0.666992 10 1.83398 26.167 3.50098 48.5s3.5 45.5 5.5 69.5s4 46.5 6 67.5l4 42.5l17 110l18 113c13.333 80.667 25.666 161.334 36.999 242.001s17 162.334 17 245.001h-254c0 -30.667 1 -59.167 3 -85.5s4.66699 -52.166 8 -77.499
c2.66699 -25.333 5.16699 -51.166 7.5 -77.499s3.5 -54.5 3.5 -84.5c0 -6 -0.166992 -12.167 -0.5 -18.5s-0.5 -12.833 -0.5 -19.5c2.66699 -7.33301 6.33398 -11.666 11.001 -12.999s9.66699 -2 15 -2h17c2 0 4.5 0.166992 7.5 0.5s5.16699 0.5 6.5 0.5
c5.33301 14.667 8.5 30.167 9.5 46.5s1.5 32.5 1.5 48.5v48c0 15.333 -0.333008 30.166 -1 44.499s-1.66699 29.166 -3 44.499c-1.33301 14 -2.5 28.167 -3.5 42.5s-1.5 28.833 -1.5 43.5h95v-94c-32 -189.333 -58.667 -379.333 -80 -570s-32 -383.667 -32 -579z" />
    <glyph glyph-name="eight" unicode="8" horiz-adv-x="315" 
d="M105 792c0 -18 -3.5 -35.3379 -10.5 -52.0049l-21.5 -50c-8.66699 -19.333 -16.834 -38.5 -24.501 -57.5s-11.5 -38.5 -11.5 -58.5v-397c0 -19.333 2.5 -39.166 7.5 -59.499s12.667 -39.166 23 -56.499s23.333 -31.5 39 -42.5s34.167 -16.5 55.5 -16.5
c22 0 40.833 6.66699 56.5 20s28.667 29.833 39 49.5s17.833 40.834 22.5 63.501s7 43 7 61v348c0 35.333 -6.16699 69.166 -18.5 101.499s-25.5 63.833 -39.5 94.5l-10 22c-3.33301 7.33301 -6.33301 14.666 -9 21.999v6c1.33301 3.33301 3.66602 8 6.99902 14
s7.66602 12.333 12.999 19c5.33301 8.66699 10.5 16.667 15.5 24s7.83301 12.333 8.5 15l11.5 45.5c3 11.667 5 22.167 6 31.5s1.66699 19 2 29s0.5 22.667 0.5 38v37c0 21.333 -0.833008 46.666 -2.5 75.999s-6 57.333 -13 84s-18.167 49.334 -33.5 68.001
s-36.333 28 -63 28c-27.333 0 -48.333 -9.83301 -63 -29.5s-25.667 -43.167 -33 -70.5s-11.666 -55.333 -12.999 -84s-2 -52 -2 -70c0 -18.667 0.666992 -35.5 2 -50.5s3.33301 -29.167 6 -42.5s5.83398 -26.166 9.50098 -38.499s7.83398 -25.166 12.501 -38.499
c3.33301 -11.333 7 -22.666 11 -33.999s8 -24.666 12 -39.999v-3c0 -1.33301 0.166992 -2.5 0.5 -3.5s0.5 -1.83301 0.5 -2.5zM103 369.995l0.000976562 77.001c0 16 0.166992 31.333 0.5 46s0.5 25 0.5 31c0.666992 4.66699 1.83398 12.167 3.50098 22.5l5.5 32.5l5.5 32
c1.66699 10 3.16699 17 4.5 21c0 0.666992 0.166992 1.5 0.5 2.5s0.5 2.16699 0.5 3.5c1.33301 6.66699 3 14.5 5 23.5s4.5 17.667 7.5 26s6.66699 15.5 11 21.5s9.16602 9 14.499 9c4 0 8.16699 -4.83301 12.5 -14.5s8.5 -21.834 12.5 -36.501s8 -31 12 -49
s7.33301 -35.333 10 -52l7 -44.5c2 -13 3 -22.167 3 -27.5v-17v-24c0 -8.66699 0.166992 -17.834 0.5 -27.501s0.5 -18.834 0.5 -27.501v-22v-21c0 -8 -0.166992 -16.667 -0.5 -26s-0.5 -18.666 -0.5 -27.999v-24v-21c0 -8 -0.666992 -22 -2 -42s-4 -40.667 -8 -62
s-9.83301 -40.166 -17.5 -56.499s-17.834 -24.5 -30.501 -24.5c-12 0 -21.833 6 -29.5 18s-13.5 26 -17.5 42s-6.66699 32 -8 48s-2 28.333 -2 37v25v31c0 12 -0.166992 24 -0.5 36s-0.5 23.333 -0.5 34v28zM118.001 1032l-0.000976562 27c0 14.667 0.333008 31.167 1 49.5
s2.5 36.333 5.5 54s7.33301 34 13 49s13.834 26.167 24.501 33.5c10 -7.33301 18 -17.333 24 -30s10.5 -27 13.5 -43s5 -32.667 6 -50s1.5 -34 1.5 -50v-60c0 -10 -0.666992 -25 -2 -45s-3.83301 -40.5 -7.5 -61.5s-8.33398 -40.5 -14.001 -58.5s-12.5 -29.667 -20.5 -35
c-17.333 31.333 -29.166 67 -35.499 107s-9.5 77.667 -9.5 113z" />
    <glyph glyph-name="nine" unicode="9" 
d="M50 382l0.00585938 -113.002c0 -25.333 1 -53.333 3 -84s7 -59.667 15 -87s19.667 -50.166 35 -68.499s36.333 -27.5 63 -27.5c20 0 37 5.66699 51 17s25.667 26.166 35 44.499s16.666 39 21.999 62s9.16602 45.667 11.499 68s3.83301 43.5 4.5 63.5s1 36.333 1 49v742
c0 26 -1.16699 53.667 -3.5 83s-7.83301 56.333 -16.5 81s-21.667 45 -39 61s-41.333 24 -72 24c-24 0 -43.667 -6.33301 -59 -19s-27.333 -28.334 -36 -47.001s-14.667 -39 -18 -61s-5.33301 -42.333 -6 -61v-24v-32c0 -11.333 -0.166992 -23 -0.5 -35
s-0.5 -23.667 -0.5 -35v-27v-78c0 -16.667 0.166992 -32.167 0.5 -46.5s0.5 -24.166 0.5 -29.499c1.33301 -19.333 3.83301 -38.833 7.5 -58.5s9.83398 -37.834 18.501 -54.501s20 -30.167 34 -40.5s32.333 -15.5 55 -15.5c2 0 5 0.166992 9 0.5s8 0.833008 12 1.5
s7.5 1.33398 10.5 2.00098s4.83301 1 5.5 1l21 22v-90c0 -22.667 0.166992 -44 0.5 -64s0.5 -34 0.5 -42v-37c0 -14.667 -0.166992 -30.167 -0.5 -46.5s-0.5 -32.5 -0.5 -48.5v-42v-34c0 -2 -0.333008 -6.66699 -1 -14s-1.5 -15.666 -2.5 -24.999l-3 -28
c-1 -9.33301 -1.83301 -16.333 -2.5 -21c0 -1.33301 -0.166992 -2.33301 -0.5 -3s-0.5 -1.66699 -0.5 -3c-0.666992 -6.66699 -1.83398 -15.167 -3.50098 -25.5s-3.83398 -20.5 -6.50098 -30.5s-6.33398 -18.5 -11.001 -25.5s-10.334 -10.5 -17.001 -10.5h-11
c-0.666992 0 -1.33398 0.666992 -2.00098 2s-1.5 3.5 -2.5 6.5l-3.5 10.5c-14.667 37.333 -24 77.333 -28 120s-6 85 -6 127c0 13.333 0.166992 26.666 0.5 39.999s0.5 26.666 0.5 39.999c0.666992 12.667 1 25.334 1 38.001v37c-6 0 -12.167 -1.66699 -18.5 -5
s-12.333 -7.33301 -18 -12s-11 -9.5 -16 -14.5s-8.83301 -9.16699 -11.5 -12.5c0 -5.33301 -0.166992 -14.166 -0.5 -26.499s-0.5 -25.166 -0.5 -38.499zM170.006 1238c6.66699 0 12.168 -2.99805 16.501 -8.99805s8 -13 11 -21s5.16699 -16.333 6.5 -25
s2.66602 -16 3.99902 -22c3.33301 -26 5.66602 -47.5 6.99902 -64.5s2 -33.833 2 -50.5c0 -7.33301 -0.166992 -14.5 -0.5 -21.5s-0.5 -14.5 -0.5 -22.5c0 -10.667 -0.166992 -22 -0.5 -34s-0.5 -26 -0.5 -42c0 -6.66699 -0.166992 -17.834 -0.5 -33.501
s-0.5 -32.167 -0.5 -49.5v-79c-4.66699 -4 -8.66699 -8.66699 -12 -14l-10 -16c-5.33301 -9.33301 -11.166 -17.833 -17.499 -25.5s-13.5 -11.5 -21.5 -11.5c-7.33301 0 -13.166 3 -17.499 9s-7.83301 13.167 -10.5 21.5s-4.5 16.666 -5.5 24.999s-1.5 14.833 -1.5 19.5
l3 360c0 8 0.666992 18 2 30s3.66602 23.667 6.99902 35s8.33301 21 15 29s15 12 25 12z" />
    <glyph glyph-name="colon" unicode=":" horiz-adv-x="138" 
d="M55 893v-108h50v108h-50zM55 101v-98h50v98h-50z" />
    <glyph glyph-name="semicolon" unicode=";" horiz-adv-x="125" 
d="M44 -90c0 -4.66699 -0.331055 -9.5 -0.998047 -14.5l-2 -15.5v1c-0.666992 -2 -1 -5.66699 -1 -11v1c-1.33301 -6.66699 -2.33301 -13.667 -3 -21s-1 -17 -1 -29h29l16 54c1.33301 2.66699 2 5 2 7c0 1.33301 0.333008 2.66602 1 3.99902
c1.33301 4.66699 2.33301 9.66699 3 15l1 8c0 4 0.166992 13.333 0.5 28s0.666016 30.5 0.999023 47.5s0.666016 33 0.999023 48s0.5 24.167 0.5 27.5h-55v-139c4 -2 6.33301 -3.66699 7 -5s1 -2.66602 1 -3.99902v-2zM40.002 894v-108h52v108h-52z" />
    <glyph glyph-name="less" unicode="&#x3c;" horiz-adv-x="1241" 
d="M491 -219c0 -5.33301 0.835938 -10.833 2.50293 -16.5s6.16699 -8.5 13.5 -8.5c0.666992 0 1.66699 0.166992 3 0.5l2 0.5c1.33301 0.666992 3.16602 2.16699 5.49902 4.5s3.83301 4.16602 4.5 5.49902c2 3.33301 4.5 8 7.5 14l9.5 19l8.5 17.5
c2.33301 5 3.83301 8.16699 4.5 9.5c1.33301 4 3.5 12 6.5 24s6 25 9 39l8.5 40c2.66699 12.667 4.66699 21.667 6 27c1.33301 8.66699 3.16602 21.834 5.49902 39.501s4.5 35.5 6.5 53.5l5.5 49c1.66699 14.667 2.5 24 2.5 28v630c8 10.667 15.333 22 22 34
s12.667 24 18 36l20 -10v-800c0 -3.33301 1.5 -5.83301 4.5 -7.5s6.33301 -2.83398 10 -3.50098s7.16699 -0.833984 10.5 -0.500977s5.33301 0.5 6 0.5h11c4.66699 0 9 0.666992 13 2s7.5 3.5 10.5 6.5s4.5 7.16699 4.5 12.5v750l35 30v-790
c0 -3.33301 1.33301 -5.66602 4 -6.99902s5.66699 -2.33301 9 -3s6.66602 -1 9.99902 -1h7c15.333 0 28.5 2.5 39.5 7.5s16.5 16.167 16.5 33.5c0 12 -0.833008 22 -2.5 30s-6.16699 18 -13.5 30v867c-20 0 -33.667 -2.5 -41 -7.5s-12.833 -11.333 -16.5 -19l-12 -25
c-4.33301 -9 -12.833 -17.5 -25.5 -25.5v28c0 10 -1 18.833 -3 26.5s-5.5 14 -10.5 19s-12.5 7.5 -22.5 7.5s-18.167 -2.83301 -24.5 -8.5s-12 -12.167 -17 -19.5s-10 -15.166 -15 -23.499s-10.833 -14.833 -17.5 -19.5c-0.666992 8 -1 16.333 -1 25s-1 16.334 -3 23.001
s-5.33301 12.167 -10 16.5s-11.334 6.5 -20.001 6.5c-3.33301 0 -8.16602 -0.333008 -14.499 -1s-12.5 -1.66699 -18.5 -3s-11.333 -3.33301 -16 -6s-7 -6.33398 -7 -11.001v-850l-50 -310c0 -0.666992 -0.166992 -3 -0.5 -7s-0.5 -7 -0.5 -9zM841.003 -219
c0 -5.33301 0.836914 -10.835 2.50391 -16.502s6.16699 -8.5 13.5 -8.5c0.666992 0 1.66699 0.166992 3 0.5l2 0.5c1.33301 0.666992 3.16602 2.16699 5.49902 4.5s3.83301 4.16602 4.5 5.49902c2 3.33301 4.5 8 7.5 14l9.5 19l8.5 17.5c2.33301 5 3.83301 8.16699 4.5 9.5
c1.33301 4 3.5 12 6.5 24s6 25 9 39l8.5 40c2.66699 12.667 4.66699 21.667 6 27c1.33301 8.66699 3.16602 21.834 5.49902 39.501s4.5 35.5 6.5 53.5l5.5 49c1.66699 14.667 2.5 24 2.5 28v640c0 0.666992 1.33301 3.5 4 8.5l6 11.5c0.666992 2 2.5 5.33301 5.5 10
s6 9.66699 9 15s6 10.333 9 15l6.5 10l15 -10v-810c0 -3.33301 1.83301 -5.83301 5.5 -7.5s7.66699 -2.66699 12 -3s8.16602 -0.5 11.499 -0.5h7h11c4.66699 0 9 0.666992 13 2s7.5 3.5 10.5 6.5s4.5 7.16699 4.5 12.5v750l35 30v-790
c0 -3.33301 1.33301 -5.66602 4 -6.99902s5.66699 -2.33301 9 -3s6.66602 -1 9.99902 -1h7c15.333 0 28.5 2.5 39.5 7.5s16.5 16.167 16.5 33.5c0 12 -0.833008 22 -2.5 30s-6.16699 18 -13.5 30v867c-20 0 -33.667 -2.5 -41 -7.5s-12.833 -11.333 -16.5 -19l-12 -25
c-4.33301 -9 -12.833 -17.5 -25.5 -25.5v28c0 10 -1 18.833 -3 26.5s-5.5 14 -10.5 19s-12.5 7.5 -22.5 7.5s-18.167 -2.83301 -24.5 -8.5s-12 -12.167 -17 -19.5s-10 -15.166 -15 -23.499s-10.833 -14.833 -17.5 -19.5c-0.666992 8 -1 16.333 -1 25s-1 16.334 -3 23.001
s-5.33301 12.167 -10 16.5s-11.334 6.5 -20.001 6.5c-3.33301 0 -8.16602 -0.333008 -14.499 -1s-12.5 -1.66699 -18.5 -3s-11.333 -3.33301 -16 -6s-7 -6.33398 -7 -11.001v-850l-50 -310c0 -0.666992 -0.166992 -3 -0.5 -7s-0.5 -7 -0.5 -9zM71.0068 27.998
c0 -8.66699 0.833008 -16.001 2.5 -22.001s7.5 -9 17.5 -9c5.33301 0 15.166 1 29.499 3s29.166 5.16699 44.499 9.5s28.833 10 40.5 17s17.5 15.5 17.5 25.5c0 4 -1.66699 7.5 -5 10.5s-7.33301 5.5 -12 7.5s-9.33398 3.5 -14.001 4.5s-8 1.83301 -10 2.5v750l20 20
c10.667 2 26.5 4.33301 47.5 7s41.833 7.5 62.5 14.5s38.667 16.333 54 28s23 27.5 23 47.5c-32 0 -62.167 2.16699 -90.5 6.5s-57.5 6.5 -87.5 6.5h-9c-1.33301 -0.666992 -4.66602 -2.5 -9.99902 -5.5s-8.66602 -4.5 -9.99902 -4.5c-5.33301 0 -11.5 3.5 -18.5 10.5
s-14.5 10.5 -22.5 10.5c-1.33301 0 -3.16602 -0.166992 -5.49902 -0.5l-3.5 -0.5c-3.33301 -1.33301 -8.83301 -3.83301 -16.5 -7.5l-24 -12l-24 -12c-7.66699 -3.66699 -12.834 -6.5 -15.501 -8.5c0 -0.666992 -0.166992 -2.16699 -0.5 -4.5s-0.5 -4.16602 -0.5 -5.49902
c0 -10.667 4.5 -18 13.5 -22s18.167 -6.66699 27.5 -8v-820c-11.333 -3.33301 -17.666 -8.5 -18.999 -15.5s-2 -14.833 -2 -23.5zM392.007 46.9971c4 -3.33301 7.50195 -7.66699 10.502 -13l9 -16.5c3 -5.66699 6.33301 -10.5 10 -14.5s8.5 -6 14.5 -6
c19.333 0 35.333 7.16699 48 21.5s19 30.833 19 49.5c0 6.66699 -2.16699 10.834 -6.5 12.501s-9 3 -14 4s-9.66699 2.83301 -14 5.5s-6.5 8.33398 -6.5 17.001v870h-10l-7 -8l-17 -19l-20 -23c-6.66699 -8 -12 -14.667 -16 -20c-12.667 -16 -25 -34.667 -37 -56
s-22.667 -43.833 -32 -67.5s-16.833 -47.334 -22.5 -71.001s-8.5 -45.5 -8.5 -65.5v-590c0 -14.667 5.16699 -26.834 15.5 -36.501s22.166 -14.5 35.499 -14.5c1.33301 0 3.16602 0.166992 5.49902 0.5l3.5 0.5c2 1.33301 4.83301 3.83301 8.5 7.5l12 12l12 12
c3.66699 3.66699 6.16699 6.5 7.5 8.5zM342.009 96.9961c0.666992 2 1.16602 5.5 1.49902 10.5s0.5 10.167 0.5 15.5c0 6 -0.166992 11.5 -0.5 16.5s-0.5 8.5 -0.5 10.5v19c0 10.667 -0.166992 22 -0.5 34s-0.5 23.333 -0.5 34v20v17c0 10 -0.166992 21.667 -0.5 35
s-0.5 26.666 -0.5 39.999v33v32c0 14 0.166992 27.667 0.5 41s0.5 25 0.5 35v17c0 3.33301 0.333008 10.166 1 20.499s1.5 21.333 2.5 33s2.16699 22.834 3.5 33.501s2.33301 18.334 3 23.001c0.666992 3.33301 1.83398 10.166 3.50098 20.499l5.5 33l6 33.5
c2 10.667 3.66699 18.334 5 23.001c1.33301 6.66699 3 14.5 5 23.5s4.66699 18 8 27s7.16602 17 11.499 24s9.5 12.167 15.5 15.5c0 -2 0.166992 -6.16699 0.5 -12.5s0.5 -10.5 0.5 -12.5c0 -8 0.666992 -15.667 2 -23s2.5 -14.5 3.5 -21.5s1.33301 -14.333 1 -22
s-2.16602 -16.167 -5.49902 -25.5l-17 -563c-5.33301 -2 -9.83301 -5 -13.5 -9s-7.16699 -8.5 -10.5 -13.5s-6.5 -10 -9.5 -15s-6.83301 -9.16699 -11.5 -12.5z" />
    <glyph glyph-name="equal" unicode="=" horiz-adv-x="502" 
d="M124 470v-40h250v40h-250v0zM124 580v-40h250v40h-250v0z" />
    <glyph glyph-name="greater" unicode="&#x3e;" horiz-adv-x="1267" 
d="M1000 956c-2 0 -7.83008 -0.168945 -17.4971 -0.501953s-19.834 -1.66602 -30.501 -3.99902s-20.334 -5.83301 -29.001 -10.5s-13 -11 -13 -19v-840c0 -30 -2.33301 -59.5 -7 -88.5s-9.83398 -58.167 -15.501 -87.5s-10.834 -58.666 -15.501 -87.999s-7 -59 -7 -89
c8.66699 0 15.334 2 20.001 6s9.66699 9.66699 15 17c4.66699 12 10.334 27.5 17.001 46.5s13.167 39 19.5 60s11.666 41.667 15.999 62s6.83301 37.5 7.5 51.5l30 690c0 7.33301 1 18.833 3 34.5s5 31.667 9 48s9.5 31.166 16.5 44.499s15.833 21 26.5 23v-800
c0 -3.33301 1.66699 -5.83301 5 -7.5s7.16602 -2.66699 11.499 -3s8.16602 -0.5 11.499 -0.5h7c12 0 23.5 2.33301 34.5 7s16.5 14 16.5 28c0 1.33301 -0.166992 4.16602 -0.5 8.49902s-0.5 6.83301 -0.5 7.5c-0.666992 4 -1.66699 10.667 -3 20
s-2.66602 19.333 -3.99902 30s-2.83301 20.667 -4.5 30l-3.5 20v790c0 2.66699 -1.33301 4.83398 -4 6.50098s-5.83398 2.83398 -9.50098 3.50098s-7.16699 1 -10.5 1h-7c-13.333 0 -23 -4.66699 -29 -14s-11.167 -19.5 -15.5 -30.5s-9.16602 -21.167 -14.499 -30.5
s-13.666 -14 -24.999 -14v92zM40.0029 -148.002c0.666992 -1.33301 2.17285 -3.16992 4.50586 -5.50293s4.16602 -3.83301 5.49902 -4.5l2 -0.5c1.33301 -0.333008 2.33301 -0.5 3 -0.5c9.33301 0 17.833 4.83301 25.5 14.5s14.334 21.167 20.001 34.5
s10.167 26.833 13.5 40.5s5.33301 24.167 6 31.5v36c0 16.667 0.166992 34.667 0.5 54s0.5 37.333 0.5 54v36c0 101.333 -3.66699 202.166 -11 302.499s-11 201.166 -11 302.499v35c0 16.667 0.166992 34.167 0.5 52.5s0.5 35.833 0.5 52.5v35
c0.666992 4 2.16699 11.5 4.5 22.5s5.16602 22.333 8.49902 34s7.66602 21.834 12.999 30.501s11.666 13 18.999 13c6.66699 0 12.5 -1.83301 17.5 -5.5s11.167 -5.5 18.5 -5.5s13.666 2.33301 18.999 7s9.5 10.334 12.5 17.001s5.16699 13.834 6.5 21.501s2 14.5 2 20.5
c0 30.667 -13.667 46 -41 46c-24 0 -44.833 -8.33301 -62.5 -25s-32.834 -38 -45.501 -64s-23.167 -55.167 -31.5 -87.5s-14.833 -64.166 -19.5 -95.499s-7.83398 -60.5 -9.50098 -87.5s-2.5 -48.167 -2.5 -63.5c0 -71.333 2.16699 -142.166 6.5 -212.499l13 -211
c4.33301 -70.333 8 -140.833 11 -211.5s3.16699 -141.667 0.5 -213zM219.009 22.9941c0 -8.66699 0.833984 -16.002 2.50098 -22.002s7.5 -9 17.5 -9c2 0 8.5 0.5 19.5 1.5s22.5 2.66699 34.5 5s22.833 5.5 32.5 9.5s14.5 8.66699 14.5 14v850c23.333 4 48.5 9 75.5 15
s52 14.833 75 26.5s42.167 27 57.5 46s23 43.5 23 73.5c-46.667 0 -80.334 -22 -101.001 -66h-250c-12 0 -23 -7.33301 -33 -22s-18.5 -31.834 -25.5 -51.501s-12.5 -39 -16.5 -58s-6 -32.833 -6 -41.5c0 -19.333 5.66699 -33.166 17 -41.499s26 -12.5 44 -12.5
c2.66699 0 7.83398 0.166992 15.501 0.5s12.5 0.833008 14.5 1.5c1.33301 2 3.16602 6.83301 5.49902 14.5s3.83301 12.834 4.5 15.501v10c0 11.333 -1.83301 22.5 -5.5 33.5s-5.5 22.167 -5.5 33.5c0 10.667 2.83301 16.834 8.5 18.501s13.167 2.5 22.5 2.5v-778
c0 -8 -2.16699 -14.5 -6.5 -19.5s-9 -9.83301 -14 -14.5s-9.66699 -9.66699 -14 -15s-6.5 -12 -6.5 -20zM490.01 61.9922c7.33301 -18.667 15.5049 -33.335 24.5049 -44.002s24.167 -16 45.5 -16c19.333 0 37 6 53 18s29.667 27 41 45s20.166 37.167 26.499 57.5
s9.5 38.833 9.5 55.5v4c-0.666992 1.33301 -2.16699 3.16602 -4.5 5.49902s-4.16602 3.83301 -5.49902 4.5l-2 0.5c-1.33301 0.333008 -2.33301 0.5 -3 0.5c-10 0 -17.5 -4.33301 -22.5 -13s-9.5 -18 -13.5 -28s-8.83301 -19.333 -14.5 -28s-13.834 -13 -24.501 -13
s-18.834 3.5 -24.501 10.5s-9.66699 15.5 -12 25.5s-3.66602 20.167 -3.99902 30.5s-0.5 19.166 -0.5 26.499c0 16.667 2.16699 32.667 6.5 48s9.16602 30.833 14.499 46.5s10.166 31.167 14.499 46.5s6.5 31.333 6.5 48c0 2.66699 -0.166992 6.33398 -0.5 11.001
s-0.5 7.33398 -0.5 8.00098c-0.666992 2 -3 6.83301 -7 14.5l-12.5 25c-4.33301 9 -8.66602 17.5 -12.999 25.5s-6.83301 13 -7.5 15c-10.667 23.333 -16.834 48.166 -18.501 74.499s-2.5 52.166 -2.5 77.499c0 12 0.166992 23.5 0.5 34.5s3.83301 22.167 10.5 33.5
c6.66699 0.666992 16.334 1.5 29.001 2.5s25.5 3 38.5 6s25.333 7 37 12s20.167 11.5 25.5 19.5c2.66699 4 4.66699 9.16699 6 15.5l2 9.5h-53l-3.5 13.5c-2.33301 9 -2.83301 16.167 -1.5 21.5l5.5 11c3 6 6.33301 12.333 10 19s7 13 10 19s4.5 9.66699 4.5 11
c0.666992 1.33301 1.16699 6.33301 1.5 15s0.5 15.334 0.5 20.001c0 2.66699 -0.166992 8.5 -0.5 17.5s-0.833008 14.833 -1.5 17.5c-6.66699 10 -17.334 17.667 -32.001 23s-27.667 8 -39 8c-7.33301 0 -14.166 -2.66699 -20.499 -8s-12 -11.833 -17 -19.5
s-9.33301 -15.5 -13 -23.5s-6.5 -14.667 -8.5 -20l-6.5 -19.5l-9.5 -28l-9 -26.5c-2.66699 -8 -4.33398 -13.333 -5.00098 -16c-1.33301 -5.33301 -3 -13.5 -5 -24.5s-4.16699 -22.333 -6.5 -34s-4.33301 -22.5 -6 -32.5s-2.5 -16.333 -2.5 -19
c0 -1.33301 -0.166992 -6.33301 -0.5 -15s-0.666016 -18.667 -0.999023 -30s-0.5 -22.666 -0.5 -33.999v-27c0 -23.333 2.16699 -46.333 6.5 -69s9.16602 -45 14.499 -67s10.166 -44 14.499 -66s6.5 -44.333 6.5 -67c0 -17.333 -1.66699 -34.166 -5 -50.499
s-7 -32.666 -11 -48.999s-7.66699 -32.833 -11 -49.5s-5 -33.667 -5 -51v-13c0 -6 0.166992 -12.5 0.5 -19.5s0.666016 -13.5 0.999023 -19.5s0.5 -10.333 0.5 -13zM720.015 881.991v-882.998c6 0 16.167 0.166992 30.5 0.5s29 1.66602 44 3.99902s28.833 6.5 41.5 12.5
s20.667 14.667 24 26c1.33301 4 2.33301 9.16699 3 15.5l1 9.5h-69v885c0 0.666992 -2 2.16699 -6 4.5s-7 4.16602 -9 5.49902h-5c-4 0 -10.667 -1.5 -20 -4.5s-18.833 -6.66699 -28.5 -11s-18.334 -9.16602 -26.001 -14.499s-11.5 -10.333 -11.5 -15
c0 -0.666992 0.166992 -1.66699 0.5 -3l0.5 -2c2 -2.66699 6.83301 -7.83398 14.5 -15.501s12.834 -12.5 15.501 -14.5zM582.015 853.993c0 -6 -0.500977 -13.833 -1.50098 -23.5s-3 -19 -6 -28s-7.33301 -16.833 -13 -23.5s-13.167 -10 -22.5 -10
c0 6.66699 0.666992 15 2 25s3.5 19.333 6.5 28s7.33301 16.167 13 22.5s12.834 9.5 21.501 9.5z" />
    <glyph glyph-name="question" unicode="?" horiz-adv-x="250" 
d="M80 100v-100h60v100h-60zM181 1030c0 -39.333 -4.99707 -76.498 -14.9971 -111.498s-21.333 -69.333 -34 -103s-24.334 -67.334 -35.001 -101.001s-16.334 -68.5 -17.001 -104.5c0 -12 -0.333008 -33.167 -1 -63.5s-1.16699 -62.5 -1.5 -96.5
s-0.666016 -66.167 -0.999023 -96.5s-0.5 -51.5 -0.5 -63.5h69v370l40 94c12 28.667 22.167 57.167 30.5 85.5s14.666 57.333 18.999 87s6.5 62.167 6.5 97.5c0 26 -0.833008 55.167 -2.5 87.5s-7.16699 62.5 -16.5 90.5s-24 51.5 -44 70.5s-48.333 28.5 -85 28.5h-25
c-9.33301 0 -18.5 -0.833008 -27.5 -2.5s-16.5 -5 -22.5 -10s-9 -12.5 -9 -22.5c0 -32.667 1.5 -62.5 4.5 -89.5l9 -80.5c3 -26.667 5.5 -54 7.5 -82s2 -59.333 0 -94c0.666992 -3.33301 2.33398 -5.83301 5.00098 -7.5s5.5 -2.83398 8.5 -3.50098s6 -0.833984 9 -0.500977
s5.5 0.5 7.5 0.5c1.33301 0 4.66602 0.166992 9.99902 0.5s8.66602 0.5 9.99902 0.5c7.33301 21.333 11 44.666 11 69.999v69c0 33.333 -1.5 65.833 -4.5 97.5s-4.5 63.834 -4.5 96.501c2 0 6.66699 1.5 14 4.5s12 3.83301 14 2.5
c17.333 -8.66699 30.833 -22.167 40.5 -40.5s16.667 -38.166 21 -59.499s7 -42.833 8 -64.5s1.5 -40.167 1.5 -55.5z" />
    <glyph glyph-name="at" unicode="@" horiz-adv-x="397" 
d="M202 1179c-29.333 0 -52.501 -8.83594 -69.501 -26.5029s-30 -39.334 -39 -65.001s-14.833 -53 -17.5 -82s-4 -54.833 -4 -77.5v-660c0 -12 0.333008 -26.833 1 -44.5s2.33398 -36.334 5.00098 -56.001s6.5 -39.167 11.5 -58.5s11.833 -36.666 20.5 -51.999
s19.334 -27.833 32.001 -37.5s28 -14.5 46 -14.5c16.667 0 31 3.83301 43 11.5s22 17.5 30 29.5s13.833 25.333 17.5 40s5.5 29.334 5.5 44.001c-17.333 0 -29.333 -3.33301 -36 -10s-12 -14.5 -16 -23.5s-8.5 -18 -13.5 -27s-13.833 -16.167 -26.5 -21.5
c-4 -1.33301 -8.16699 -0.5 -12.5 2.5s-8.5 7 -12.5 12s-7.33301 10 -10 15s-4.33398 8.5 -5.00098 10.5c-0.666992 3.33301 -2 9.16602 -4 17.499s-4 17.333 -6 27s-4 18.834 -6 27.501s-3.33301 14.667 -4 18s-1.5 8.83301 -2.5 16.5l-3 24l-3 24
c-1 7.66699 -1.5 12.834 -1.5 15.501c-0.666992 9.33301 -1.5 25.333 -2.5 48s-2 46.834 -3 72.501s-2 49.834 -3 72.501s-1.5 38.334 -1.5 47.001v18c0 10.667 -0.166992 23 -0.5 37s-0.5 28 -0.5 42v34v33c0 14 0.166992 27.833 0.5 41.5s0.5 25.834 0.5 36.501v18
c0 6.66699 0.5 19.5 1.5 38.5s2 39 3 60l3 60.5c1 19.333 1.83301 33 2.5 41c0.666992 10 1.83398 24.667 3.50098 44s5 38.333 10 57s12 35 21 49s21.5 21 37.5 21c16.667 0 29 -7.83301 37 -23.5s13.667 -34 17 -55s5 -41.833 5 -62.5v-45v-13
c0 -6 -0.166992 -12.5 -0.5 -19.5s-0.5 -13.5 -0.5 -19.5v-13c-20.667 -1.33301 -37.334 -7.66602 -50.001 -18.999s-22.334 -25.5 -29.001 -42.5s-11 -36 -13 -57s-3 -42.167 -3 -63.5s0.666992 -41.833 2 -61.5s2 -36.834 2 -51.501c0 -20.667 0.166992 -38.667 0.5 -54
s0.833008 -30.333 1.5 -45s1.66699 -30.334 3 -47.001s3.33301 -36.334 6 -59.001c0 -3.33301 1 -10.333 3 -21s4.66699 -21.834 8 -33.501s7.33301 -22.167 12 -31.5s10.334 -14 17.001 -14h114v70c0 32 -0.166992 68.167 -0.5 108.5l-1 126.5l-1 126.5
c-0.333008 40.333 -0.666016 76.333 -0.999023 108s-0.5 55.167 -0.5 70.5c0 12 -0.333008 27.667 -1 47s-2.16699 39.833 -4.5 61.5s-6 43.334 -11 65.001s-11.833 41.167 -20.5 58.5s-19.834 31.5 -33.501 42.5s-30.167 16.5 -49.5 16.5zM235.999 828.997
c5.33301 0 9.66602 -2.3291 12.999 -6.99609s6 -9.83398 8 -15.501s3.33301 -11.334 4 -17.001s1 -9.5 1 -11.5v-430c0 -4 -2.33301 -9.33301 -7 -16s-9 -11.334 -13 -14.001c-1.33301 0.666992 -3.16602 2.16699 -5.49902 4.5s-3.83301 4.16602 -4.5 5.49902
c-0.666992 2 -1.66699 5.5 -3 10.5s-2.5 10.167 -3.5 15.5s-1.83301 10.333 -2.5 15s-1 7.66699 -1 9v420c0 2 1.33301 7 4 15s4.66699 13 6 15l1.5 0.5c1 0.333008 1.83301 0.5 2.5 0.5z" />
    <glyph glyph-name="A" unicode="A" horiz-adv-x="362" 
d="M41 30c-6 -2 -9.66699 -6.33496 -11 -13.002s-2 -12.334 -2 -17.001h106c0 4.66699 -0.666992 10.334 -2 17.001s-5 11 -11 13v75v75l2.5 58.5l3 69c1 22.333 2 41.666 3 57.999l1.5 24.5l80 50h20c0.666992 -8 1.5 -22.5 2.5 -43.5s2 -43.167 3 -66.5s2 -45.5 3 -66.5
s1.5 -35.5 1.5 -43.5v-14c0 -7.33301 0.166992 -16 0.5 -26s0.5 -20.333 0.5 -31v-24v-19c0 -8.66699 -0.166992 -18.167 -0.5 -28.5s-0.5 -20.166 -0.5 -29.499v-18c-6 -2 -9.66699 -6.33301 -11 -13s-2 -12.334 -2 -17.001h106c0 4.66699 -0.666992 10.334 -2 17.001
s-5 11 -11 13l-60 1140v7c0 4.66699 -0.166992 9.5 -0.5 14.5s-0.5 9.83301 -0.5 14.5v12c0 15.333 2.16699 27.833 6.5 37.5s6.5 21.167 6.5 34.5h-184c0 -11.333 2.16699 -21.166 6.5 -29.499s6.5 -19.166 6.5 -32.499v-9c0 -4 -0.166992 -8 -0.5 -12
s-0.5 -7.66699 -0.5 -11v-6zM171 1230l19.9961 0.000976562c0.666992 -15.333 1.83398 -38.5 3.50098 -69.5l5.5 -106l6.5 -124.5c2.33301 -43.333 4.33301 -84.833 6 -124.5s3.33398 -75 5.00098 -106s2.83398 -54.167 3.50098 -69.5v-50v-50l-16 -11
c-6.66699 -4.66699 -13.834 -9.33398 -21.501 -14.001s-15.5 -8.66699 -23.5 -12s-15.333 -5 -22 -5c0 4.66699 0.166992 13.334 0.5 26.001l1 40c0.333008 14 0.666016 27.167 0.999023 39.5s0.5 21.166 0.5 26.499c0.666992 15.333 1.83398 39 3.50098 71
s3.33398 68 5.00098 108s3.66699 82.167 6 126.5l6.5 126.5l5.5 107.5c1.66699 31.667 2.83398 55.167 3.50098 70.5z" />
    <glyph glyph-name="B" unicode="B" horiz-adv-x="339" 
d="M61 43c-16.667 -8.66699 -25.0039 -23.3291 -25.0039 -43.9961c5.33301 0 14.833 0.166992 28.5 0.5s28.334 0.666016 44.001 0.999023s30.334 0.833008 44.001 1.5s23.167 1 28.5 1c2.66699 0 7.83398 1.33301 15.501 4s12.5 4.66699 14.5 6
c22.667 16.667 40.334 37.5 53.001 62.5s21.667 51.667 27 80s8.5 57 9.5 86s1.5 55.833 1.5 80.5c0 52 -2.5 103 -7.5 153s-16.167 99.333 -33.5 148c-0.666992 1.33301 -2 4.5 -4 9.5l-6.5 15.5l-6.5 15.5c-2 5 -3 8.16699 -3 9.5c0 11.333 2 23.166 6 35.499
s8.5 25 13.5 38s9.66699 26 14 39s6.5 25.5 6.5 37.5v19c0 12 0.166992 25.667 0.5 41s0.5 31 0.5 47v38v38c0 16 -0.166992 31.667 -0.5 47s-0.5 28.666 -0.5 39.999v20c0 10 -1.83301 25 -5.5 45s-9 40 -16 60s-16.167 37.5 -27.5 52.5s-25 22.5 -41 22.5h-153
c0 -6 3 -11.833 9 -17.5s10.667 -9.83398 14 -12.501v-1220zM130.996 1243c0.666992 0 2.16504 0.166992 4.49805 0.5s4.16602 0.5 5.49902 0.5c12.667 0 23.5 -4.5 32.5 -13.5s16.333 -19.833 22 -32.5s9.66699 -26 12 -40s3.5 -25.667 3.5 -35v-340l-1.5 -10
c-1 -6.66699 -2.66699 -13.667 -5 -21s-5 -14.166 -8 -20.499s-6.5 -9.5 -10.5 -9.5c-4.66699 0 -8.5 0.833008 -11.5 2.5s-6 3.5 -9 5.5s-6.33301 3.83301 -10 5.5s-8.5 2.5 -14.5 2.5v-145l10 -10c2 2.66699 6.83301 7.83398 14.5 15.501s12.834 12.5 15.501 14.5l2 0.5
c1.33301 0.333008 2.33301 0.5 3 0.5c4.66699 0 9.16699 -4.33301 13.5 -13s8 -18.334 11 -29.001s5.5 -20.834 7.5 -30.501s3 -15.834 3 -18.501c2.66699 -20.667 4.83398 -38.167 6.50098 -52.5s2.83398 -28.166 3.50098 -41.499s1 -27 1 -41v-51v-42
c0 -18 -0.666992 -37.667 -2 -59s-4 -42.833 -8 -64.5s-9.66699 -41.5 -17 -59.5s-17 -32.667 -29 -44s-27 -17 -45 -17v1192z" />
    <glyph glyph-name="C" unicode="C" horiz-adv-x="352" 
d="M41 679l-0.00390625 -47.0029v-58c0 -20.667 0.166992 -41.334 0.5 -62.001s0.5 -39.667 0.5 -57v-42v-20c0 -3.33301 0.333008 -12 1 -26s1.5 -29.5 2.5 -46.5s2.16699 -33.667 3.5 -50l3 -37.5c1.33301 -19.333 3.66602 -42.333 6.99902 -69s9.16602 -52 17.499 -76
s20.5 -44.333 36.5 -61s37.333 -25 64 -25c24 0 43.833 8 59.5 24s28.167 36.333 37.5 61s16 52.167 20 82.5s6.66699 60 8 89s1.66602 55.5 0.999023 79.5s-1 42.333 -1 55v40c-8.66699 6.66699 -19 12.334 -31 17.001s-23.667 7 -35 7v-28
c0 -12.667 -0.166992 -27 -0.5 -43s-0.666016 -33 -0.999023 -51s-0.666016 -35 -0.999023 -51s-0.666016 -30.333 -0.999023 -43s-0.5 -22 -0.5 -28c0 -8 -0.166992 -19.833 -0.5 -35.5s-2 -31.834 -5 -48.501s-8 -32.167 -15 -46.5s-16.833 -24.166 -29.5 -29.499
c-8 -3.33301 -15.667 0.833984 -23 12.501s-13.666 25.667 -18.999 42s-9.5 32 -12.5 47s-4.83301 24.5 -5.5 28.5c-0.666992 5.33301 -1.66699 12.666 -3 21.999s-2.5 18.833 -3.5 28.5s-1.83301 18.334 -2.5 26.001s-1 12.167 -1 13.5v730c0 2 0.333008 8.16699 1 18.5
s1.5 21.833 2.5 34.5s2.16699 25.334 3.5 38.001l3 29c0.666992 9.33301 1.83398 22 3.50098 38s4.83398 31.667 9.50098 47s11 28.5 19 39.5s19 16.5 33 16.5c6.66699 0 13.334 -2.16699 20.001 -6.5s12.667 -9.83301 18 -16.5s9.5 -13.834 12.5 -21.501
s4.5 -14.834 4.5 -21.501c0 -20 -1.66699 -39.833 -5 -59.5l-10.5 -59.5l-10.5 -60c-3.33301 -20 -5 -40.333 -5 -61c0 -25.333 0.333008 -48 1 -68s4 -42.333 10 -67c1.33301 0 4.66602 -0.166992 9.99902 -0.5s8.66602 -0.5 9.99902 -0.5c7.33301 0 14.333 0.333008 21 1
s13 4 19 10c-0.666992 8.66699 -1.16699 24.5 -1.5 47.5s-0.5 47.167 -0.5 72.5s0.166992 49.333 0.5 72s0.833008 38.667 1.5 48c0 2.66699 1 8.83398 3 18.501s4.33301 20.167 7 31.5s5 21.833 7 31.5s3 15.834 3 18.501c0 1.33301 0.166992 4.66602 0.5 9.99902
s0.5 9.33301 0.5 12c0 18.667 -3.5 35.5 -10.5 50.5s-16.167 27.5 -27.5 37.5s-24.666 17.667 -39.999 23s-31.333 8 -48 8c-25.333 0 -45.666 -8 -60.999 -24s-27.333 -35.5 -36 -58.5s-15 -47.167 -19 -72.5s-7 -47.333 -9 -66
c-0.666992 -7.33301 -1.66699 -17.666 -3 -30.999s-2.5 -26.833 -3.5 -40.5s-1.83301 -26.167 -2.5 -37.5s-1 -18.333 -1 -21v-38c0 -22.667 -0.166992 -49.167 -0.5 -79.5s-0.5 -61.166 -0.5 -92.499v-74z" />
    <glyph glyph-name="D" unicode="D" horiz-adv-x="355" 
d="M54 37c-6.66699 -2 -10.499 -7.00195 -11.499 -15.002s-1.5 -14.333 -1.5 -19c5.33301 0 14.833 0.166992 28.5 0.5l43 1c15 0.333008 29.333 0.833008 43 1.5s23.167 1 28.5 1c2.66699 0 7.83398 1.33301 15.501 4s12.5 4.66699 14.5 6
c20.667 14 36.834 34.167 48.501 60.5s20.5 54.5 26.5 84.5s9.66699 59.833 11 89.5s2.66602 54.834 3.99902 75.501c3.33301 68.667 5.83301 135 7.5 199s2.5 129.333 2.5 196c0 62 -0.833008 122.167 -2.5 180.5s-4.16699 119.833 -7.5 184.5
c-0.666992 12.667 -2.33398 30.834 -5.00098 54.501s-7.5 47 -14.5 70s-17 43 -30 60s-29.833 25.5 -50.5 25.5h-162c0 -0.666992 0.166992 -2.33398 0.5 -5.00098s0.833008 -4.33398 1.5 -5.00098c0.666992 -1.33301 2.16699 -4.66602 4.5 -9.99902
s4.16602 -8.66602 5.49902 -9.99902v-1230zM134.001 1247c1.33301 0 3.83301 0.166992 7.5 0.5s6.16699 0.5 7.5 0.5c19.333 0 34.5 -7.16699 45.5 -21.5s19.333 -31.166 25 -50.499s9.33398 -39.166 11.001 -59.499s2.83398 -36.833 3.50098 -49.5
c0.666992 -8.66699 1.5 -25.334 2.5 -50.001s2 -51.334 3 -80.001l3 -82.5c1 -26.333 1.5 -45.5 1.5 -57.5v-89v-91c0 -10 -0.333008 -24.333 -1 -43s-1.33398 -39.167 -2.00098 -61.5l-2 -69.5c-0.666992 -24 -1.33398 -46.5 -2.00098 -67.5s-1.33398 -39.5 -2.00098 -55.5
s-1 -27 -1 -33c-0.666992 -14.667 -1.66699 -35 -3 -61s-5.16602 -51.667 -11.499 -77s-16 -47.333 -29 -66s-31.833 -28 -56.5 -28v1192z" />
    <glyph glyph-name="E" unicode="E" horiz-adv-x="338" 
d="M39 341v-48.002c0 -29.333 1.16699 -60.833 3.5 -94.5s8.33301 -65 18 -94s24.167 -53.167 43.5 -72.5s46 -29 80 -29c22.667 0 41 6.33301 55 19s25.333 28.167 34 46.5s14.834 38.166 18.501 59.499s6.5 41 8.5 59c0.666992 6 1.66699 15.833 3 29.5s2.5 28 3.5 43
s1.83301 29 2.5 42s1 21.5 1 25.5c0 8 0.166992 22.667 0.5 44s0.666016 44 0.999023 68s0.666016 46.833 0.999023 68.5s0.5 36.5 0.5 44.5c-19.333 0 -34.833 -4 -46.5 -12s-22.834 -19 -33.501 -33c0 -8.66699 0.166992 -17.334 0.5 -26.001s0.5 -16.667 0.5 -24l2 -62.5
c0.666992 -20.333 1 -40.166 1 -59.499c0 -32 -1 -64 -3 -96s-5.66699 -65.333 -11 -100c-0.666992 -4 -2 -10.167 -4 -18.5s-4.5 -16.833 -7.5 -25.5s-6.83301 -16.167 -11.5 -22.5s-10 -9.5 -16 -9.5c-12.667 0 -23.167 5.33301 -31.5 16s-15.333 24.334 -21 41.001
s-10.167 35.167 -13.5 55.5s-5.83301 40.5 -7.5 60.5s-2.66699 38.5 -3 55.5s-0.5 30.167 -0.5 39.5v10c0 44 2 88 6 132s11.667 87.333 23 130v-1c3.33301 11.333 7 21.333 11 30l11 24c7.33301 14 13.833 28.167 19.5 42.5s8.5 29.166 8.5 44.499
c0 12.667 -1.83301 23 -5.5 31s-8.5 16 -14.5 24c-3.33301 4.66699 -6.66602 9.83398 -9.99902 15.501s-6.66602 12.834 -9.99902 21.501c-10.667 28 -16.834 57.167 -18.501 87.5s-2.5 60.166 -2.5 89.499v55c0 17.333 0.666992 37 2 59s4.5 42.5 9.5 61.5s12.333 35 22 48
s22.5 19.5 38.5 19.5h3c4.66699 0 9.66699 -0.333008 15 -1s8 -3.33398 8 -8.00098c0 -16.667 -1 -33.334 -3 -50.001s-4.33301 -33.667 -7 -51s-5 -34.666 -7 -51.999s-3 -35 -3 -53v-33c0 -14.667 0.5 -29.5 1.5 -44.5s4.16699 -30.167 9.5 -45.5
c0.666992 0 2.33398 -0.166992 5.00098 -0.5s4.66699 -0.5 6 -0.5h8c7.33301 0 13.666 0.5 18.999 1.5s11.666 5.16699 18.999 12.5c-0.666992 8.66699 -1 17.334 -1 26.001v25c0 50 2.83301 97.667 8.5 143s12.834 93.333 21.501 144v7
c0 9.33301 -3.16699 16.666 -9.5 21.999s-14 9.33301 -23 12s-18.667 4.33398 -29 5.00098s-19.166 1 -26.499 1h-13c-34 0 -60.5 -8.5 -79.5 -25.5s-33 -38.5 -42 -64.5s-14.5 -54.333 -16.5 -85s-3 -60 -3 -88v-67c0 -30 1 -59.667 3 -89s7.66699 -57.666 17 -84.999
c0.666992 -1.33301 2.16699 -4.16602 4.5 -8.49902s5.5 -9.5 9.5 -15.5l17 -29.5c6 -10.333 9 -16.833 9 -19.5l-1 -4l1 1l-33 -67l-3.5 -10.5l-5 -15.5c-1.66699 -5.33301 -3.16699 -10.5 -4.5 -15.5l-3 -11.5c-12 -46 -20 -91.167 -24 -135.5s-6 -90.5 -6 -138.5z" />
    <glyph glyph-name="F" unicode="F" horiz-adv-x="232" 
d="M56 39c-2 -2 -5.49805 -6.83105 -10.498 -14.498s-8.16699 -12.834 -9.5 -15.501c-0.666992 -0.666992 -1.16699 -2.16699 -1.5 -4.5s-0.5 -4.16602 -0.5 -5.49902h115c0 6 -1.16699 11 -3.5 15s-5 7.66699 -8 11s-5.66699 6.66602 -8 9.99902s-3.5 8 -3.5 14v560l40 30
c4 -8 10.667 -12 20 -12v147c-0.666992 0 -2.33398 -0.5 -5.00098 -1.5s-4.33398 -2.16699 -5.00098 -3.5c-0.666992 -0.666992 -1.5 -2.5 -2.5 -5.5s-2 -6.16699 -3 -9.5s-1.83301 -6.5 -2.5 -9.5s-1.33398 -4.83301 -2.00098 -5.5
c-1.33301 -2 -3.83301 -4.83301 -7.5 -8.5l-12 -12l-12 -12c-3.66699 -3.66699 -6.5 -6.16699 -8.5 -7.5v536c18.667 0 35.834 -3 51.501 -9s32.167 -9 49.5 -9c0 1.33301 -0.166992 3.33301 -0.5 6s-0.5 4.66699 -0.5 6l-5 17c-2 6.66699 -4.16699 13.167 -6.5 19.5
l-6 16.5l-2.5 7h-173c0 -6 3 -11.833 9 -17.5s10.667 -9.83398 14 -12.501v-1220z" />
    <glyph glyph-name="G" unicode="G" horiz-adv-x="362" 
d="M41 710l0.00195312 -49.0107v-62c0 -21.333 0.166992 -42.833 0.5 -64.5s0.5 -41.5 0.5 -59.5v-45v-20c0 -4 0.333008 -13.5 1 -28.5s1.5 -31.5 2.5 -49.5s2.16699 -35.667 3.5 -53l3 -39c2 -20.667 4.5 -44.834 7.5 -72.501s9 -54 18 -79s21.833 -46.167 38.5 -63.5
s39 -26 67 -26c12.667 0 22.667 1.16699 30 3.5s17 8.16602 29 17.499c0 -1.33301 1.33301 -3.33301 4 -6s4.66699 -4 6 -4c2 0 6 -0.333008 12 -1s12.333 -1.16699 19 -1.5s13 -0.666016 19 -0.999023s10 -0.5 12 -0.5c0 8 -0.666992 15.667 -2 23
s-4.66602 14.333 -9.99902 21v540l30 20v72c-5.33301 0 -10.5 -1.33301 -15.5 -4l-14.5 -8c-6 -4 -14.667 -9.5 -26 -16.5l-34.5 -22l-32 -20.5c-9.66699 -6 -15.5 -9.66699 -17.5 -11c-8 -5.33301 -13.833 -10.666 -17.5 -15.999s-6.16699 -11.166 -7.5 -17.499
s-2 -13.5 -2 -21.5v-27c0.666992 0 3.5 0.166992 8.5 0.5s7.83301 0.833008 8.5 1.5l40 20c0.666992 0.666992 1.66699 0.5 3 -0.5s2.66602 -1.5 3.99902 -1.5c0 -7.33301 0.166992 -18.166 0.5 -32.499s0.5 -30.833 0.5 -49.5c0 -18 0.166992 -37 0.5 -57l1 -57.5
c0.333008 -18.333 0.5 -34.833 0.5 -49.5v-32c0 -6 -0.5 -16 -1.5 -30s-2 -29 -3 -45s-2 -31.167 -3 -45.5s-1.83301 -24.166 -2.5 -29.499c-0.666992 -4 -1.83398 -9.5 -3.50098 -16.5s-4.16699 -13.667 -7.5 -20s-7.5 -11.833 -12.5 -16.5s-10.5 -7 -16.5 -7
c-10.667 0 -19.5 5.5 -26.5 16.5s-12.833 23.833 -17.5 38.5s-8.33398 29.167 -11.001 43.5s-4.33398 24.833 -5.00098 31.5c-0.666992 5.33301 -1.66699 12.666 -3 21.999s-2.5 18.833 -3.5 28.5s-1.83301 18.334 -2.5 26.001s-1 12.167 -1 13.5v730
c0 2 0.333008 8.16699 1 18.5s1.5 21.833 2.5 34.5s2.16699 25.334 3.5 38.001l3 29c0.666992 8 2 19.833 4 35.5s5 31.334 9 47.001s9.66699 29.334 17 41.001s17 17.5 29 17.5c9.33301 0 17.5 -2.16699 24.5 -6.5s13 -10 18 -17s9 -14.667 12 -23s5.16699 -16.5 6.5 -24.5
c-2 -6 -4.5 -16.667 -7.5 -32l-9.5 -48.5c-3.33301 -17 -6.16602 -33 -8.49902 -48s-3.83301 -25.5 -4.5 -31.5v-9c0 -4.66699 -0.166992 -10.5 -0.5 -17.5s-0.5 -14.167 -0.5 -21.5v-16c0 -26.667 0.333008 -51.334 1 -74.001s4 -46.667 10 -72
c1.33301 0 4.66602 -0.166992 9.99902 -0.5s8.66602 -0.5 9.99902 -0.5c7.33301 0 14.333 0.333008 21 1s13 4 19 10c-0.666992 8.66699 -1.16699 23.834 -1.5 45.501s-0.5 44.834 -0.5 69.501s0.166992 47.834 0.5 69.501s0.833008 36.834 1.5 45.501
c0 2.66699 1 9.33398 3 20.001l6.5 35l6.5 35c2 10.667 3.33301 17.334 4 20.001c0 0.666992 0.166992 3 0.5 7s0.5 6.66699 0.5 8c0 17.333 -3.33301 33.666 -10 48.999s-15.667 28.833 -27 40.5s-24.5 20.834 -39.5 27.501s-30.833 10 -47.5 10
c-21.333 0 -39.166 -5.5 -53.499 -16.5s-26.5 -25.333 -36.5 -43s-17.833 -37.5 -23.5 -59.5s-10.167 -44.167 -13.5 -66.5s-5.66602 -43.833 -6.99902 -64.5s-2.33301 -38 -3 -52v-60c0 -28 -0.166992 -58 -0.5 -90s-0.5 -62.333 -0.5 -91v-59z" />
    <glyph glyph-name="H" unicode="H" horiz-adv-x="346" 
d="M53 33c-6 -2 -9.66211 -6.33301 -10.9951 -13s-2 -12.334 -2 -17.001h106c0 4.66699 -0.666992 10.334 -2 17.001s-5 11 -11 13v570c0 0.666992 1.33301 2.16699 4 4.5s4.66699 4.16602 6 5.49902c2.66699 2 7.83398 5.33301 15.501 10l24.5 15l24 15l16 10v-620
c-4.66699 -5.33301 -7.83398 -11.5 -9.50098 -18.5s-2.5 -14.167 -2.5 -21.5h94c0 7.33301 -0.833008 14.5 -2.5 21.5s-4.83398 13.167 -9.50098 18.5v1220c1.33301 1.33301 3.16602 4.66602 5.49902 9.99902s3.83301 8.66602 4.5 9.99902
c0 0.666992 0.333008 2.33398 1 5.00098s1 4.33398 1 5.00098h-94c0 -0.666992 0.333008 -2.33398 1 -5.00098s1 -4.33398 1 -5.00098c0.666992 -1.33301 2.16699 -4.66602 4.5 -9.99902s4.16602 -8.66602 5.49902 -9.99902v-510c0 -0.666992 -1.33301 -2.16699 -4 -4.5
s-4.66699 -4.16602 -6 -5.49902l-16 -10l-24 -15l-24.5 -15c-7.66699 -4.66699 -12.834 -8 -15.501 -10v580c8 4 12 10.667 12 20h-104c0 -0.666992 0.166992 -2.33398 0.5 -5.00098s0.833008 -4.33398 1.5 -5.00098c0.666992 -1.33301 2.16699 -4.66602 4.5 -9.99902
s4.16602 -8.66602 5.49902 -9.99902v-1230z" />
    <glyph glyph-name="I" unicode="I" horiz-adv-x="168" 
d="M42 30c-6 -2 -9.66699 -6.3291 -11 -12.9961s-2 -12.334 -2 -17.001h105c0 1.33301 -0.166992 3.16602 -0.5 5.49902s-0.833008 3.83301 -1.5 4.5c-0.666992 1.33301 -2.16699 4.66602 -4.5 9.99902s-4.16602 8.66602 -5.49902 9.99902v1240c8 4 12 10.667 12 20h-104
c0 -0.666992 0.166992 -2.33398 0.5 -5.00098s0.833008 -4.33398 1.5 -5.00098c0.666992 -1.33301 2.16699 -4.66602 4.5 -9.99902s4.16602 -8.66602 5.49902 -9.99902v-1230z" />
    <glyph glyph-name="J" unicode="J" horiz-adv-x="311" 
d="M28 394c0 -13.333 -0.334961 -32.333 -1.00195 -57s-0.5 -51.5 0.5 -80.5s3.5 -58.667 7.5 -89s10.5 -57.666 19.5 -81.999s21 -44.333 36 -60s34.167 -23.5 57.5 -23.5c14 0 27.333 3.83301 40 11.5s24 17.5 34 29.5s17.833 25.167 23.5 39.5s8.5 28.166 8.5 41.499
l1 1133c4 3.33301 8.16699 8.16602 12.5 14.499s6.5 12.5 6.5 18.5h-115c0 -0.666992 0.166992 -2.5 0.5 -5.5s1.16602 -4.83301 2.49902 -5.5c0.666992 -0.666992 2.33398 -2.5 5.00098 -5.5s4.66699 -4.83301 6 -5.5c1.33301 -2 3.5 -5.83301 6.5 -11.5
s4.5 -9.16699 4.5 -10.5l-1 -1045v-27c0 -12.667 -0.833008 -26.5 -2.5 -41.5s-4.83398 -29.5 -9.50098 -43.5s-11.667 -24.333 -21 -31c-13.333 6.66699 -21.666 16.167 -24.999 28.5s-6 24.833 -8 37.5c-6.66699 34.667 -11.167 67.5 -13.5 98.5
s-3.66602 62.167 -3.99902 93.5s-0.166016 63.833 0.500977 97.5s1 70.5 1 110.5c-5.33301 0 -11.666 -1.16699 -18.999 -3.5s-14.833 -5 -22.5 -8s-14.334 -6 -20.001 -9l-10.5 -5.5v-21c0 -9.33301 -0.166992 -19.666 -0.5 -30.999s-0.5 -22 -0.5 -32v-20z" />
    <glyph glyph-name="K" unicode="K" horiz-adv-x="354" 
d="M52 33c-6 -2 -9.66602 -6.3291 -10.999 -12.9961s-2 -12.334 -2 -17.001h105c0 1.33301 -0.166992 3.16602 -0.5 5.49902s-0.833008 3.83301 -1.5 4.5c-0.666992 1.33301 -2.16699 4.66602 -4.5 9.99902s-4.16602 8.66602 -5.49902 9.99902v560l100 -550
c-4.66699 -5.33301 -7.83398 -11.5 -9.50098 -18.5s-2.5 -14.167 -2.5 -21.5h104c0 1.33301 -0.166992 3.16602 -0.5 5.49902s-0.833008 3.83301 -1.5 4.5c-1.33301 3.33301 -4.5 10 -9.5 20s-8.5 16.667 -10.5 20l-125 646l105 494c1.33301 8 3.83301 16.667 7.5 26
s11.167 14 22.5 14c0 2 0.166992 6.83301 0.5 14.5s0.5 12.834 0.5 15.501c0 13.333 -0.666992 23.5 -2 30.5s-9.33301 10.5 -24 10.5c-20 0 -34.833 -7.33301 -44.5 -22s-16.5 -31 -20.5 -49l-90 -430v470c8 4 12 10.667 12 20h-104
c0 -0.666992 0.166992 -2.33398 0.5 -5.00098s0.833008 -4.33398 1.5 -5.00098c0.666992 -1.33301 2.16699 -4.66602 4.5 -9.99902s4.16602 -8.66602 5.49902 -9.99902v-1230z" />
    <glyph glyph-name="L" unicode="L" horiz-adv-x="229" 
d="M33 19c-1.33301 -1.33301 -2 -4.33105 -2 -8.99805v-9h172l11 11l2.5 11c1.66699 7.33301 3.5 15.833 5.5 25.5l6.5 30c2.33301 10.333 4.16602 18.833 5.49902 25.5v6c0 1.33301 0.166992 3.16602 0.5 5.49902s0.5 3.83301 0.5 4.5h-18
c-5.33301 -7.33301 -11.333 -14.833 -18 -22.5s-13.667 -14.667 -21 -21s-15.166 -11.666 -23.499 -15.999s-16.833 -6.83301 -25.5 -7.5v1193c1.33301 3.33301 3 8.5 5 15.5s3.33301 11.5 4 13.5v6c0 1.33301 0.166992 3.16602 0.5 5.49902s0.5 3.83301 0.5 4.5h-108
c0 -8.66699 2.5 -16.334 7.5 -23.001s9.5 -11.667 13.5 -15v-1204c-2 -3.33301 -5.16699 -8.33301 -9.5 -15s-7.5 -11.667 -9.5 -15z" />
    <glyph glyph-name="M" unicode="M" horiz-adv-x="443" 
d="M55 81c-0.666992 -5.33301 -2.16797 -11.498 -4.50098 -18.498s-4.83301 -14 -7.5 -21s-5 -14 -7 -21s-3 -13.5 -3 -19.5h104c0 5.33301 -1.16699 10.166 -3.5 14.499s-4.83301 8.66602 -7.5 12.999s-5.16699 8.66602 -7.5 12.999s-3.5 9.5 -3.5 15.5v24
c0.666992 19.333 1.5 49.166 2.5 89.499l3.5 136.5l4 159.5l4 159.5l3.5 136c1 40 1.83301 69.667 2.5 89l80 -850c0.666992 0 1.5 -0.166992 2.5 -0.5s1.83301 -0.5 2.5 -0.5s1.66699 0.166992 3 0.5l2 0.5c1.33301 1.33301 3.33301 4.66602 6 9.99902s4 8.66602 4 9.99902
l80 860c0 -12 0.333008 -30.5 1 -55.5s1.33398 -53.333 2.00098 -85l2 -99.5l2 -99.5c0.666992 -31.667 1.33398 -60 2.00098 -85s1 -43.5 1 -55.5v-185v-185c-1.33301 -1.33301 -3.16602 -4.66602 -5.49902 -9.99902s-3.83301 -8.66602 -4.5 -9.99902
c0 -0.666992 -0.333008 -2.16699 -1 -4.5s-1 -4.16602 -1 -5.49902h95c0 4.66699 -0.666992 10.334 -2 17.001s-5 11 -11 13l-30 1220c1.33301 2 3.16602 6.83301 5.49902 14.5s3.83301 12.834 4.5 15.501c0 0.666992 0.166992 2.33398 0.5 5.00098s0.5 4.33398 0.5 5.00098
h-71l-80 -820l-83 820h-80c0 -8.66699 4.33301 -15.334 13 -20.001v-37c0 -17.333 0.166992 -35.833 0.5 -55.5s0.5 -38.5 0.5 -56.5v-36v-47c0 -19.333 -0.166992 -38.833 -0.5 -58.5s-0.5 -37.167 -0.5 -52.5v-27c-0.666992 -20.667 -1.33398 -52.334 -2.00098 -95.001
s-1.66699 -91 -3 -145l-4 -170c-1.33301 -59.333 -2.83301 -116 -4.5 -170s-3 -102.333 -4 -145s-1.83301 -74.334 -2.5 -95.001z" />
    <glyph glyph-name="N" unicode="N" horiz-adv-x="349" 
d="M52 31c-6 -2 -9.66602 -6.33203 -10.999 -12.999s-2 -12.334 -2 -17.001h95c0 7.33301 -0.833008 14.5 -2.5 21.5s-4.83398 13.167 -9.50098 18.5v800l120 -840h73c0 6 -1.16699 11 -3.5 15s-5 7.66699 -8 11s-5.66699 6.66602 -8 9.99902s-3.5 8 -3.5 14v1200
c0 1.33301 1.33301 4.5 4 9.5s4.66699 8.5 6 10.5l10 10c0.666992 0.666992 1.16699 2.33398 1.5 5.00098s0.5 4.33398 0.5 5.00098h-104c0 -9.33301 4 -16 12 -20v-730l-110 740c0 1.33301 -1.33301 3.33301 -4 6s-4.66699 4 -6 4c-2 0 -6 0.333008 -12 1
s-12.333 1.16699 -19 1.5s-13 0.666016 -19 0.999023s-10 0.5 -12 0.5c0 -7.33301 1 -13.333 3 -18s5 -10 9 -16v-1230zM232.001 461.001c3.33301 -1.33301 5 -4.66602 5 -9.99902s-1.66699 -8.66602 -5 -9.99902c-1.33301 -0.666992 -2.5 0.166016 -3.5 2.49902
s-1.5 4.83301 -1.5 7.5s0.5 5.16699 1.5 7.5s2.16699 3.16602 3.5 2.49902z" />
    <glyph glyph-name="O" unicode="O" horiz-adv-x="304" 
d="M160 1310c-30 0 -53.167 -9.00098 -69.5 -27.001s-28.166 -39.833 -35.499 -65.5s-11.5 -53 -12.5 -82s-1.5 -54.5 -1.5 -76.5v-780c0 -4 0.333008 -12 1 -24s1.5 -25 2.5 -39s2.16699 -27.333 3.5 -40s2.33301 -21.667 3 -27c2 -14 4.66699 -29.833 8 -47.5
s8.66602 -34.167 15.999 -49.5s17 -28.166 29 -38.499s27.667 -15.5 47 -15.5c24.667 0 44.167 7.5 58.5 22.5s25.333 33.5 33 55.5s12.667 45.167 15 69.5s3.5 45.5 3.5 63.5v900c0 16 -1.16699 35.5 -3.5 58.5s-7 45 -14 66s-17.167 39 -30.5 54s-31 22.5 -53 22.5z
M156 1260c3.33301 0 6.5 -2.50391 9.5 -7.50391s5.5 -10.5 7.5 -16.5l5.5 -17c1.66699 -5.33301 2.5 -8.66602 2.5 -9.99902c0.666992 -4 1.66699 -9.5 3 -16.5s2.5 -14.333 3.5 -22s1.83301 -14.5 2.5 -20.5s1 -9.66699 1 -11v-990c0 -1.33301 -0.333008 -4.5 -1 -9.5
s-1.5 -10.667 -2.5 -17s-2.16699 -12.666 -3.5 -18.999l-3 -14.5c-0.666992 -2 -1.5 -5.5 -2.5 -10.5s-2.66699 -10 -5 -15s-5.33301 -9 -9 -12s-8.16699 -3.83301 -13.5 -2.5c-4.66699 0.666992 -8.66699 3.16699 -12 7.5s-6.33301 9 -9 14s-4.66699 10.167 -6 15.5
s-2.33301 9.66602 -3 12.999l-3 24.5c-1.33301 11 -2.5 22.333 -3.5 34s-1.83301 22.334 -2.5 32.001s-1 16.167 -1 19.5v870c0 2.66699 0.333008 8.83398 1 18.501s1.5 20.334 2.5 32.001s2.16699 23.167 3.5 34.5l3 25c0.666992 2.66699 1.66699 8 3 16s3.33301 16 6 24
s6.16699 15.167 10.5 21.5s9.5 9.5 15.5 9.5z" />
    <glyph glyph-name="P" unicode="P" horiz-adv-x="294" 
d="M50 34c-6 -2 -9.66699 -6.33203 -11 -12.999s-2 -12.334 -2 -17.001h118c0 18 -8.33301 31.333 -25 40v1194c14.667 0 26.834 -4 36.501 -12s17.334 -18 23.001 -30s10 -25.333 13 -40s5.5 -28.667 7.5 -42v-28c0 -13.333 0.166992 -27.333 0.5 -42s0.5 -28.667 0.5 -42
v-28v-37c0 -15.333 -0.166992 -30.333 -0.5 -45s-0.5 -27.667 -0.5 -39v-19c0 -2 -0.333008 -6.5 -1 -13.5s-1.5 -14.667 -2.5 -23s-2.16699 -16.666 -3.5 -24.999l-3 -18.5c0 -2 -0.333008 -5.83301 -1 -11.5s-2 -11.334 -4 -17.001s-4.5 -10.834 -7.5 -15.501
s-7.16699 -7 -12.5 -7c-0.666992 0 -1.66699 0.166992 -3 0.5l-2 0.5l-20 20c-0.666992 0.666992 -2.33398 1.33398 -5.00098 2.00098s-4.33398 1 -5.00098 1v-181c7.33301 0 12.5 1.16699 15.5 3.5s5 5.16602 6 8.49902s1.83301 7.33301 2.5 12s2.66699 9.33398 6 14.001
l45 70.5c12.667 20.333 23 39.333 31 57s14.333 35 19 52s8.16699 35.5 10.5 55.5s3.83301 42.5 4.5 67.5s1 54.167 1 87.5v31c0 13.333 -0.166992 26.5 -0.5 39.5s-0.5 24.167 -0.5 33.5v16c0 5.33301 -1 14 -3 26s-4.83301 25.5 -8.5 40.5s-8 30.333 -13 46
s-10.833 30 -17.5 43s-14 23.667 -22 32s-16.667 12.5 -26 12.5h-152c0 -9.33301 4 -16 12 -20v-1240z" />
    <glyph glyph-name="Q" unicode="Q" horiz-adv-x="344" 
d="M39 678c0 -44 0.167969 -85.999 0.500977 -125.999s0.833008 -80 1.5 -120s1.66699 -80.833 3 -122.5s3 -85.834 5 -132.501c0.666992 -16.667 2.5 -35.5 5.5 -56.5s8.33301 -40.667 16 -59s18.167 -33.833 31.5 -46.5s30.666 -19 51.999 -19c17.333 0 31 4.33301 41 13
s18.167 18 24.5 28s11.833 19.333 16.5 28s10.667 13 18 13c0.666992 0 1.66699 -0.166992 3 -0.5l2 -0.5c4.66699 -2.66699 9 -8.33398 13 -17.001s7.83301 -17.834 11.5 -27.501s7.16699 -18.334 10.5 -26.001s6.66602 -11.5 9.99902 -11.5
c4.66699 0 8.16699 3.16699 10.5 9.5s4 13.5 5 21.5s1.33301 15.5 1 22.5s-0.5 11.5 -0.5 13.5c0 16 -3.16699 29.167 -9.5 39.5s-13.333 19 -21 26s-14.667 12.667 -21 17s-9.5 8.5 -9.5 12.5v960c0 16 -1.16699 35 -3.5 57s-7.16602 43 -14.499 63
s-17.5 36.833 -30.5 50.5s-30.5 20.5 -52.5 20.5s-40 -4.66699 -54 -14s-24.833 -21.666 -32.5 -36.999s-13.167 -32.666 -16.5 -51.999s-5.33301 -38.666 -6 -57.999c-2 -46 -3.66699 -88.5 -5 -127.5s-2.33301 -76.833 -3 -113.5s-1.16699 -73.5 -1.5 -110.5
s-0.5 -76.167 -0.5 -117.5zM129.001 67.001c5.33301 8.66699 12.998 14.499 22.998 17.499s19.667 4.5 29 4.5c0 -3.33301 -0.666992 -7.5 -2 -12.5s-3.16602 -9.66699 -5.49902 -14s-5.16602 -8.16602 -8.49902 -11.499s-7 -5 -11 -5c-0.666992 0 -1.66699 0.166992 -3 0.5
l-2 0.5c-2 1.33301 -5.5 4.5 -10.5 9.5s-8.16699 8.5 -9.5 10.5zM107.999 598l0.00195312 49.9961v63c0 22 0.166992 44.167 0.5 66.5s0.5 42.833 0.5 61.5v46v22c0.666992 50.667 1 102.334 1 155.001s6.33301 104.334 19 155.001c0.666992 2 1.5 5.33301 2.5 10
s2.33301 9.33398 4 14.001s4 8.66699 7 12s6.83301 5 11.5 5c4 0 7.5 -1.66699 10.5 -5s5.5 -7.33301 7.5 -12s3.5 -9.33398 4.5 -14.001s1.83301 -8 2.5 -10c0.666992 -4 1.66699 -9.5 3 -16.5s2.5 -14.333 3.5 -22s1.83301 -14.5 2.5 -20.5s1 -9.66699 1 -11v-990l-7 -4
c-4.66699 -2.66699 -10.167 -5.5 -16.5 -8.5l-19.5 -9.5c-6.66699 -3.33301 -12.334 -6 -17.001 -8h-5h-5c-4 36.667 -6.66699 75.334 -8 116.001s-2.33301 81.5 -3 122.5s-0.833984 81.333 -0.500977 121s0.5 76.834 0.5 111.501z" />
    <glyph glyph-name="R" unicode="R" 
d="M49 28c-6 -2 -9.66699 -6.33203 -11 -12.999s-2 -12.334 -2 -17.001h106c0 4.66699 -0.666992 10.334 -2 17.001s-5 11 -11 13v1204c16.667 0 30.167 -5.33301 40.5 -16s18.5 -24.5 24.5 -41.5s10.167 -36 12.5 -57s3.83301 -41.667 4.5 -62s0.666992 -39.666 0 -57.999
s-1 -32.833 -1 -43.5v-36c0 -16 -0.166992 -34 -0.5 -54s-1 -40.333 -2 -61s-2.83301 -39.667 -5.5 -57s-6.33398 -31.5 -11.001 -42.5s-10.334 -16.5 -17.001 -16.5c-5.33301 0 -9.16602 1.83301 -11.499 5.5s-4.33301 7.66699 -6 12s-3.66699 8.33301 -6 12
s-6.16602 5.5 -11.499 5.5v-204h10c0 1.33301 0.333008 4.5 1 9.5s1.83398 10.167 3.50098 15.5s3.66699 10.5 6 15.5s5.5 8.16699 9.5 9.5l51 -570h83c0 6.66699 -1.16699 12.167 -3.5 16.5s-4.83301 8.5 -7.5 12.5s-5.33398 8.33301 -8.00098 13
s-4.33398 10.667 -5.00098 18l-50 550v17c0 9.33301 1.83301 20.333 5.5 33s8 25.667 13 39s9.5 26.166 13.5 38.499s6.66699 23.166 8 32.499c4 32 6.66699 64.5 8 97.5s2 65.833 2 98.5c0 6 -0.166992 18.167 -0.5 36.5s-1.5 39.5 -3.5 63.5s-5.16699 49.167 -9.5 75.5
s-10.166 50.5 -17.499 72.5s-16.666 40.167 -27.999 54.5s-25 21.5 -41 21.5h-142c0 -0.666992 0.166992 -2.33398 0.5 -5.00098s0.833008 -4.33398 1.5 -5.00098c0.666992 -1.33301 2.16699 -4.66602 4.5 -9.99902s4.16602 -8.66602 5.49902 -9.99902v-1230z" />
    <glyph glyph-name="S" unicode="S" horiz-adv-x="313" 
d="M114 517c-20 0 -36.6689 -5.16895 -50.002 -15.502s-20 -26.166 -20 -47.499v-280c0 -14.667 2.16699 -31.834 6.5 -51.501s11 -38.334 20 -56.001s20.333 -32.667 34 -45s30.167 -18.5 49.5 -18.5c32 0 56.333 10.333 73 31s28.5 45.5 35.5 74.5
s10.833 59.167 11.5 90.5s1 57.666 1 78.999c0 47.333 -1.33301 95.5 -4 144.5s-11.667 96.167 -27 141.5c-15.333 46.667 -31.333 91.334 -48 134.001s-31.834 85 -45.501 127s-25 84.667 -34 128s-13.5 88.666 -13.5 135.999v17c0 8 0.166992 16.5 0.5 25.5
s0.5 17.5 0.5 25.5v17c0.666992 7.33301 2.5 16.166 5.5 26.499s7 20.333 12 30s11.333 17.834 19 24.501s16.834 10 27.501 10c4.66699 0 9.83398 -0.166992 15.501 -0.5s9.16699 -3.83301 10.5 -10.5c-8.66699 -36 -14.334 -71.5 -17.001 -106.5s-4 -71.167 -4 -108.5v-19
c0 -8.66699 0.166992 -18.167 0.5 -28.5s0.5 -20.166 0.5 -29.499v-18c-2 -11.333 0 -17.666 6 -18.999s12 -2 18 -2c7.33301 0 13.666 0.5 18.999 1.5s11 4.16699 17 9.5c-1.33301 33.333 -1.66602 64 -0.999023 92s2.16699 55.167 4.5 81.5s5.83301 52.833 10.5 79.5
s10 55.667 16 87v6c0 9.33301 -3.83301 16.333 -11.5 21s-16.5 8 -26.5 10s-20 3.16699 -30 3.5s-17.333 0.5 -22 0.5c-30 0 -54.167 -7.5 -72.5 -22.5s-32.5 -34 -42.5 -57s-16.833 -48 -20.5 -75s-5.5 -52.5 -5.5 -76.5c0 -28.667 1.83301 -57.167 5.5 -85.5
s8.83398 -56.5 15.501 -84.5l15.5 -44l23 -67.5l27 -78.5l27 -78.5l22.5 -67.5l15 -44c2 -5.33301 4.16699 -12.666 6.5 -21.999s4.5 -19.166 6.5 -29.499s3.66699 -20 5 -29s2 -15.5 2 -19.5v-300c0 -4 -1 -10.5 -3 -19.5s-5 -18 -9 -27s-8.83301 -17 -14.5 -24
s-11.834 -10.5 -18.501 -10.5c-5.33301 0 -10.666 2.83301 -15.999 8.5s-10.166 12.5 -14.499 20.5s-7.83301 16 -10.5 24s-4 14 -4 18v393z" />
    <glyph glyph-name="T" unicode="T" horiz-adv-x="258" 
d="M82 14c-1.33301 -2 -1.99902 -5.00195 -1.99902 -9.00195v-8h109v5c0 2 -0.333008 4 -1 6c0 1.33301 -0.666992 3.33301 -2 6h1l-4 8l-5 10v1195h11l48 -49h18v10v6c-1.33301 4.66699 -3 11.167 -5 19.5l-6 25.5l-5.5 23c-1.66699 6.66699 -2.83398 10.667 -3.50098 12
c-0.666992 2 -2.83398 4.66699 -6.50098 8s-6.16699 5 -7.5 5h-183c-0.666992 0 -2 -3.16699 -4 -9.5l-7 -23c-2.66699 -9 -5.16699 -18.167 -7.5 -27.5s-4.16602 -17 -5.49902 -23v1c-0.666992 -1.33301 -1.16699 -5.66602 -1.5 -12.999s-0.5 -12 -0.5 -14h20l48 49h11
v-1194l-5 -10.5c-2 -4.33301 -3.33301 -7.16602 -4 -8.49902z" />
    <glyph glyph-name="U" unicode="U" 
d="M49 1269l0.00195312 -1130c0 -17.333 2.66699 -34.333 8 -51s13 -31.667 23 -45s22.333 -24.166 37 -32.499s31 -12.5 49 -12.5c17.333 0 33 3.5 47 10.5s25.833 16.5 35.5 28.5s17.167 26 22.5 42s8 32.667 8 50v1140c3.33301 3.33301 7 7.83301 11 13.5
s6 11.167 6 16.5h-104c0 -9.33301 4 -16 12 -20v-1170c0 -4 -1 -9.5 -3 -16.5s-4.83301 -13.667 -8.5 -20s-7.83398 -11.833 -12.501 -16.5s-10 -7 -16 -7s-11.333 2.33301 -16 7s-8.83398 10.167 -12.501 16.5s-6.5 13 -8.5 20s-3 12.5 -3 16.5v1170c8 4 12 10.667 12 20
h-104c0 -5.33301 2 -10.833 6 -16.5s7.66699 -10.167 11 -13.5z" />
    <glyph glyph-name="V" unicode="V" horiz-adv-x="333" 
d="M128 52c0 -6 -1.33203 -11.0029 -3.99902 -15.0029s-5.5 -7.66699 -8.5 -11s-5.83301 -7 -8.5 -11s-4 -9.33301 -4 -16h107c0 9.33301 -2 17 -6 23s-6 13 -6 21v6l80 1120c0.666992 8.66699 1.16699 17.5 1.5 26.5s1.66602 16.833 3.99902 23.5
s6.16602 12.167 11.499 16.5s13 6.5 23 6.5v47c0 2.66699 -1.83301 4.83398 -5.5 6.50098s-8 2.83398 -13 3.50098s-9.83301 1 -14.5 1h-7c-16 0 -29.667 -4 -41 -12s-17.666 -21 -18.999 -39l-50 -690l-10 -10l-50 660c0 1.33301 -0.166992 5.33301 -0.5 12
s-0.5 11.667 -0.5 15c0 10.667 2.16699 19.834 6.5 27.501s6.5 16.167 6.5 25.5h-104c0 -4.66699 1.16699 -8.5 3.5 -11.5s4.83301 -5.83301 7.5 -8.5s5.16699 -5.5 7.5 -8.5s3.5 -6.83301 3.5 -11.5l90 -1180v-17z" />
    <glyph glyph-name="W" unicode="W" horiz-adv-x="522" 
d="M136 41c-2 -2 -5.50195 -6.83105 -10.502 -14.498s-8.16699 -12.834 -9.5 -15.501c-0.666992 -0.666992 -1.16699 -2.16699 -1.5 -4.5s-0.5 -4.16602 -0.5 -5.49902h105c0 6.66699 -0.666992 12 -2 16s-3 7.83301 -5 11.5s-3.66699 7.66699 -5 12s-2 10.166 -2 17.499
c0 3.33301 0.166992 9.33301 0.5 18s0.5 13.667 0.5 15l50 790l50 -720v-130c-1.33301 -1.33301 -3.16602 -4.66602 -5.49902 -9.99902s-3.83301 -8.66602 -4.5 -9.99902c0 -0.666992 -0.333008 -2.16699 -1 -4.5s-1 -4.16602 -1 -5.49902h105c0 6.66699 -0.666992 12 -2 16
s-3 7.83301 -5 11.5s-3.66699 7.66699 -5 12s-2 10.5 -2 18.5c0 3.33301 0.166992 9.16602 0.5 17.499s0.5 13.166 0.5 14.499l80 1140c0 5.33301 1.66699 9 5 11s7 3.83301 11 5.5s7.66699 4 11 7s5 8.5 5 16.5c0 14.667 -4 23.5 -12 26.5s-18.667 4.5 -32 4.5
c-10.667 0 -21 -3.83301 -31 -11.5s-15.667 -17.5 -17 -29.5l-50 -760l-10 -50l-50 800v6v4l10 20c0 0.666992 0.333008 2.33398 1 5.00098s1 4.33398 1 5.00098h-87c0 -6.66699 -0.166992 -18.5 -0.5 -35.5s-0.833008 -35.167 -1.5 -54.5s-1.16699 -37.5 -1.5 -54.5
s-0.833008 -28.833 -1.5 -35.5c-1.33301 -17.333 -3.16602 -44 -5.49902 -80l-8 -122c-3 -45.333 -6.33301 -93 -10 -143l-10.5 -143c-3.33301 -45.333 -6.5 -86 -9.5 -122s-5.16699 -62.667 -6.5 -80l-50 780c0 1.33301 -0.166992 6.16602 -0.5 14.499
s-0.5 14.166 -0.5 17.499c0 12 2.16699 22 6.5 30s6.5 17.333 6.5 28h-104c0 -4.66699 1.16699 -8.33398 3.5 -11.001s4.83301 -5.33398 7.5 -8.00098s5.16699 -5.66699 7.5 -9s3.5 -7.33301 3.5 -12z" />
    <glyph glyph-name="X" unicode="X" horiz-adv-x="363" 
d="M43 40c-4.66699 -5.33301 -7.83301 -11.499 -9.5 -18.499s-2.5 -14.167 -2.5 -21.5h107c0 6 -1.33301 10.833 -4 14.5s-5.5 6.83398 -8.5 9.50098s-5.83301 5.5 -8.5 8.5s-4 6.83301 -4 11.5v6l60 430l60 -420c0 -0.666992 0.166992 -3 0.5 -7s0.5 -7 0.5 -9
c0 -5.33301 -0.666992 -9.5 -2 -12.5s-3 -5.83301 -5 -8.5s-3.66699 -5.66699 -5 -9s-2 -8 -2 -14h106c0 12.667 -3.33301 24.167 -10 34.5s-11 22.166 -13 35.499l-93 590l93 570c1.33301 6 5.83301 9.66699 13.5 11s13.167 2 16.5 2v47c0 2.66699 -2 4.83398 -6 6.50098
s-8.5 2.83398 -13.5 3.50098s-9.83301 1 -14.5 1h-7c-10.667 0 -19.334 -2.66699 -26.001 -8s-12.334 -12 -17.001 -20s-8.16699 -16.667 -10.5 -26s-4.16602 -18.333 -5.49902 -27l-6 -36l-9 -54.5l-10.5 -64l-10.5 -64.5c-3.33301 -20.667 -6.16602 -39 -8.49902 -55
s-4.16602 -28 -5.49902 -36l-10 -30l-50 320v70c8 4 12 10.667 12 20h-103c0 -0.666992 0.166992 -2.33398 0.5 -5.00098s0.5 -4.33398 0.5 -5.00098c0.666992 -2.66699 2.16699 -7.83398 4.5 -15.501s4.16602 -12.5 5.49902 -14.5l98 -589z" />
    <glyph glyph-name="Y" unicode="Y" horiz-adv-x="313" 
d="M116 31c-6 -2 -9.66797 -6.3291 -11.001 -12.9961s-2 -12.334 -2 -17.001h106c0 4.66699 -0.666992 10.334 -2 17.001s-5 11 -11 13c0 7.33301 -0.166992 18.666 -0.5 33.999s-0.666016 32.666 -0.999023 51.999s-0.666016 39.833 -0.999023 61.5
s-0.666016 42.167 -0.999023 61.5s-0.5 36.666 -0.5 51.999v34v46c0 19.333 0.166992 39.5 0.5 60.5l1 63.5c0.333008 21.333 0.666016 40.833 0.999023 58.5s0.666016 32.5 0.999023 44.5s0.5 19.333 0.5 22c0.666992 14.667 2.5 37.5 5.5 68.5s6.66699 65.833 11 104.5
l14 122.5c5 43 10 83.833 15 122.5l14 104c4.33301 30.667 7.83301 53.334 10.5 68.001c0 10.667 1.66699 18 5 22s6.83301 7.33301 10.5 10s7.16699 5.5 10.5 8.5s5 8.83301 5 17.5c0 16 -2.33301 25.5 -7 28.5s-14.667 4.5 -30 4.5c-14 0 -24.833 -3.16699 -32.5 -9.5
s-13.667 -14.5 -18 -24.5s-7.33301 -21 -9 -33s-3.16699 -23.333 -4.5 -34c-1.33301 -10 -3 -25.5 -5 -46.5l-7 -70.5l-8.5 -83l-8.5 -83l-7 -70.5c-2 -21 -3.33301 -36.5 -4 -46.5c-0.666992 2 -1.5 5.33301 -2.5 10s-2 9.66699 -3 15s-2 10.333 -3 15s-1.5 8 -1.5 10
l-4 36c-2 18 -4.16699 39.167 -6.5 63.5s-5 50.666 -8 78.999l-8.5 82.5l-7.5 74.5l-5.5 54.5v11c0 7.33301 2 13.833 6 19.5s6 12.167 6 19.5h-104c0 -4.66699 1 -8.83398 3 -12.501s4.33301 -7.33398 7 -11.001s5.16699 -7.66699 7.5 -12s3.83301 -9.16602 4.5 -14.499
l80 -680v-530z" />
    <glyph glyph-name="Z" unicode="Z" horiz-adv-x="302" 
d="M33 75v-74.9971h226c4.66699 0 8.66699 6.16699 12 18.5s6 26.166 8 41.499s3.5 29.833 4.5 43.5s1.5 22.167 1.5 25.5h-18c-16 -15.333 -29.667 -27.333 -41 -36s-22.333 -15.334 -33 -20.001s-22.5 -7.5 -35.5 -8.5s-28.833 -1.5 -47.5 -1.5v10l183 1217h-253v-9
c0 -4 0.666992 -7 2 -9c1.33301 -2.66699 3.5 -7.33398 6.5 -14.001s5.83301 -11.667 8.5 -15v-340h77v327h73z" />
    <glyph glyph-name="backslash" unicode="\" horiz-adv-x="391" 
d="M57 1241l232.999 -1244h64l-239 1266c-3.33301 15.333 -9.66602 24.5 -18.999 27.5s-22.333 4.5 -39 4.5v-54z" />
    <glyph glyph-name="underscore" unicode="_" horiz-adv-x="269" 
d="M-1 27v-50h270v50h-270z" />
    <glyph glyph-name="a" unicode="a" horiz-adv-x="322" 
d="M185 113c0 -3.33301 0.501953 -9.33398 1.50195 -18.001s2 -17.834 3 -27.501s2 -18.667 3 -27s1.83301 -14.166 2.5 -17.499c1.33301 -4.66699 4.33301 -11 9 -19s10 -12 16 -12c4.66699 0 10.834 2.16699 18.501 6.5s15 9.83301 22 16.5s13 13.334 18 20.001
s7.5 12.667 7.5 18c0 4 -1.83301 7.83301 -5.5 11.5l-13 13c-5 5 -9.66699 11.167 -14 18.5s-7.16602 16.333 -8.49902 27l-3 31c-1.33301 14 -2.5 28.5 -3.5 43.5s-1.83301 28.667 -2.5 41s-1 20.5 -1 24.5l1 722c-5.33301 0 -9.16602 -1 -11.499 -3
s-5.16602 -5 -8.49902 -9l-18 -23.5l-22.5 -28.5c-7.66699 -9.33301 -14.334 -17.833 -20.001 -25.5s-8.83398 -11.834 -9.50098 -12.501c-25.333 -39.333 -44.833 -79.333 -58.5 -120s-23.834 -82.167 -30.501 -124.5s-10.5 -85.166 -11.5 -128.499s-1.5 -87.333 -1.5 -132
v-41c0 -16.667 0.166992 -33.167 0.5 -49.5s0.5 -30.833 0.5 -43.5v-21c0 -1.33301 0.333008 -5.83301 1 -13.5s1.5 -16.334 2.5 -26.001s2.16699 -19.167 3.5 -28.5s2.33301 -16.666 3 -21.999c0.666992 -6 1.66699 -16.167 3 -30.5s3.66602 -29 6.99902 -44
s8.16602 -28.167 14.499 -39.5s15.166 -17 26.499 -17c9.33301 0 16.333 2.5 21 7.5s10.667 12.833 18 23.5c2 2.66699 4.83301 7.66699 8.5 15l12 24l12 24.5c3.66699 7.66699 6.16699 13.167 7.5 16.5zM95.002 383.999v19.001c0.666992 9.33301 2 25.5 4 48.5
s4 47.333 6 73s4 49.667 6 72s3.33301 37.833 4 46.5c4 41.333 9.83301 79.333 17.5 114s22.167 70 43.5 106l-1 -680c0 -2.66699 -0.666992 -9 -2 -19s-3.33301 -20.333 -6 -31s-6.16699 -20.167 -10.5 -28.5s-9.83301 -12.5 -16.5 -12.5c-3.33301 0 -6.5 2.5 -9.5 7.5
s-5.5 10.5 -7.5 16.5l-5.5 17c-1.66699 5.33301 -2.5 8.66602 -2.5 9.99902c-8.66699 40 -14.167 80.167 -16.5 120.5s-3.5 80.5 -3.5 120.5z" />
    <glyph glyph-name="b" unicode="b" horiz-adv-x="288" 
d="M210 158c-9.33301 -15.333 -19.667 -31 -31 -47s-23.666 -32.333 -36.999 -49c-37.333 -42 -65.666 -63 -84.999 -63c-0.666992 0 -2.33398 0.5 -5.00098 1.5s-5.33398 3.16699 -8.00098 6.5c-0.666992 143.333 -1.16699 279.5 -1.5 408.5
s-0.666016 247.167 -0.999023 354.5s-0.5 202 -0.5 284v200v6c0 22 14 33 42 33c12.667 0 21.167 -0.833008 25.5 -2.5s6.5 -4.16699 6.5 -7.5v-464c3.33301 6.66699 6.66602 15 9.99902 25s7 20.333 11 31l12 32c4 10.667 8.66699 20 14 28c24 40 44.667 60 62 60
c16 0 24 -3 24 -9l2 -749c0 -6 -13.333 -32.333 -40 -79zM182.999 755c0 17.333 -1.00195 34.6699 -3.00195 52.0029s-4.66699 35 -8 53c-18 -8.66699 -32 -36.334 -42 -83.001c-2 -8 -3.5 -17.667 -4.5 -29s-1.83301 -22.833 -2.5 -34.5l-2 -34.5
c-0.666992 -11.333 -1 -21.333 -1 -30c-1.33301 -40 -3 -94 -5 -162s-3.66699 -151 -5 -249v-52v-5c0 -2 -0.333008 -5 -1 -9c-0.666992 -6.66699 -0.666992 -12 0 -16c0 -14.667 4.33301 -25.334 13 -32.001c17.333 10 32.333 31.333 45 64c11.333 30 17 56.667 17 80
c0.666992 25.333 1.16699 57.166 1.5 95.499s0.5 83.5 0.5 135.5c0 6 -0.166992 14.833 -0.5 26.5s-0.666016 24.667 -0.999023 39s-0.666016 29.833 -0.999023 46.5s-0.5 33 -0.5 49v95z" />
    <glyph glyph-name="c" unicode="c" horiz-adv-x="316" 
d="M31 498l-0.00390625 -33.998c0 -14 0.166992 -28 0.5 -42s0.5 -26.333 0.5 -37v-18c0 -2.66699 0.333008 -8.83398 1 -18.501s1.5 -20.334 2.5 -32.001s2.16699 -23 3.5 -34s2.33301 -19.5 3 -25.5c1.33301 -10 3.33301 -23.167 6 -39.5s6.33398 -33.833 11.001 -52.5
s10.334 -37.5 17.001 -56.5s14.167 -36.167 22.5 -51.5s17.833 -27.833 28.5 -37.5s22.334 -14.5 35.001 -14.5c16.667 0 31.834 9 45.501 27s25.167 39 34.5 63s16.666 48.167 21.999 72.5s8 42.5 8 54.5v5l-10 80l-10 10c-10.667 -11.333 -17 -28 -19 -50
s-4.33301 -45.167 -7 -69.5s-8.16699 -47.666 -16.5 -69.999s-24.166 -39.166 -47.499 -50.499c-14.667 10.667 -26 25.167 -34 43.5s-13.833 38 -17.5 59s-6 41.833 -7 62.5s-1.5 39 -1.5 55v26c0 15.333 -0.166992 33 -0.5 53s-0.5 40.333 -0.5 61v50v50
c0 20.667 0.166992 41 0.5 61s0.5 37.667 0.5 53v26c0 12.667 0.666992 30.167 2 52.5s4 45.166 8 68.499s10 45 18 65s18.667 34.667 32 44c7.33301 -3.33301 14.166 -13.5 20.499 -30.5s11.666 -35.833 15.999 -56.5s7.83301 -40.334 10.5 -59.001s4 -31.334 4 -38.001
c0 -16 -1.66699 -31.667 -5 -47s-7 -30.833 -11 -46.5s-7.66699 -31.167 -11 -46.5s-5 -30.666 -5 -45.999h11c0.666992 0 2.83398 4.66699 6.50098 14s8 21.5 13 36.5l16.5 49c6 17.667 11.5 34.834 16.5 51.501s9.16699 31.5 12.5 44.5s5 22.5 5 28.5
c0 4.66699 -1.16699 14 -3.5 28s-5.66602 30.167 -9.99902 48.5s-9.5 37.333 -15.5 57s-12.833 37.834 -20.5 54.501s-15.834 30.5 -24.501 41.5s-17.667 16.5 -27 16.5h-4c-22 -15.333 -40.167 -35.333 -54.5 -60s-26.166 -52.167 -35.499 -82.5s-16.5 -62.333 -21.5 -96
s-8.5 -66.834 -10.5 -99.501s-3.16699 -63.834 -3.5 -93.501s-0.5 -55.5 -0.5 -77.5z" />
    <glyph glyph-name="d" unicode="d" horiz-adv-x="300" 
d="M82 165c9.33301 -15.333 19.668 -31.002 31.001 -47.002s23.666 -32.333 36.999 -49c36.667 -42 65 -63 85 -63c0.666992 0 2.33398 0.5 5.00098 1.5s5.33398 3.16699 8.00098 6.5c1.33301 149.333 2.5 288.833 3.5 418.5s1.66699 247.334 2 353.001
s0.666016 198.334 0.999023 278.001s0.5 144.5 0.5 194.5v6c0 22 -14 33 -42 33c-25.333 0 -38 -3 -38 -9l2 -462c-3.33301 6.66699 -6.83301 15 -10.5 25l-11.5 31.5c-4 11 -8.33301 21.833 -13 32.5s-9.33398 20 -14.001 28c-24 40 -44.667 60 -62 60c-16 0 -24 -3 -24 -9
v-750c0 -6 13.333 -32.333 40 -79zM107.002 735.998c0 17.333 1 34.6689 3 52.002s4.66699 35 8 53c18 -8.66699 32 -36.334 42 -83.001c6.66699 -33.333 10.667 -67.333 12 -102c1.33301 -40 3 -94 5 -162s3.66699 -151 5 -249v-52v-5c0 -2 0.333008 -5 1 -9
c0.666992 -6.66699 0.666992 -12 0 -16c0 -14.667 -4.33301 -25.334 -13 -32.001c-17.333 10 -32.333 31.333 -45 64c-11.333 30 -17 56.667 -17 80c-0.666992 25.333 -1.16699 57.166 -1.5 95.499s-0.5 83.5 -0.5 135.5v52c0 22.667 0.333008 50.334 1 83.001v95z" />
    <glyph glyph-name="e" unicode="e" horiz-adv-x="281" 
d="M89 570l0.00195312 -6.99414v-1c-0.666992 -2 -1.66699 -4.5 -3 -7.5s-2.66602 -6.83301 -3.99902 -11.5v1c-2.66699 -8.66699 -6.33398 -18.167 -11.001 -28.5l-14 -31.5c-4.66699 -10.667 -8.66699 -20.834 -12 -30.501s-5 -17.834 -5 -24.501v-337
c0 -12 3.66699 -23.5 11 -34.5s16.333 -20.833 27 -29.5s22 -15.5 34 -20.5s23 -7.5 33 -7.5c18 0 33 4.16699 45 12.5s21.667 19.166 29 32.499s12.666 28 15.999 44s5.33301 32 6 48c0 4 0.5 15.5 1.5 34.5s2 40.667 3 65l3 72c1 23.667 1.83301 42.167 2.5 55.5
c0 2 0.166992 5.83301 0.5 11.5s0.5 11.834 0.5 18.501v31c-5.33301 0 -11.5 -0.166992 -18.5 -0.5s-13.667 -1.5 -20 -3.5s-12.333 -5 -18 -9s-9.5 -9.33301 -11.5 -16c0 -6.66699 -0.166992 -17.167 -0.5 -31.5s-0.666016 -30.333 -0.999023 -48
s-0.833008 -36.334 -1.5 -56.001s-1.33398 -38.334 -2.00098 -56.001s-1.33398 -33.334 -2.00098 -47.001s-1.33398 -23.834 -2.00098 -30.501v-3c0 -4 -0.5 -9.5 -1.5 -16.5s-2.33301 -14 -4 -21s-4 -13 -7 -18s-6.83301 -7.5 -11.5 -7.5c-8 0 -14.667 3.33301 -20 10
s-9.66602 14.667 -12.999 24s-5.83301 18.833 -7.5 28.5s-2.5 17.5 -2.5 23.5v16v24c0 9.33301 -0.166992 18.833 -0.5 28.5s-0.5 18.834 -0.5 27.501v22v48c0 6.66699 -0.166992 13 -0.5 19s-0.5 11.667 -0.5 17c0 14 0.666992 27.833 2 41.5s4.66602 31.167 9.99902 52.5
c1.33301 6.66699 3.83301 14.334 7.5 23.001l10.5 26c5.33301 12 10.166 24.167 14.499 36.5s6.5 25.5 6.5 39.5c0 1.33301 -0.166992 3.16602 -0.5 5.49902s-0.5 4.16602 -0.5 5.49902v5c-0.666992 1.33301 -1.83398 4.16602 -3.50098 8.49902
s-3.83398 9.33301 -6.50098 15s-5.16699 11.5 -7.5 17.5s-4.5 11.333 -6.5 16l-2 5c-1.33301 3.33301 -2.66602 6 -3.99902 8h1c-4.66699 14 -7.66699 26.833 -9 38.5s-2 24.167 -2 37.5v23c0 4.66699 0.166992 9.66699 0.5 15s0.5 11 0.5 17c0 3.33301 -0.166992 7 -0.5 11
s-0.5 8 -0.5 12c0 5.33301 -0.166992 10.5 -0.5 15.5s-0.5 10.167 -0.5 15.5c0 11.333 0.5 22.833 1.5 34.5s3.16699 22.334 6.5 32.001s8.33301 17.667 15 24s15.667 10.166 27 11.499v-235h43c0.666992 0 2.33398 9.5 5.00098 28.5l9.5 68.5
c3.66699 26.667 7.16699 54.5 10.5 83.5s6 53.167 8 72.5v12c0 8.66699 -2.33301 15.334 -7 20.001s-10.167 8.16699 -16.5 10.5s-13.166 3.66602 -20.499 3.99902s-13.666 0.5 -18.999 0.5h-3c-12.667 0 -26.667 -2 -42 -6s-29.5 -10.167 -42.5 -18.5
s-24 -18.666 -33 -30.999s-13.5 -26.5 -13.5 -42.5v-259c0 -0.666992 1.16699 -2.16699 3.5 -4.5l8 -8l9 -9c3 -3 4.83301 -5.5 5.5 -7.5zM132.002 643.006v-2v2z" />
    <glyph glyph-name="f" unicode="f" horiz-adv-x="335" 
d="M117 221c0 -42 -2.99609 -83.8301 -8.99609 -125.497s-12.5 -83.334 -19.5 -125.001s-13.5 -83.334 -19.5 -125.001s-9 -83.5 -9 -125.5c10.667 0 21 7.83301 31 23.5s19.167 35.5 27.5 59.5s16 50.333 23 79s13.333 56.5 19 83.5l15 72.5
c4.33301 21.333 7.83301 36.333 10.5 45c1.33301 3.33301 3.16602 10 5.49902 20s3.83301 16.667 4.5 20v35c0 17.333 0.166992 35.666 0.5 54.999s0.5 37.333 0.5 54v36c0 48 -1.16699 96 -3.5 144s-4.83301 96 -7.5 144s-5.16699 95.833 -7.5 143.5s-3.5 95.5 -3.5 143.5
v28c0 14 0.166992 28.833 0.5 44.5s0.5 30.167 0.5 43.5v29c2 5.33301 4.83301 8.5 8.5 9.5s7.83398 1.5 12.501 1.5c5.33301 0 9.16602 -1.66699 11.499 -5s4.5 -7 6.5 -11s4.5 -7.66699 7.5 -11s7.5 -5 13.5 -5c17.333 0 30.166 6.5 38.499 19.5s12.5 27.167 12.5 42.5
c0 12.667 -4 21.5 -12 26.5s-17.5 8.16699 -28.5 9.5s-22 1.5 -33 0.5s-19.5 -1.5 -25.5 -1.5c0 4.66699 0.333008 11.667 1 21s2 18.666 4 27.999s5.16699 17.5 9.5 24.5s10.5 10.5 18.5 10.5c6.66699 0 12.5 -1.83301 17.5 -5.5s11.167 -5.5 18.5 -5.5
s13.666 2.33301 18.999 7s9.5 10.334 12.5 17.001s5.16699 13.834 6.5 21.501s2 14.5 2 20.5c0 30.667 -13.667 46 -41 46c-16.667 0 -31.5 -4.33301 -44.5 -13s-24.667 -20 -35 -34s-19.333 -29.5 -27 -46.5s-14.667 -34.167 -21 -51.5s-12 -33.5 -17 -48.5
s-10.167 -27.5 -15.5 -37.5l-9 -13.5c-4.66699 -7 -9.83398 -14.333 -15.501 -22l-16 -21.5c-5 -6.66699 -8.16699 -11 -9.5 -13c-9.33301 -13.333 -14 -26 -14 -38v-44c8 0 15.667 0.666992 23 2s14.333 4.66602 21 9.99902l14 -164
c4.66699 -57.333 9 -115.666 13 -174.999s7.33301 -118.833 10 -178.5s4 -117.834 4 -174.501z" />
    <glyph glyph-name="g" unicode="g" horiz-adv-x="303" 
d="M83 -251l0.00292969 -2.99609c0 -8 2.5 -16.5 7.5 -25.5s11 -17 18 -24s14.667 -12.833 23 -17.5s16.166 -7 23.499 -7c14.667 0 28 5.83301 40 17.5s22.5 25.667 31.5 42s16 33.333 21 51s7.5 32.834 7.5 45.501v1148c0 1.33301 -2.83301 3.66602 -8.5 6.99902
s-10.167 5.66602 -13.5 6.99902h-7c-21.333 0 -42.833 -7.16699 -64.5 -21.5s-41.167 -32.333 -58.5 -54s-31.333 -44.834 -42 -69.501s-16 -47.334 -16 -68.001v-671c0 -1.33301 0.833008 -4 2.5 -8l5.5 -13c2 -4.66699 4.16699 -9 6.5 -13s4.16602 -6.66699 5.49902 -8
c2 -3.33301 6.16699 -8.5 12.5 -15.5l20.5 -22l21 -21.5c6.66699 -6.66699 11.667 -11 15 -13h5c1.33301 0 2.5 -0.166992 3.5 -0.5s1.83301 -0.5 2.5 -0.5c9.33301 0 17.166 2.16699 23.499 6.5s12.833 9.83301 19.5 16.5v-222l-34 -36
c-7.33301 6.66699 -12.333 14.334 -15 23.001l-8 26c-3.33301 11.333 -7 22.166 -11 32.499s-12.667 20.166 -26 29.499zM114.003 784.004c1.33301 5.33301 2.66699 12.167 4 20.5s2 13.5 2 15.5c0 6.66699 2.33301 14 7 22s10 15.5 16 22.5s12 13 18 18
s10.667 7.83301 14 8.5h-1c2 0 4.66699 2.33301 8 7l6 -5v-784l-43 -44l-33 34v676v2c0 0.666992 0.666992 3 2 7z" />
    <glyph glyph-name="h" unicode="h" horiz-adv-x="320" 
d="M258 9c-6.66699 -2.66699 -12.3389 -4.83594 -17.0059 -6.50293s-8.66699 -2.83398 -12 -3.50098h-10c-7.33301 3.33301 -11.333 5.66602 -12 6.99902v703l-19 137c-8 -4 -15 -12.667 -21 -26s-11 -29.666 -15 -48.999s-7.33301 -41.166 -10 -65.499
s-4.33398 -49.833 -5.00098 -76.5c-1.33301 -66.667 -2.83301 -136.667 -4.5 -210l-5.5 -232l-4 -58c-1.33301 -20 -3.33301 -40.667 -6 -62c-1.33301 -13.333 -3.66602 -30.666 -6.99902 -51.999s-7.66602 -47 -12.999 -77c-3.33301 -17.333 -7.16602 -34.5 -11.499 -51.5
s-9.16602 -33.833 -14.499 -50.5c-16.667 -49.333 -34 -75.666 -52 -78.999c0 13.333 0.166992 24.833 0.5 34.5s0.833008 17.834 1.5 24.501c3.33301 34.667 10.333 68.667 21 102s19.334 66.333 26.001 99l-3 1239c0 9.33301 1.66699 16.5 5 21.5s12 7.5 26 7.5
c12.667 0 20.334 -0.5 23.001 -1.5s4 -3.16699 4 -6.5l9 -478c2 4.66699 4.5 12 7.5 22l9.5 32.5c3.33301 11.667 7.33301 23.667 12 36s9.66699 23.5 15 33.5c24.667 38.667 47.334 58 68.001 58h17c4.66699 -0.666992 7.5 -1.66699 8.5 -3s1.5 -3 1.5 -5l-1 -952
c-1.33301 -0.666992 -2.5 -2.5 -3.5 -5.5s-3.83301 -5.16699 -8.5 -6.5z" />
    <glyph glyph-name="i" unicode="i" horiz-adv-x="208" 
d="M52 -6h21.001c37.333 0 67.5 6.5 90.5 19.5s40.167 30.833 51.5 53.5h-82l-3 924c-23.333 0 -45.333 -6 -66 -18c-10 -7.33301 -18.833 -13.5 -26.5 -18.5s-14.834 -9.16699 -21.501 -12.5l-7 -7c10.667 -3.33301 21.667 -7.5 33 -12.5s17 -9.16699 17 -12.5l3 -841
c-7.33301 -4.66699 -11 -18 -11 -40v-5c0 -2.66699 0.333008 -5.66699 1 -9v-21z" />
    <glyph glyph-name="j" unicode="j" horiz-adv-x="215" 
d="M71 -293c22 0 45.666 21.3301 70.999 63.9971c22 36.667 33 68 33 94v1135c-27.333 0 -60 -12 -98 -36c-42 -28 -63 -55.667 -63 -83c0.666992 -2 1 -3.66699 1 -5l6 -13c-0.666992 1.33301 -0.666992 1 0 -1s1.66699 -4 3 -6c6 -13.333 13 -23.166 21 -29.499
s16 -9.5 24 -9.5v25c0 6.66699 0.333008 11.667 1 15c2 34 11.667 53 29 57v-1089c0 -6.66699 -9.66699 -18.667 -29 -36c-7.33301 6.66699 -13.666 20.334 -18.999 41.001c-8 30.667 -23 50.667 -45 60v-15c0 -7.33301 -0.333008 -14.333 -1 -21
c-0.666992 -7.33301 -1 -12.666 -1 -15.999v-8c0 -24 4.33301 -48.333 13 -73c12 -33.333 30 -50 54 -50z" />
    <glyph glyph-name="k" unicode="k" horiz-adv-x="311" 
d="M155 512c8 0 14.8301 -1.83105 20.4971 -5.49805s10.334 -8.5 14.001 -14.5s6.33398 -12.5 8.00098 -19.5s2.5 -13.833 2.5 -20.5v-380c0 -11.333 -2.33301 -22.333 -7 -33s-9.66699 -21.167 -15 -31.5s-10.333 -20.833 -15 -31.5s-7 -22 -7 -34h24
c0.666992 0 3.16699 1.83301 7.5 5.5s9.16602 8.16699 14.499 13.5l16 16.5c5.33301 5.66699 9.33301 10.5 12 14.5s6.33398 10.167 11.001 18.5s9.16699 17.333 13.5 27s8 19.5 11 29.5s4.5 18.333 4.5 25v430c-1.33301 1.33301 -3.5 4 -6.5 8l-9 12l-9 12
c-3 4 -4.83301 6.66699 -5.5 8v5v5c0.666992 1.33301 2 6.66602 4 15.999l6.5 30.5l6.5 30.5c2 9.33301 3.33301 14.666 4 15.999l6 17.5c2.66699 7.66699 4 11.834 4 12.501v596c-1.33301 0 -5.5 -0.333008 -12.5 -1s-14.333 -2 -22 -4s-14.667 -4.66699 -21 -8
s-9.5 -7.66602 -9.5 -12.999v-530c0 -10.667 -2.33301 -24.5 -7 -41.5s-11 -33.667 -19 -50s-17.167 -30.333 -27.5 -42s-21.166 -17.5 -32.499 -17.5l1 705c-8 0 -17.333 -0.333008 -28 -1s-20.667 -2.66699 -30 -6s-17.333 -8.33301 -24 -15s-10 -15.667 -10 -27
c0 -6 1 -12.167 3 -18.5s8.33301 -8.5 19 -6.5l-1 -1183c-6.66699 -2 -10.5 -7 -11.5 -15s-1.5 -14.333 -1.5 -19c2 0 6 0.166992 12 0.5s12.5 0.666016 19.5 0.999023s13.5 0.833008 19.5 1.5s10 1 12 1c2 0.666992 5 2.16699 9 4.5s6 4.16602 6 5.49902v480l4 2.5l9.5 6
c3.66699 2.33301 7.5 4.5 11.5 6.5l10 5h5z" />
    <glyph glyph-name="l" unicode="l" horiz-adv-x="253" 
d="M195 -25c0 -5.33301 -1 -9.99707 -3 -13.9971s-6 -6 -12 -6c-8.66699 0 -17.334 7 -26.001 21s-16.667 30.333 -24 49s-13.333 36.667 -18 54s-7 29.666 -7 36.999v16c0 9.33301 -0.166992 20 -0.5 32s-0.5 24.333 -0.5 37v30c0 58.667 2.16699 117.5 6.5 176.5
s9.16602 117.833 14.499 176.5s10.166 117.334 14.499 176.001s6.5 117.667 6.5 177c0 23.333 -0.333008 46.166 -1 68.499s-2.66699 44.166 -6 65.499s-8.5 42.5 -15.5 63.5s-16.5 41.5 -28.5 61.5c-0.666992 0 -2.16699 0.166992 -4.5 0.5s-4.16602 0.5 -5.49902 0.5
c-4.66699 0 -8.5 -1.16699 -11.5 -3.5s-5.83301 -4.83301 -8.5 -7.5s-5.5 -5.16699 -8.5 -7.5s-6.83301 -3.5 -11.5 -3.5c-7.33301 0 -13.666 2.5 -18.999 7.5s-9.66602 11 -12.999 18s-5.66602 14.667 -6.99902 23s-2 15.5 -2 21.5c0 11.333 2.66699 21 8 29
s14.666 12 27.999 12c18 0 34.833 -6 50.5 -18s29.834 -27.5 42.501 -46.5s24.167 -40.333 34.5 -64s19.333 -47.334 27 -71.001s14 -46.167 19 -67.5s8.83301 -39 11.5 -53c0 -7.33301 0.166992 -19.666 0.5 -36.999s0.666016 -35.833 0.999023 -55.5s0.5 -38.5 0.5 -56.5
v-36c0 -51.333 -2.16699 -102.5 -6.5 -153.5s-9.33301 -101.667 -15 -152s-10.667 -101 -15 -152s-6.5 -102.167 -6.5 -153.5c0 -34 1.83301 -66.833 5.5 -98.5s5.5 -63.834 5.5 -96.501z" />
    <glyph glyph-name="m" unicode="m" horiz-adv-x="433" 
d="M90 961c0 -16 0.165039 -42.002 0.498047 -78.002s0.666016 -77 0.999023 -123s0.833008 -94.5 1.5 -145.5s1.16699 -99.5 1.5 -145.5s0.5 -87.333 0.5 -124v-78c0 -6 -0.333008 -17.333 -1 -34s-1.5 -34.5 -2.5 -53.5s-2.16699 -37.333 -3.5 -55
s-2.33301 -30.167 -3 -37.5c-2.66699 -29.333 -7.16699 -58.666 -13.5 -87.999l-19 -87.5c-6.33301 -29 -11.833 -58.333 -16.5 -88s-7 -59.5 -7 -89.5c9.33301 0 18.166 5.33301 26.499 16s16 24.334 23 41.001s13 35.167 18 55.5s9.5 40.166 13.5 59.499
s7.16699 37.166 9.5 53.499l5.5 37.5c2 16 4.66699 39 8 69s6.5 60.5 9.5 91.5s5.83301 58.833 8.5 83.5s4 40 4 46c0.666992 10.667 1.33398 28.667 2.00098 54s1.33398 54 2.00098 86s1.33398 66 2.00098 102s1.33398 70 2.00098 102s1 60.667 1 86v54
c3.33301 17.333 7.66602 32.833 12.999 46.5s16 24.834 32 33.501l1 -844c0 -0.666992 1.83301 -2.16699 5.5 -4.5s6.83398 -4.16602 9.50098 -5.49902h5c23.333 0 38.5 3.33301 45.5 10s10.5 20 10.5 40c0 0.666992 0.166992 3 0.5 7s0.333008 8.33301 0 13
s-1.33301 9 -3 13s-4.5 6.33301 -8.5 7l-1 714l55 50l1 -844c0 -0.666992 1.83301 -2.16699 5.5 -4.5s6.83398 -4.16602 9.50098 -5.49902h5c5.33301 0 11.833 0.666992 19.5 2s15 3.5 22 6.5s12.833 7 17.5 12s7 11.167 7 18.5c0 6 -1.16699 11.333 -3.5 16l-7 14l-7 14.5
c-2.33301 5 -3.5 10.5 -3.5 16.5l-1 904c-16.667 0 -29.334 -1.66699 -38.001 -5s-15.167 -7.83301 -19.5 -13.5s-7.33301 -11.834 -9 -18.501l-5 -20c-1.66699 -6.66699 -4.5 -13 -8.5 -19s-10.667 -10.667 -20 -14c-2.66699 -1.33301 -5.83398 -1.16602 -9.50098 0.500977
l-5.5 2.5v77c0 5.33301 -3.33301 8.5 -10 9.5s-11.667 1.5 -15 1.5c-14 0 -24.5 -4.66699 -31.5 -14s-13 -19.5 -18 -30.5s-10.167 -21.167 -15.5 -30.5s-13.666 -14 -24.999 -14v78c0 6.66699 -3.5 10.167 -10.5 10.5s-11.833 0.5 -14.5 0.5
c-5.33301 0 -11.833 -0.833008 -19.5 -2.5s-15 -4.33398 -22 -8.00098s-13 -8 -18 -13s-7.5 -10.833 -7.5 -17.5h18z" />
    <glyph glyph-name="n" unicode="n" horiz-adv-x="324" 
d="M55 909l-0.000976562 -819.998c0 -32 -2.66699 -63.667 -8 -95s-11.333 -62.5 -18 -93.5s-12.667 -62 -18 -93s-8 -61.833 -8 -92.5c5.33301 0 10.333 2 15 6s8.66699 8.83301 12 14.5s6.33301 11.5 9 17.5s4.66699 11.333 6 16c2 4.66699 4.5 11.834 7.5 21.501
s6.16699 19.167 9.5 28.5s6.16602 17.833 8.49902 25.5s3.83301 12.5 4.5 14.5l8.5 36.5c3.66699 15.667 7 31.5 10 47.5l8 43c2.33301 12.667 3.5 20.334 3.5 23.001l20 620c0.666992 16 1.83398 34.833 3.50098 56.5s5 43.5 10 65.5s12 42.667 21 62
s20.833 34.666 35.5 45.999l10 -10v-852c5.33301 0 12.5 0.5 21.5 1.5s17.833 2.66699 26.5 5s16.167 6 22.5 11s9.5 11.5 9.5 19.5v5c-0.666992 1.33301 -2.16699 4.66602 -4.5 9.99902s-4.16602 8.66602 -5.49902 9.99902c-0.666992 8 -1.66699 21.833 -3 41.5
s-2.5 40.667 -3.5 63s-1.83301 43.5 -2.5 63.5s-1 34 -1 42c0 18 -0.166992 45.5 -0.5 82.5s-0.5 78.833 -0.5 125.5v147v147c0 46.667 0.166992 88.5 0.5 125.5s0.5 64.5 0.5 82.5c-2 5.33301 -4.83301 8.5 -8.5 9.5s-7.83398 1.5 -12.501 1.5
c-12 0 -22 -4.83301 -30 -14.5s-15 -20.834 -21 -33.501l-17.5 -37.5c-5.66699 -12.333 -12.5 -20.833 -20.5 -25.5l-15 10l4 105c-17.333 0 -34.166 -3.5 -50.499 -10.5s-31.166 -15.167 -44.499 -24.5v-10c0 -1.33301 -0.666992 -1.5 -2 -0.5s-2 1.16699 -2 0.5
c0.666992 -3.33301 2.16699 -10 4.5 -20s4.16602 -16.667 5.49902 -20z" />
    <glyph glyph-name="o" unicode="o" horiz-adv-x="346" 
d="M43 497l-0.000976562 -45.999c0 -18.667 0.166992 -37.334 0.5 -56.001s0.5 -35 0.5 -49v-24c0 -9.33301 1.16699 -23.833 3.5 -43.5s5.83301 -41.334 10.5 -65.001s10.5 -48.167 17.5 -73.5s15.333 -48.166 25 -68.499s20.667 -37.166 33 -50.499s26.166 -20 41.499 -20
c10 0 20 5.33301 30 16s19 23 27 37s14.833 27.5 20.5 40.5s9.5 22.167 11.5 27.5c1.33301 3.33301 3.5 10.833 6.5 22.5s6 24.5 9 38.5l8.5 40.5c2.66699 13 4.66699 22.5 6 28.5c0.666992 4 1.66699 10.667 3 20s2.5 19.333 3.5 30s1.83301 20.667 2.5 30s1 16 1 20v22
c0 13.333 0.166992 28.5 0.5 45.5s0.5 34.167 0.5 51.5v41c0 34 -0.333008 70.167 -1 108.5s-3.33398 76.666 -8.00098 114.999s-12 75.833 -22 112.5s-24.333 70.334 -43 101.001c-2 4 -5.5 8.83301 -10.5 14.5s-10.167 11.167 -15.5 16.5s-10.333 9.83301 -15 13.5
s-7.66699 5.5 -9 5.5h-20c-0.666992 0 -3.16699 -1.83301 -7.5 -5.5s-9.16602 -8.16699 -14.499 -13.5l-16 -16.5c-5.33301 -5.66699 -9.33301 -10.5 -12 -14.5c-12 -15.333 -22.167 -34.833 -30.5 -58.5s-15.166 -48.334 -20.499 -74.001s-9.16602 -51.334 -11.499 -77.001
s-3.83301 -48.167 -4.5 -67.5v-24c0 -14 -0.166992 -30.167 -0.5 -48.5s-0.5 -37.166 -0.5 -56.499v-46zM112.999 492.001c0 26 -0.168945 52.8398 -0.501953 80.5068s-0.166016 55.667 0.500977 84s2.33398 56.166 5.00098 83.499s7 53.666 13 78.999l8 28l9.5 33
c3 10.667 5.83301 19.834 8.5 27.501l4 11.5h20c0.666992 0 2.16699 -4.16699 4.5 -12.5l8.5 -30c3.33301 -11.667 6.5 -23.834 9.5 -36.501l7.5 -31c4.66699 -22.667 8.5 -46.834 11.5 -72.501s5.33301 -51.834 7 -78.501s2.83398 -52.834 3.50098 -78.501
s1 -49.834 1 -72.501v-15c-0.666992 -13.333 -1.5 -31.833 -2.5 -55.5l-3 -70.5c-1 -23.333 -2 -44.166 -3 -62.499s-1.5 -28.833 -1.5 -31.5l-2.5 -46.5c-1 -18.333 -3 -36.833 -6 -55.5s-7.66699 -36 -14 -52s-15.5 -28 -27.5 -36c-9.33301 6 -17.166 16 -23.499 30
s-11.333 29.167 -15 45.5s-6.33398 32.166 -8.00098 47.499s-2.83398 27.666 -3.50098 36.999c-2.66699 28 -4.66699 52 -6 72s-2.33301 39 -3 57s-1.16699 36.333 -1.5 55s-0.5 40.667 -0.5 66z" />
    <glyph glyph-name="p" unicode="p" horiz-adv-x="296" 
d="M36 -249c0 -11.333 5.33594 -19.1611 16.0029 -23.4941s20.667 -6.5 30 -6.5h7c3.33301 0 6.66602 0.333008 9.99902 1s6.33301 1.66699 9 3s4 3.66602 4 6.99902l1 272c29.333 44.667 53.666 90.167 72.999 136.5s34.5 93.666 45.5 141.999s18.667 97.666 23 147.999
s6.5 102.166 6.5 155.499v48c0 20 -0.166992 39.833 -0.5 59.5s-0.5 37.167 -0.5 52.5v26c0 1.33301 -0.166992 5.66602 -0.5 12.999s-0.833008 15.666 -1.5 24.999l-2 28c-0.666992 9.33301 -1.33398 16.666 -2.00098 21.999
c-0.666992 6.66699 -2.33398 17.167 -5.00098 31.5s-6.5 29 -11.5 44s-11.333 28.167 -19 39.5s-17.167 17 -28.5 17s-20.5 -4 -27.5 -12s-13.333 -16.667 -19 -26l-16.5 -26c-5.33301 -8 -12 -12 -20 -12v66c0 5.33301 -2.33301 8.5 -7 9.5s-8.66699 1.5 -12 1.5
c-5.33301 0 -11 -0.5 -17 -1.5s-11.667 -2.66699 -17 -5s-9.66602 -5.5 -12.999 -9.5s-5 -9 -5 -15s0.666992 -11.167 2 -15.5s4.33301 -9.16602 9 -14.499v-1140c-4 -8 -6.83301 -14.833 -8.5 -20.5s-2.5 -12.5 -2.5 -20.5zM117.003 852.005l12.001 17.5049
c5.33301 7.66699 11.5 16 18.5 25s14.333 17.667 22 26s14.5 15.166 20.5 20.499c2.66699 -14.667 4.66699 -27 6 -37s2.33301 -19.333 3 -28s1 -17.334 1 -26.001v-31v-38c-0.666992 -12 -1.16699 -27.5 -1.5 -46.5s-0.833008 -39 -1.5 -60l-2 -64.5
c-0.666992 -22 -1.33398 -42 -2.00098 -60s-1.33398 -33.333 -2.00098 -46s-1 -20.334 -1 -23.001c0 -5.33301 -1 -16.666 -3 -33.999s-4.33301 -36 -7 -56l-7.5 -58c-2.33301 -18.667 -4.16602 -32.334 -5.49902 -41.001c-0.666992 -3.33301 -1.83398 -10 -3.50098 -20
l-5.5 -32.5c-2 -11.667 -4.16699 -23 -6.5 -34s-3.83301 -18.833 -4.5 -23.5c-1.33301 -6.66699 -3.16602 -14.5 -5.49902 -23.5s-5 -17.667 -8 -26s-6.66699 -16.166 -11 -23.499s-9.5 -13 -15.5 -17v5v5c2 18.667 3.66699 47.667 5 87s2.5 83.666 3.5 132.999
s1.83301 101.166 2.5 155.499s1 106.166 1 155.499s-0.166992 93.5 -0.5 132.5s-0.833008 67.833 -1.5 86.5z" />
    <glyph glyph-name="q" unicode="q" horiz-adv-x="296" 
d="M260 -236c0 -11.333 -5.33496 -19.168 -16.002 -23.501s-20.667 -6.5 -30 -6.5h-7c-3.33301 0 -6.66602 0.333008 -9.99902 1s-6.33301 1.66699 -9 3s-4 3.66602 -4 6.99902l-1 272c-29.333 44.667 -54 89.667 -74 135s-36 91.666 -48 138.999s-20.667 95.833 -26 145.5
s-8 101.167 -8 154.5v48c0 20 0.166992 39.833 0.5 59.5s0.5 37.167 0.5 52.5v26c0 1.33301 0.166992 5.83301 0.5 13.5s0.666016 16.334 0.999023 26.001s0.833008 19.334 1.5 29.001s1.33398 17.167 2.00098 22.5c0.666992 6.66699 2.83398 17.5 6.50098 32.5
s8.83398 30.333 15.501 46s14.5 29.5 23.5 41.5s19.167 18 30.5 18s20.333 -4 27 -12s12.667 -16.833 18 -26.5s10.5 -18.5 15.5 -26.5s11.5 -12 19.5 -12v66c0 5.33301 2.33301 8.5 7 9.5s8.66699 1.5 12 1.5c5.33301 0 11 -0.5 17 -1.5s11.667 -2.66699 17 -5
s9.66602 -5.5 12.999 -9.5s5 -9 5 -15s-0.666992 -11.167 -2 -15.5s-4.33301 -9.16602 -9 -14.499v-1140c4 -8 6.83301 -14.833 8.5 -20.5s2.5 -12.5 2.5 -20.5zM178.998 864.998l-12.0029 18.0039l-17.5 25.5c-6.33301 9 -13.166 17.667 -20.499 26s-14 15.166 -20 20.499
c-2.66699 -14.667 -4.66699 -27 -6 -37s-2.33301 -19.333 -3 -28s-1 -17.334 -1 -26.001v-31v-38c0 -12 0.333008 -27.5 1 -46.5l2 -60l2 -64.5c0.666992 -22 1.33398 -42 2.00098 -60s1.33398 -33.333 2.00098 -46s1 -20.334 1 -23.001
c0 -5.33301 0.833008 -16.666 2.5 -33.999s3.66699 -36 6 -56s4.5 -39.5 6.5 -58.5s3.66699 -32.833 5 -41.5c0.666992 -3.33301 1.83398 -10 3.50098 -20l5.5 -32.5l6 -34c2 -11 3.66699 -18.833 5 -23.5c1.33301 -6.66699 3.16602 -14.5 5.49902 -23.5s5 -17.667 8 -26
s6.66699 -16.166 11 -23.499s9.5 -13 15.5 -17v5v5c-2 18.667 -3.66699 47.667 -5 87s-2.5 83.666 -3.5 132.999s-1.83301 101.166 -2.5 155.499s-1 106.166 -1 155.499s0.166992 93.5 0.5 132.5s0.833008 67.833 1.5 86.5z" />
    <glyph glyph-name="r" unicode="r" horiz-adv-x="217" 
d="M38 36l0.992188 0.995117c-7.33301 -2.66699 -11.666 -8.5 -12.999 -17.5s-2 -16.5 -2 -22.5h119c0 14.667 -2.83301 25.5 -8.5 32.5s-13.167 12.5 -22.5 16.5v821c0 6 1.33301 12 4 18s6.33398 11.833 11.001 17.5s9.83398 10.834 15.501 15.501
s11.167 8.33398 16.5 11.001v-2c0 -11.333 -1.16699 -24.5 -3.5 -39.5s-4.83301 -29.833 -7.5 -44.5c-0.666992 -5.33301 -1.66699 -11.666 -3 -18.999s-2.5 -13.5 -3.5 -18.5s-1.5 -7.83301 -1.5 -8.5v-10c0 -2 0.5 -5.5 1.5 -10.5l3 -15.5l3 -15.5
c1 -5 1.83301 -8.5 2.5 -10.5c0.666992 -1.33301 2 -2.16602 4 -2.49902s3.66699 -0.5 5 -0.5c4.66699 0 9.33398 9 14.001 27s8.83398 38.667 12.501 62s6.66699 45.833 9 67.5s3.5 36.167 3.5 43.5c0 1.33301 -0.166992 3.5 -0.5 6.5s-0.5 6.5 -0.5 10.5v20
c-7.33301 7.33301 -14 13 -20 17s-13.667 6 -23 6c-10.667 0 -19.167 -2.5 -25.5 -7.5s-13.166 -11.833 -20.499 -20.5l-9 17h-66c0 -2.66699 0.333008 -7.5 1 -14.5s1.33398 -11.167 2.00098 -12.5v1c0.666992 -0.666992 1.83398 -2.16699 3.50098 -4.5
s3.16699 -4.16602 4.5 -5.49902l1 -1v-365v-164v-156c0 -48.667 -0.166992 -92 -0.5 -130s-0.5 -67 -0.5 -87zM158.992 723.995h19h-19z" />
    <glyph glyph-name="s" unicode="s" horiz-adv-x="284" 
d="M67 -36c0 -5.33301 1 -9.99707 3 -13.9971s6 -6 12 -6c8.66699 0 17.334 7 26.001 21s16.667 30.333 24 49s13.333 36.667 18 54s7 29.666 7 36.999v16c0 9.33301 0.166992 20 0.5 32s0.5 24.333 0.5 37v30c0 58.667 -2.16699 117.5 -6.5 176.5
s-9.16602 117.833 -14.499 176.5s-10.166 117.334 -14.499 176.001s-6.5 117.667 -6.5 177c0 23.333 0.333008 46.166 1 68.499s2.66699 44.166 6 65.499s8.5 42.5 15.5 63.5s16.5 41.5 28.5 61.5c0.666992 0 2.16699 0.166992 4.5 0.5s4.16602 0.5 5.49902 0.5
c4.66699 0 8.5 -1.16699 11.5 -3.5s5.83301 -4.83301 8.5 -7.5s5.5 -5.16699 8.5 -7.5s6.83301 -3.5 11.5 -3.5c7.33301 0 13.666 2.5 18.999 7.5s9.66602 11 12.999 18s5.66602 14.667 6.99902 23s2 15.5 2 21.5c0 11.333 -2.66699 21 -8 29s-14.666 12 -27.999 12
c-18 0 -34.833 -6 -50.5 -18s-29.834 -27.5 -42.501 -46.5s-24.167 -40.333 -34.5 -64s-19.333 -47.334 -27 -71.001s-14 -46.167 -19 -67.5s-8.83301 -39 -11.5 -53c0 -7.33301 -0.166992 -19.666 -0.5 -36.999s-0.666016 -35.833 -0.999023 -55.5s-0.5 -38.5 -0.5 -56.5
v-36c0 -51.333 2.16699 -102.5 6.5 -153.5s9.33301 -101.667 15 -152s10.667 -101 15 -152s6.5 -102.167 6.5 -153.5c0 -34 -1.83301 -66.833 -5.5 -98.5s-5.5 -63.834 -5.5 -96.501z" />
    <glyph glyph-name="t" unicode="t" horiz-adv-x="181" 
d="M24 15l0.00292969 1.00488c0 -0.666992 -0.5 -3.5 -1.5 -8.5s-1.5 -8.5 -1.5 -10.5h92c6 0 10 2.33301 12 7s3 9.66699 3 15c0 2 -0.166992 3.83301 -0.5 5.5s-0.5 3.16699 -0.5 4.5v3v76c0 33.333 0.333008 72 1 116c0 46 0.333008 96.167 1 150.5s1 109.5 1 165.5
s0.166992 111.333 0.5 166s0.666016 105.667 0.999023 153s0.666016 89.166 0.999023 125.499s0.833008 64.166 1.5 83.499c2.66699 3.33301 5.66699 6.16602 9 8.49902s6.66602 4.83301 9.99902 7.5c8 4.66699 14.833 9.5 20.5 14.5s8.5 12.167 8.5 21.5
c0 6.66699 -2.66699 11.667 -8 15s-11 6.66602 -17 9.99902c-4.66699 2 -9 4.16699 -13 6.5s-7.33301 5.16602 -10 8.49902c0.666992 3.33301 1 9.33301 1 18c0 12 -1.5 24.5 -4.5 37.5s-7.83301 25 -14.5 36s-15.167 20.167 -25.5 27.5s-22.5 11 -36.5 11v-151h-33v-69h28
l3 -1026l-15.5 -15.5c-7 -7 -11.167 -11.5 -12.5 -13.5z" />
    <glyph glyph-name="u" unicode="u" horiz-adv-x="287" 
d="M41 476c0 -13.333 0.166992 -24.334 0.5 -33.001s0.5 -14 0.5 -16c0 -13.333 0.166992 -34 0.5 -62s0.5 -59.667 0.5 -95v-82c0 -28 0.166992 -54.5 0.5 -79.5s0.666016 -47.333 0.999023 -67s0.5 -34.5 0.5 -44.5c14 2.66699 25.667 7 35 13s17.333 13 24 21
s12.334 16.667 17.001 26l14 28c4.66699 10.667 9.5 20.834 14.5 30.501s11.833 18.167 20.5 25.5c0 -5.33301 0.5 -14.166 1.5 -26.499s2 -25.333 3 -39s1.83301 -26.5 2.5 -38.5s1.33398 -20.333 2.00098 -25c0.666992 -2.66699 2.66699 -5.66699 6 -9s6.33301 -5 9 -5
c3.33301 0 8.5 1.5 15.5 4.5s14.333 6.5 22 10.5l21.5 11c6.66699 3.33301 11 5.66602 13 6.99902v14c-1.33301 2 -3.5 7.33301 -6.5 16s-5.83301 15.667 -8.5 21l-6 920c-15.333 0 -29.5 -4.83301 -42.5 -14.5s-19.5 -23.167 -19.5 -40.5
c0 -15.333 -0.166992 -37.833 -0.5 -67.5s-0.666016 -63.334 -0.999023 -101.001s-0.666016 -77.5 -0.999023 -119.5s-0.5 -83 -0.5 -123c0 -48 -0.166992 -91.667 -0.5 -131s-0.5 -67.666 -0.5 -84.999c-0.666992 -37.333 -7.33398 -72.333 -20.001 -105
s-28.334 -64.667 -47.001 -96v57c0 24 0.166992 50.5 0.5 79.5s0.5 59.833 0.5 92.5v101v108c0 36 -0.166992 69.5 -0.5 100.5s-0.5 58.167 -0.5 81.5v56c0 7.33301 -0.333008 20.833 -1 40.5s-1.5 40.334 -2.5 62.001s-1.83301 42 -2.5 61s-1.33398 32.167 -2.00098 39.5
h-15c-8.66699 0 -18.5 -1.33301 -29.5 -4s-18.833 -9 -23.5 -19v-22c0 -9.33301 -0.166992 -20.333 -0.5 -33s-0.5 -26.334 -0.5 -41.001v-43v-148l4 2v-46c0 -18 0.166992 -36.833 0.5 -56.5l1 -59c0.333008 -19.667 0.5 -37.167 0.5 -52.5z" />
    <glyph glyph-name="v" unicode="v" horiz-adv-x="283" 
d="M29 941l80 -935.999h60v50l74 886h26v64c-6 0 -13.5 0.166992 -22.5 0.5s-17.5 -0.333984 -25.5 -2.00098s-15.167 -5 -21.5 -10s-9.83301 -12.5 -10.5 -22.5l-50 -596l-50 546v80h-71c0 -1.33301 0.166992 -3 0.5 -5s0.5 -3.66699 0.5 -5c0 -2 0.5 -5.33301 1.5 -10
s2 -9.66699 3 -15s2 -10.333 3 -15s1.83301 -8 2.5 -10z" />
    <glyph glyph-name="w" unicode="w" horiz-adv-x="369" 
d="M40 961v-18c0 -24.667 0.333008 -61.5 1 -110.5s1.16699 -104.167 1.5 -165.5s0.833008 -125.833 1.5 -193.5l2 -193.5c0.666992 -61.333 1.16699 -116.5 1.5 -165.5s0.833008 -85.833 1.5 -110.5h20c1.33301 0 4.16602 1.83301 8.49902 5.5s9.16602 8.16699 14.499 13.5
s10.5 10.833 15.5 16.5s8.83301 10.5 11.5 14.5c2 2.66699 5.83301 9.83398 11.5 21.501l18.5 38l19 38c6 11.667 9.66699 19.167 11 22.5c0.666992 1.33301 2.16699 3.16602 4.5 5.49902s4.16602 3.83301 5.49902 4.5l10 -20l15 -30l15 -30l10 -20l12.5 -21.5
c5 -8.33301 10.833 -16 17.5 -23s13.834 -13 21.501 -18s15.5 -7.5 23.5 -7.5h5c0 24.667 0.333008 61.5 1 110.5s1.5 104.167 2.5 165.5s1.83301 125.833 2.5 193.5l2 193.5c0.666992 61.333 1.33398 116.5 2.00098 165.5s1 85.833 1 110.5v24c0 12 -3.33301 19.5 -10 22.5
s-15.667 4.5 -27 4.5c-8.66699 0 -15.5 -1.5 -20.5 -4.5s-7.5 -11.833 -7.5 -26.5l-1 -819c-12 4 -21.667 15 -29 33s-13.5 37.333 -18.5 58s-9.83301 39.167 -14.5 55.5s-10.667 24.5 -18 24.5c-0.666992 0 -1.66699 -0.166992 -3 -0.5l-2 -0.5
c-1.33301 -0.666992 -3.16602 -2.16699 -5.49902 -4.5s-3.83301 -4.16602 -4.5 -5.49902c-2.66699 -15.333 -5.66699 -31.5 -9 -48.5s-7.33301 -33.833 -12 -50.5s-10.5 -32.834 -17.5 -48.501s-15.833 -29.834 -26.5 -42.501l1 887c-7.33301 0 -14.833 -1 -22.5 -3
s-14.667 -5.16699 -21 -9.5s-11.5 -9.66602 -15.5 -15.999s-6 -13.5 -6 -21.5z" />
    <glyph glyph-name="x" unicode="x" horiz-adv-x="308" 
d="M122 472l0.00195312 -10c0 -1.33301 -1 -8.83301 -3 -22.5s-4.83301 -31.334 -8.5 -53.001l-12 -72.5l-13 -80.5l-13 -78c-4.33301 -25 -7.83301 -46.167 -10.5 -63.5c-1.33301 -8 -3.83301 -15.833 -7.5 -23.5s-7.5 -15 -11.5 -22s-7.5 -14.167 -10.5 -21.5
s-4.5 -15 -4.5 -23h74l10 20c0.666992 8 2.5 22 5.5 42s6 41.167 9 63.5s6 43.333 9 63s5.16699 33.5 6.5 41.5c0.666992 2.66699 2.16699 7.83398 4.5 15.501s4.16602 12.5 5.49902 14.5c0.666992 -8 2.5 -22.5 5.5 -43.5s6 -43.167 9 -66.5s6 -45.5 9 -66.5
s5.16699 -35.5 6.5 -43.5c0.666992 -2 2.16699 -6.83301 4.5 -14.5s4.16602 -12.834 5.49902 -15.501c0.666992 -1.33301 2.33398 -3.33301 5.00098 -6s4.33398 -4 5.00098 -4h76c0 10 -1.66699 18.667 -5 26s-7 14.833 -11 22.5l-12 23.5c-4 8 -6.66699 17.333 -8 28
c-2.66699 18 -5.66699 39.667 -9 65l-10.5 80l-11 83l-10 74.5c-3 22.333 -5.33301 40.5 -7 54.5s-2.5 21.667 -2.5 23v70l59 374c8.66699 11.333 14.834 23 18.501 35s5.5 25 5.5 39c-2 0 -6.16699 -0.166992 -12.5 -0.5l-19.5 -1
c-6.66699 -0.333008 -13.167 -0.833008 -19.5 -1.5s-10.5 -1 -12.5 -1c-1.33301 0 -3.33301 -1.33301 -6 -4s-4 -4.66699 -4 -6l-40 -270l-40 260c-1.33301 6 -3.83301 10.5 -7.5 13.5s-7.83398 5 -12.501 6s-9.66699 1.5 -15 1.5h-13h-16c-4.66699 0 -9 -0.5 -13 -1.5
s-7.33301 -3 -10 -6s-4 -7.5 -4 -13.5c0 -5.33301 1.5 -10.666 4.5 -15.999l9.5 -16.5c3.33301 -5.66699 6.66602 -11.667 9.99902 -18s5.66602 -12.833 6.99902 -19.5z" />
    <glyph glyph-name="y" unicode="y" horiz-adv-x="255" 
d="M152 78c0 -58.667 -5.16699 -115.499 -15.5 -170.499l-32.5 -167.5c-0.666992 -1.33301 -1.16699 -5 -1.5 -11s-0.5 -9.66699 -0.5 -11c10.667 0 20.667 7.83301 30 23.5s17.5 33.834 24.5 54.501s12.833 41 17.5 61l10 43c1.33301 6.66699 3 15.834 5 27.501
s4.16699 23.334 6.5 35.001l6 31c1.66699 9 2.5 14.5 2.5 16.5c0.666992 6 1.66699 16.667 3 32s2.5 31.5 3.5 48.5s1.83301 33 2.5 48s1 25.5 1 31.5c0 19.333 0.166992 49 0.5 89s0.5 85.333 0.5 136v159v160c0 50.667 -0.166992 96.167 -0.5 136.5
s-0.5 70.166 -0.5 89.499c6 6.66699 9.66699 14.834 11 24.501s2 18.5 2 26.5c-5.33301 0 -12.5 -1 -21.5 -3s-18.167 -5 -27.5 -9s-17.333 -8.83301 -24 -14.5s-10 -11.834 -10 -18.501v-6c0.666992 -2.66699 2.16699 -7.83398 4.5 -15.501s4.16602 -12.5 5.49902 -14.5
v-730c0 -6.66699 -2.33301 -13.334 -7 -20.001s-10.334 -12.834 -17.001 -18.501s-13.667 -10.167 -21 -13.5s-13.333 -5 -18 -5c0 12 0.166992 30.5 0.5 55.5s0.5 53.167 0.5 84.5s0.166992 64.166 0.5 98.499l1 98.5c0.333008 31.333 0.5 59.333 0.5 84v56
c0 9.33301 -0.166992 24.166 -0.5 44.499s-0.833008 43.166 -1.5 68.499s-1.33398 52.166 -2.00098 80.499l-2 81c-0.666992 25.667 -1.16699 48.5 -1.5 68.5s-0.833008 34.667 -1.5 44c-1.33301 0 -4.66602 0.333008 -9.99902 1s-8.66602 1 -9.99902 1
c-8 0 -16.667 -1.5 -26 -4.5s-14 -10.167 -14 -21.5v-6c0 -4 0.333008 -12 1 -24s1.33398 -26.167 2.00098 -42.5s1.33398 -33.666 2.00098 -51.999s1.33398 -35.666 2.00098 -51.999s1.16699 -30.666 1.5 -42.999s0.5 -20.166 0.5 -23.499c0 -17.333 0.166992 -44 0.5 -80
s0.5 -76.667 0.5 -122v-143v-143c0 -45.333 -0.166992 -86 -0.5 -122s-0.5 -62.667 -0.5 -80c-4 -14 -3 -22.833 3 -26.5s13 -5.5 21 -5.5c11.333 0 20.666 4.16699 27.999 12.5s14.166 17.5 20.499 27.5s13 19.167 20 27.5s15.5 12.5 25.5 12.5z" />
    <glyph glyph-name="z" unicode="z" horiz-adv-x="273" 
d="M37 3h193.995v366l-23 -13l-22 -223c0 -1.33301 -1.33301 -5 -4 -11l-9.5 -20.5c-3.66699 -7.66699 -7.5 -15 -11.5 -22s-7.33301 -12.5 -10 -16.5c-1.33301 -1.33301 -4.5 -3.33301 -9.5 -6s-8.5 -4 -10.5 -4c-1.33301 0 -3.33301 1.33301 -6 4s-4 4.66699 -4 6
c0 0.666992 -0.166992 4.83398 -0.5 12.501s-0.5 13.5 -0.5 17.5c0 3.33301 0.166992 8.83301 0.5 16.5s0.5 12.167 0.5 13.5l114 876h-195l1 -358c12 0.666992 20.5 9 25.5 25s8.33301 35.833 10 59.5s2.83398 49.167 3.50098 76.5s2.83398 52.666 6.50098 75.999
s9.83398 42.833 18.501 58.5s22 23.5 40 23.5c0.666992 0 1.66699 -0.166992 3 -0.5l2 -0.5c0.666992 -1.33301 2.33398 -4.5 5.00098 -9.5s4.33398 -8.5 5.00098 -10.5v-5v-5z" />
    <glyph glyph-name="bar" unicode="|" horiz-adv-x="262" 
d="M24 131c0 -12.667 0.831055 -26.665 2.49805 -41.998s5.16699 -29.666 10.5 -42.999s13 -24.5 23 -33.5s23.333 -13.5 40 -13.5c20.667 0 39.5 6.5 56.5 19.5s31.5 29.167 43.5 48.5s21.333 40.166 28 62.499s10 42.5 10 60.5h-23l-40 -80
c-2.66699 -5.33301 -8 -8.5 -16 -9.5s-14.333 -1.5 -19 -1.5c-11.333 0 -20 4.5 -26 13.5s-10.5 19.833 -13.5 32.5s-4.83301 25.5 -5.5 38.5s-1 23.5 -1 31.5c0 17.333 2.66699 35.333 8 54s11.333 36.5 18 53.5l18 47c5.33301 14.333 8 26.166 8 35.499
c0 0.666992 -0.166992 1.66699 -0.5 3l-0.5 2l-20 30c-2 3.33301 -4.5 8 -7.5 14l-9.5 19l-8.5 17.5c-2.33301 5 -3.83301 8.16699 -4.5 9.5c-9.33301 25.333 -15.166 52.666 -17.499 81.999s-3.5 57.333 -3.5 84v38c0 12.667 3.66699 24.667 11 36
c12 0.666992 25 1.66699 39 3s27.833 3.66602 41.5 6.99902s26.667 8 39 14s22.5 14.667 30.5 26c-2 6.66699 -6.83301 10.667 -14.5 12s-15.667 2.33301 -24 3s-15.666 1.66699 -21.999 3s-9.5 5.33301 -9.5 12c0 9.33301 2.66699 18.5 8 27.5s11.166 18.167 17.499 27.5
s12.166 18.833 17.499 28.5s8 20.167 8 31.5c0 1.33301 -0.166992 4 -0.5 8s-0.5 6.33301 -0.5 7s-0.666992 3 -2 7s-2.5 8.33301 -3.5 13s-2 8.83398 -3 12.501s-1.5 6.16699 -1.5 7.5c0 2 1.33301 5.5 4 10.5s4.66699 8.16699 6 9.5c-6 6 -12.333 9.33301 -19 10
s-13.667 1 -21 1c-21.333 0 -40 -8 -56 -24s-30 -36.667 -42 -62s-22.167 -53.666 -30.5 -84.999s-14.833 -62 -19.5 -92s-8.16699 -57.833 -10.5 -83.5s-3.5 -45.834 -3.5 -60.501c0 -25.333 1.33301 -48.833 4 -70.5s6.5 -42.834 11.5 -63.501s10.5 -41.5 16.5 -62.5
l20 -67.5c0 -0.666992 0.166992 -2.16699 0.5 -4.5s0.5 -4.16602 0.5 -5.49902c0 -17.333 -2.16699 -34.5 -6.5 -51.5s-9.16602 -34.167 -14.499 -51.5s-10.166 -34.833 -14.499 -52.5s-6.5 -35.5 -6.5 -53.5zM124.998 910.002c6 -1.33301 9.33398 -4.49707 10.001 -9.49707
s1 -9.83301 1 -14.5c0 -6 -0.833008 -14.333 -2.5 -25s-4.33398 -21.334 -8.00098 -32.001s-8.5 -20 -14.5 -28s-13 -12 -21 -12c-0.666992 0 -1.5 0.166992 -2.5 0.5s-1.83301 0.5 -2.5 0.5c0.666992 7.33301 1.66699 16.666 3 27.999s3.5 23 6.5 35
s6.83301 23.167 11.5 33.5s11 18.166 19 23.499z" />
    <glyph glyph-name="Adieresis" unicode="&#xc4;" horiz-adv-x="375" 
d="M47 32c-6 -2 -9.66699 -6.33496 -11 -13.002s-2 -12.334 -2 -17.001h106c0 4.66699 -0.666992 10.334 -2 17.001s-5 11 -11 13v75v75l2.5 58.5l3 69c1 22.333 2 41.666 3 57.999l1.5 24.5l80 50h20c0.666992 -8 1.5 -22.5 2.5 -43.5s2 -43.167 3 -66.5s2 -45.5 3 -66.5
s1.5 -35.5 1.5 -43.5v-14c0 -7.33301 0.166992 -16 0.5 -26s0.5 -20.333 0.5 -31v-24v-19c0 -8.66699 -0.166992 -18.167 -0.5 -28.5s-0.5 -20.166 -0.5 -29.499v-18c-6 -2 -9.66699 -6.33301 -11 -13s-2 -12.334 -2 -17.001h106c0 4.66699 -0.666992 10.334 -2 17.001
s-5 11 -11 13l-60 1140v7c0 4.66699 -0.166992 9.5 -0.5 14.5s-0.5 9.83301 -0.5 14.5v12c0 15.333 2.16699 27.833 6.5 37.5s6.5 21.167 6.5 34.5h-184c0 -11.333 2.16699 -21.166 6.5 -29.499s6.5 -19.166 6.5 -32.499v-9c0 -4 -0.166992 -8 -0.5 -12
s-0.5 -7.66699 -0.5 -11v-6zM177 1232l19.9961 0.000976562c0.666992 -15.333 1.83398 -38.5 3.50098 -69.5l5.5 -106l6.5 -124.5c2.33301 -43.333 4.33301 -84.833 6 -124.5s3.33398 -75.167 5.00098 -106.5s2.83398 -54.333 3.50098 -69v-50v-50l-16 -11
c-6.66699 -4.66699 -13.834 -9.33398 -21.501 -14.001s-15.5 -8.66699 -23.5 -12s-15.333 -5 -22 -5c0 4.66699 0.166992 13.334 0.5 26.001l1 40c0.333008 14 0.666016 27.167 0.999023 39.5s0.5 21.166 0.5 26.499c0.666992 15.333 1.83398 39 3.50098 71
s3.33398 68 5.00098 108s3.66699 82.167 6 126.5l6.5 126.5l5.5 107.5c1.66699 31.667 2.83398 55.167 3.50098 70.5zM96.9961 1442v-100h50v100h-50zM226.996 1442v-100h50v100h-50z" />
    <glyph glyph-name="Odieresis" unicode="&#xd6;" horiz-adv-x="296" 
d="M142 1319c-21.333 0 -38.6689 -6.33105 -52.002 -18.998s-23.666 -28.334 -30.999 -47.001s-12.166 -38.334 -14.499 -59.001s-3.5 -39.334 -3.5 -56.001v-930c0 -18 1.33301 -38.667 4 -62s8 -45.166 16 -65.499s19.167 -37.666 33.5 -51.999s33.166 -21.5 56.499 -21.5
c20 0 36.167 5.5 48.5 16.5s22 24.833 29 41.5s12.167 34.167 15.5 52.5s5.66602 35.166 6.99902 50.499l3 32.5c1.33301 14.333 2.5 29 3.5 44s1.83301 28.5 2.5 40.5s1 19.667 1 23v720v51c0 20 -0.666992 40.833 -2 62.5s-4.16602 43 -8.49902 64s-11 40 -20 57
s-20.667 30.667 -35 41s-32.166 15.5 -53.499 15.5zM145.997 1269c6.66699 0 12.1689 -3.82715 16.502 -11.4941s7.83301 -16.167 10.5 -25.5s4.66699 -18.5 6 -27.5s2 -14.5 2 -16.5l3 -30c1.33301 -13.333 2.5 -26.833 3.5 -40.5s1.83301 -26.334 2.5 -38.001
s1 -18.834 1 -21.501v-820c0 -3.33301 -0.333008 -10.166 -1 -20.499s-1.5 -22 -2.5 -35s-2.16699 -25.5 -3.5 -37.5l-3 -27c-0.666992 -3.33301 -1.5 -8.16602 -2.5 -14.499s-2.66699 -12.5 -5 -18.5s-5.33301 -11.667 -9 -17s-8.16699 -8.66602 -13.5 -9.99902
c-4 -1.33301 -7.66699 -0.833008 -11 1.5s-6.33301 5.16602 -9 8.49902s-4.83398 7 -6.50098 11s-2.83398 7 -3.50098 9c-0.666992 2.66699 -1.66699 7.16699 -3 13.5s-2.5 12.666 -3.5 18.999s-1.83301 12.166 -2.5 17.499s-1 8.66602 -1 9.99902v1010
c0 0.666992 0.333008 3.66699 1 9s1.5 11.166 2.5 17.499s2.16699 12.666 3.5 18.999l3 14.5c0 1.33301 0.833008 4.66602 2.5 9.99902l5.5 17c2 6 4.5 11.5 7.5 16.5s6.16699 7.5 9.5 7.5zM50.999 1458.01l-0.00195312 -90c0 -3.33301 1.33301 -5.83301 4 -7.5
s5.83398 -2.83398 9.50098 -3.50098s7 -0.833984 10 -0.500977s5.16699 0.5 6.5 0.5c0.666992 0 2.66699 -0.166992 6 -0.5s6.83301 -0.166016 10.5 0.500977s6.83398 1.83398 9.50098 3.50098s4 4.16699 4 7.5v90h-60zM180.997 1458.01v-100h50v100h-50z" />
    <glyph glyph-name="Udieresis" unicode="&#xdc;" horiz-adv-x="328" 
d="M40 1277l-0.00195312 -1020c0 -21.333 0.333008 -46.833 1 -76.5s4.5 -58.167 11.5 -85.5s18.833 -50.666 35.5 -69.999s40.667 -29 72 -29c28 0 50 7.5 66 22.5s28 33.833 36 56.5s13 46.667 15 72s3 48.666 3 69.999v1060
c4.66699 1.33301 8.83398 3.66602 12.501 6.99902s5.5 7.66602 5.5 12.999h-105c0 -0.666992 0.333008 -2.33398 1 -5.00098s1 -4.33398 1 -5.00098c0.666992 -1.33301 2.16699 -4.66602 4.5 -9.99902s4.16602 -8.66602 5.49902 -9.99902v-1120
c0 -3.33301 -0.666992 -10.5 -2 -21.5s-3.66602 -22.333 -6.99902 -34s-8 -22.167 -14 -31.5s-13.333 -14 -22 -14c-9.33301 0 -16.833 4.66699 -22.5 14s-10.167 19.833 -13.5 31.5s-5.66602 23 -6.99902 34s-2 18.167 -2 21.5v1120
c1.33301 1.33301 3.16602 4.66602 5.49902 9.99902s3.83301 8.66602 4.5 9.99902c0.666992 0.666992 1.16699 2.33398 1.5 5.00098s0.5 4.33398 0.5 5.00098h-105c0 -5.33301 1.83301 -9.66602 5.5 -12.999s7.83398 -5.66602 12.501 -6.99902zM74.998 1447v-100h50v100h-50z
M194.998 1447v-100h50v100h-50z" />
    <glyph glyph-name="adieresis" unicode="&#xe4;" horiz-adv-x="316" 
d="M173 92c0.666992 -4.66699 1.50195 -11.999 2.50195 -21.999s2.83301 -20.167 5.5 -30.5s6.5 -19.333 11.5 -27s11.833 -11.5 20.5 -11.5c10.667 0 20.167 2.5 28.5 7.5s15.5 11.5 21.5 19.5s10.5 17 13.5 27s4.5 19.667 4.5 29c-6 0 -11.333 -0.5 -16 -1.5
s-8.66699 -4.5 -12 -10.5c-4 2 -7.5 5.33301 -10.5 10s-5.5 9.83398 -7.5 15.501s-3.66699 10.834 -5 15.501s-2 7.66699 -2 9l3 880c-16 0 -31.5 -8 -46.5 -24s-29.167 -36.5 -42.5 -61.5s-25.333 -52.667 -36 -83s-20 -60 -28 -89s-14.167 -55.5 -18.5 -79.5
s-6.5 -41.667 -6.5 -53v-470c0 -8 0.5 -19.167 1.5 -33.5s3.16699 -28.833 6.5 -43.5s8.66602 -27.334 15.999 -38.001s17.666 -16 30.999 -16c9.33301 0 17.5 3.16699 24.5 9.5s13.167 13.666 18.5 21.999s9.83301 17.166 13.5 26.499s6.5 17 8.5 23zM102.002 402.001
c0 36.667 0.835938 75 2.50293 115s4.66699 80 9 120s10.666 79.5 18.999 118.5s19.5 75.5 33.5 109.5l-3 -663c0 -1.33301 -0.5 -6 -1.5 -14s-2.5 -17 -4.5 -27s-4.16699 -19.667 -6.5 -29s-4.83301 -16 -7.5 -20l-2 -0.5c-1.33301 -0.333008 -2.33301 -0.5 -3 -0.5
c-4 0 -7.5 3 -10.5 9s-5.66699 12.833 -8 20.5s-4 14.667 -5 21s-1.5 9.83301 -1.5 10.5c-2.66699 24 -4.83398 45.333 -6.50098 64s-2.83398 36.5 -3.50098 53.5s-1 34.5 -1 52.5v60zM79.0049 1199v-100h50v100h-50zM199.005 1199v-100h50v100h-50z" />
    <glyph glyph-name="odieresis" unicode="&#xf6;" horiz-adv-x="349" 
d="M43 497l-0.000976562 -45.999c0 -18.667 0.166992 -37.334 0.5 -56.001s0.5 -35 0.5 -49v-24c0 -9.33301 1.16699 -23.833 3.5 -43.5s5.83301 -41.334 10.5 -65.001s10.5 -48.167 17.5 -73.5s15.333 -48.166 25 -68.499s20.667 -37.166 33 -50.499s26.166 -20 41.499 -20
c10 0 20 5.33301 30 16s19 23 27 37s14.833 27.5 20.5 40.5s9.5 22.167 11.5 27.5c1.33301 3.33301 3.5 10.833 6.5 22.5s6 24.5 9 38.5l8.5 40.5c2.66699 13 4.66699 22.5 6 28.5c0.666992 4 1.66699 10.667 3 20s2.5 19.333 3.5 30s1.83301 20.667 2.5 30s1 16 1 20v22
c0 13.333 0.166992 28.5 0.5 45.5s0.5 34.167 0.5 51.5v41c0 34 -0.333008 70.167 -1 108.5s-3.33398 76.666 -8.00098 114.999s-12 75.833 -22 112.5s-24.333 70.334 -43 101.001c-2 4 -5.5 8.83301 -10.5 14.5s-10.167 11.167 -15.5 16.5s-10.333 9.83301 -15 13.5
s-7.66699 5.5 -9 5.5h-20c-0.666992 0 -3.16699 -1.83301 -7.5 -5.5s-9.16602 -8.16699 -14.499 -13.5l-16 -16.5c-5.33301 -5.66699 -9.33301 -10.5 -12 -14.5c-12 -15.333 -22.167 -34.833 -30.5 -58.5s-15.166 -48.334 -20.499 -74.001s-9.16602 -51.334 -11.499 -77.001
s-3.83301 -48.167 -4.5 -67.5v-24c0 -14 -0.166992 -30.167 -0.5 -48.5s-0.5 -37.166 -0.5 -56.499v-46zM112.999 492.001c0 26 -0.168945 52.8398 -0.501953 80.5068s-0.166016 55.667 0.500977 84s2.33398 56.166 5.00098 83.499s7 53.666 13 78.999l8 28l9.5 33
c3 10.667 5.83301 19.834 8.5 27.501l4 11.5h20c0.666992 0 2.16699 -4.16699 4.5 -12.5l8.5 -30c3.33301 -11.667 6.5 -23.834 9.5 -36.501l7.5 -31c4.66699 -22.667 8.5 -46.834 11.5 -72.501s5.33301 -51.834 7 -78.501s2.83398 -52.834 3.50098 -78.501
s1 -49.834 1 -72.501v-15c-0.666992 -13.333 -1.5 -31.833 -2.5 -55.5l-3 -70.5c-1 -23.333 -2 -44.166 -3 -62.499s-1.5 -28.833 -1.5 -31.5l-2.5 -46.5c-1 -18.333 -3 -36.833 -6 -55.5s-7.66699 -36 -14 -52s-15.5 -28 -27.5 -36c-9.33301 6 -17.166 16 -23.499 30
s-11.333 29.167 -15 45.5s-6.33398 32.166 -8.00098 47.499s-2.83398 27.666 -3.50098 36.999c-2.66699 28 -4.66699 52 -6 72s-2.33301 39 -3 57s-1.16699 36.333 -1.5 55s-0.5 40.667 -0.5 66zM101.997 1190.01v-100h50v100h-50zM221.997 1190.01v-100h50v100h-50z" />
    <glyph glyph-name="udieresis" unicode="&#xfc;" horiz-adv-x="287" 
d="M37 695l-0.00292969 -46.001c0 -18 0.166992 -37.167 0.5 -57.5s0.5 -40.833 0.5 -61.5v-54v-49c0 -10.667 0.333008 -27.334 1 -50.001s1.33398 -48.167 2.00098 -76.5s1.33398 -58.166 2.00098 -89.499s1.33398 -61.166 2.00098 -89.499s1.16699 -53.833 1.5 -76.5
s0.833008 -39.334 1.5 -50.001c14 2.66699 25.667 7 35 13s17.333 13 24 21s12.334 16.667 17.001 26l14 28c4.66699 10.667 9.5 20.834 14.5 30.501s11.833 18.167 20.5 25.5c0 -5.33301 0.333008 -14.166 1 -26.499s1.5 -25.333 2.5 -39s2 -26.5 3 -38.5
s1.83301 -20.333 2.5 -25c0.666992 -2.66699 2.66699 -5.66699 6 -9s6 -5 8 -5c3.33301 0 8.66602 1.5 15.999 4.5s14.833 6.5 22.5 10.5l21 11c6.33301 3.33301 10.5 5.66602 12.5 6.99902v14c-1.33301 2 -3.33301 7.33301 -6 16s-5.33398 15.667 -8.00098 21l-6 922
c-15.333 0 -29.5 -5 -42.5 -15s-19.5 -23.667 -19.5 -41c0 -14.667 -0.166992 -36.834 -0.5 -66.501s-0.666016 -63.5 -0.999023 -101.5l-1 -120c-0.333008 -42 -0.5 -83 -0.5 -123c0 -48.667 -0.166992 -92.5 -0.5 -131.5s-0.5 -67.5 -0.5 -85.5
c-0.666992 -37.333 -7.5 -72.166 -20.5 -104.499s-28.5 -64.5 -46.5 -96.5v58c0 23.333 0.166992 49.5 0.5 78.5s0.5 59.833 0.5 92.5v101v109c0 36 -0.166992 69.5 -0.5 100.5s-0.5 58.167 -0.5 81.5v56c0 7.33301 -0.333008 20.833 -1 40.5s-1.5 40.5 -2.5 62.5
s-2 42.5 -3 61.5s-1.83301 32.167 -2.5 39.5h-14c-8.66699 0 -18.5 -1.33301 -29.5 -4s-18.833 -9 -23.5 -19c0 -10 -0.166992 -28.333 -0.5 -55s-0.5 -55 -0.5 -85c-0.666992 -30 -1 -58.333 -1 -85v-55zM62.9971 1205v-109h58v109h-58zM177.997 1205v-109h58v109h-58z" />
    <glyph glyph-name="afii10023" unicode="&#x401;" horiz-adv-x="338" 
d="M39 341v-48.002c0 -29.333 1.16699 -60.833 3.5 -94.5s8.33301 -65 18 -94s24.167 -53.167 43.5 -72.5s46 -29 80 -29c22.667 0 41 6.33301 55 19s25.333 28.167 34 46.5s14.834 38.166 18.501 59.499s6.5 41 8.5 59c0.666992 6 1.66699 15.833 3 29.5s2.5 28 3.5 43
s1.83301 29 2.5 42s1 21.5 1 25.5c0 8 0.166992 22.667 0.5 44s0.666016 44 0.999023 68s0.666016 46.833 0.999023 68.5s0.5 36.5 0.5 44.5c-19.333 0 -34.833 -4 -46.5 -12s-22.834 -19 -33.501 -33c0 -8.66699 0.166992 -17.334 0.5 -26.001s0.5 -16.667 0.5 -24l2 -62.5
c0.666992 -20.333 1 -40.166 1 -59.499c0 -32 -1 -64 -3 -96s-5.66699 -65.333 -11 -100c-0.666992 -4 -2 -10.167 -4 -18.5s-4.5 -16.833 -7.5 -25.5s-6.83301 -16.167 -11.5 -22.5s-10 -9.5 -16 -9.5c-12.667 0 -23.167 5.33301 -31.5 16s-15.333 24.334 -21 41.001
s-10.167 35.167 -13.5 55.5s-5.83301 40.5 -7.5 60.5s-2.66699 38.5 -3 55.5s-0.5 30.167 -0.5 39.5v10c0 44 2 88 6 132s11.667 87.333 23 130v-1c3.33301 11.333 7 21.333 11 30l11 24c7.33301 14 13.833 28.167 19.5 42.5s8.5 29.166 8.5 44.499
c0 12.667 -1.83301 23 -5.5 31s-8.5 16 -14.5 24c-3.33301 4.66699 -6.66602 9.83398 -9.99902 15.501s-6.66602 12.834 -9.99902 21.501c-10.667 28 -16.834 57.167 -18.501 87.5s-2.5 60.166 -2.5 89.499v55c0 17.333 0.666992 37 2 59s4.5 42.5 9.5 61.5s12.333 35 22 48
s22.5 19.5 38.5 19.5h3c4.66699 0 9.66699 -0.333008 15 -1s8 -3.33398 8 -8.00098c0 -16.667 -1 -33.334 -3 -50.001s-4.33301 -33.667 -7 -51s-5 -34.666 -7 -51.999s-3 -35 -3 -53v-33c0 -14.667 0.5 -29.5 1.5 -44.5s4.16699 -30.167 9.5 -45.5
c0.666992 0 2.33398 -0.166992 5.00098 -0.5s4.66699 -0.5 6 -0.5h8c7.33301 0 13.666 0.5 18.999 1.5s11.666 5.16699 18.999 12.5c-0.666992 8.66699 -1 17.334 -1 26.001v25c0 50 2.83301 97.667 8.5 143s12.834 93.333 21.501 144v7
c0 9.33301 -3.16699 16.666 -9.5 21.999s-14 9.33301 -23 12s-18.667 4.33398 -29 5.00098s-19.166 1 -26.499 1h-13c-34 0 -60.5 -8.5 -79.5 -25.5s-33 -38.5 -42 -64.5s-14.5 -54.333 -16.5 -85s-3 -60 -3 -88v-67c0 -30 1 -59.667 3 -89s7.66699 -57.666 17 -84.999
c0.666992 -1.33301 2.16699 -4.16602 4.5 -8.49902s5.5 -9.5 9.5 -15.5l17 -29.5c6 -10.333 9 -16.833 9 -19.5l-1 -4l1 1l-33 -67l-3.5 -10.5l-5 -15.5c-1.66699 -5.33301 -3.16699 -10.5 -4.5 -15.5l-3 -11.5c-12 -46 -20 -91.167 -24 -135.5s-6 -90.5 -6 -138.5zM97 1442
v-100h50v100h-50zM227 1442v-100h50v100h-50z" />
    <glyph glyph-name="afii10053" unicode="&#x404;" horiz-adv-x="352" 
d="M41 679l-0.00390625 -47.0029v-58c0 -20.667 0.166992 -41.334 0.5 -62.001s0.5 -39.667 0.5 -57v-42v-20c0 -3.33301 0.333008 -12 1 -26s1.5 -29.5 2.5 -46.5s2.16699 -33.667 3.5 -50l3 -37.5c1.33301 -19.333 3.66602 -42.333 6.99902 -69s9.16602 -52 17.499 -76
s20.5 -44.333 36.5 -61s37.333 -25 64 -25c24 0 43.833 8 59.5 24s28.167 36.333 37.5 61s16 52.167 20 82.5s6.66699 60 8 89s1.66602 55.5 0.999023 79.5s-1 42.333 -1 55v40c-8.66699 6.66699 -19 12.334 -31 17.001s-23.667 7 -35 7v-28
c0 -12.667 -0.166992 -27 -0.5 -43s-0.666016 -33 -0.999023 -51s-0.666016 -35 -0.999023 -51s-0.666016 -30.333 -0.999023 -43s-0.5 -22 -0.5 -28c0 -8 -0.166992 -19.833 -0.5 -35.5s-2 -31.834 -5 -48.501s-8 -32.167 -15 -46.5s-16.833 -24.166 -29.5 -29.499
c-8 -3.33301 -15.667 0.833984 -23 12.501s-13.666 25.667 -18.999 42s-9.5 32 -12.5 47s-4.83301 24.5 -5.5 28.5c-0.666992 5.33301 -1.66699 12.666 -3 21.999s-2.5 18.833 -3.5 28.5s-1.83301 18.334 -2.5 26.001s-1 12.167 -1 13.5v344h165v64h-165v322
c0 2 0.333008 8.16699 1 18.5s1.5 21.833 2.5 34.5s2.16699 25.334 3.5 38.001l3 29c0.666992 9.33301 1.83398 22 3.50098 38s4.83398 31.667 9.50098 47s11 28.5 19 39.5s19 16.5 33 16.5c6.66699 0 13.334 -2.16699 20.001 -6.5s12.667 -9.83301 18 -16.5
s9.5 -13.834 12.5 -21.501s4.5 -14.834 4.5 -21.501c0 -20 -1.66699 -39.833 -5 -59.5l-10.5 -59.5l-10.5 -60c-3.33301 -20 -5 -40.333 -5 -61c0 -25.333 0.333008 -48 1 -68s4 -42.333 10 -67c1.33301 0 4.66602 -0.166992 9.99902 -0.5s8.66602 -0.5 9.99902 -0.5
c7.33301 0 14.333 0.333008 21 1s13 4 19 10c-0.666992 8.66699 -1.16699 24.5 -1.5 47.5s-0.5 47.167 -0.5 72.5s0.166992 49.333 0.5 72s0.833008 38.667 1.5 48c0 2.66699 1 8.83398 3 18.501s4.33301 20.167 7 31.5s5 21.833 7 31.5s3 15.834 3 18.501
c0 1.33301 0.166992 4.66602 0.5 9.99902s0.5 9.33301 0.5 12c0 18.667 -3.5 35.5 -10.5 50.5s-16.167 27.5 -27.5 37.5s-24.666 17.667 -39.999 23s-31.333 8 -48 8c-25.333 0 -45.666 -8 -60.999 -24s-27.333 -35.5 -36 -58.5s-15 -47.167 -19 -72.5s-7 -47.333 -9 -66
c-0.666992 -7.33301 -1.66699 -17.666 -3 -30.999s-2.5 -26.833 -3.5 -40.5s-1.83301 -26.167 -2.5 -37.5s-1 -18.333 -1 -21v-38c0 -22.667 -0.166992 -49.167 -0.5 -79.5s-0.5 -61.166 -0.5 -92.499v-74z" />
    <glyph glyph-name="afii10055" unicode="&#x406;" horiz-adv-x="168" 
d="M42 30c-6 -2 -9.66699 -6.3291 -11 -12.9961s-2 -12.334 -2 -17.001h105c0 1.33301 -0.166992 3.16602 -0.5 5.49902s-0.833008 3.83301 -1.5 4.5c-0.666992 1.33301 -2.16699 4.66602 -4.5 9.99902s-4.16602 8.66602 -5.49902 9.99902v1240c8 4 12 10.667 12 20h-104
c0 -0.666992 0.166992 -2.33398 0.5 -5.00098s0.833008 -4.33398 1.5 -5.00098c0.666992 -1.33301 2.16699 -4.66602 4.5 -9.99902s4.16602 -8.66602 5.49902 -9.99902v-1230z" />
    <glyph glyph-name="afii10056" unicode="&#x407;" horiz-adv-x="239" 
d="M79 30c-6 -2 -9.66699 -6.3291 -11 -12.9961s-2 -12.334 -2 -17.001h105c0 1.33301 -0.166992 3.16602 -0.5 5.49902s-0.833008 3.83301 -1.5 4.5c-0.666992 1.33301 -2.16699 4.66602 -4.5 9.99902s-4.16602 8.66602 -5.49902 9.99902v1240c8 4 12 10.667 12 20h-104
c0 -0.666992 0.166992 -2.33398 0.5 -5.00098s0.833008 -4.33398 1.5 -5.00098c0.666992 -1.33301 2.16699 -4.66602 4.5 -9.99902s4.16602 -8.66602 5.49902 -9.99902v-1230zM25 1442v-100h50v100h-50zM155 1442v-100h50v100h-50z" />
    <glyph glyph-name="afii10062" unicode="&#x40e;" horiz-adv-x="311" 
d="M26.5 256.5c1 -29 3.49805 -58.666 7.49805 -88.999s10.5 -57.666 19.5 -81.999s21 -44.333 36 -60s34.167 -23.5 57.5 -23.5c14 0 27.333 3.83301 40 11.5s24 17.5 34 29.5s17.833 25.167 23.5 39.5s8.5 28.166 8.5 41.499l1 1133
c4 3.33301 8.16699 8.16602 12.5 14.499s6.5 12.5 6.5 18.5h-115c0 -0.666992 0.166992 -2.5 0.5 -5.5s1.16602 -4.83301 2.49902 -5.5c0.666992 -0.666992 2.33398 -2.5 5.00098 -5.5s4.66699 -4.83301 6 -5.5c1.33301 -2 3.5 -5.83301 6.5 -11.5s4.5 -9.16699 4.5 -10.5
l-1 -1045v-27c0 -12.667 -0.833008 -26.5 -2.5 -41.5s-4.83398 -29.5 -9.50098 -43.5s-11.667 -24.333 -21 -31c-13.333 6.66699 -21.666 16.167 -24.999 28.5s-6 24.833 -8 37.5c-6.66699 34.667 -11.167 67.5 -13.5 98.5s-3.66602 62.167 -3.99902 93.5
s-12.666 36.5 -36.999 15.5s-36 -46 -35 -75zM183.998 720.001c-24 0 -38.3311 3.83203 -42.998 11.499s-8.5 16.5 -11.5 26.5s-5.5 19.833 -7.5 29.5s-3.33301 17.167 -4 22.5c-5.33301 40.667 -9 79.667 -11 117s-3 74.666 -3 111.999c0 22.667 0.333008 46 1 70l2 74
c0 8 0.166992 17.167 0.5 27.5s0.5 20.5 0.5 30.5c-10.667 16.667 -21.834 29.667 -33.501 39s-27.167 14 -46.5 14c0 -9.33301 0.166992 -26.666 0.5 -51.999s0.666016 -52.166 0.999023 -80.499s0.666016 -55 0.999023 -80s0.5 -42.167 0.5 -51.5
c0 -4.66699 0.333008 -14.667 1 -30s1.5 -31.833 2.5 -49.5s2.16699 -34.5 3.5 -50.5s2.33301 -27.333 3 -34c2 -21.333 4.83301 -44.5 8.5 -69.5s9.83398 -48.167 18.501 -69.5s20 -39.5 34 -54.5s40.667 -22.5 80 -22.5zM81 1426
c0 -12.667 0.498047 -22.665 1.49805 -29.998s2.33301 -12.833 4 -16.5s3.33398 -6.33398 5.00098 -8.00098s3.16699 -2.83398 4.5 -3.50098c0.666992 -0.666992 1.5 -1.33398 2.5 -2.00098s2.16699 -1.33398 3.5 -2.00098l3 -1.5
c0.666992 -0.333008 1.33398 -0.5 2.00098 -0.5h62c0.666992 0 1.5 0.166992 2.5 0.5s2.16699 0.833008 3.5 1.5s2.5 1.33398 3.5 2.00098s1.83301 1.33398 2.5 2.00098c1.33301 0 2.83301 1 4.5 3s3.5 5.16699 5.5 9.5s3.66699 10.333 5 18s2 18.167 2 31.5
c-2 0 -3.5 -1.16699 -4.5 -3.5s-2.16699 -4.83301 -3.5 -7.5c-1.33301 -2 -2.5 -3.83301 -3.5 -5.5s-2.16699 -2.83398 -3.5 -3.50098c-0.666992 -0.666992 -1.83398 -1.33398 -3.50098 -2.00098l-5 -2c-1.66699 -0.666992 -3.16699 -1.16699 -4.5 -1.5l-2 -0.5h-4h-6
c-2 0 -4 -0.166992 -6 -0.5s-4 -0.5 -6 -0.5h-5h-5c-2 0 -4 0.166992 -6 0.5s-4 0.5 -6 0.5h-5h-5l-2 0.5c-1.33301 0.333008 -3 0.833008 -5 1.5s-3.66699 1.33398 -5 2.00098l-4 2c-0.666992 0.666992 -1.66699 1.83398 -3 3.50098s-2.66602 3.5 -3.99902 5.5
c-2 2.66699 -3.66699 5 -5 7s-3 3 -5 3v-3z" />
    <glyph glyph-name="afii10017" unicode="&#x410;" horiz-adv-x="362" 
d="M41 30c-6 -2 -9.66699 -6.33496 -11 -13.002s-2 -12.334 -2 -17.001h106c0 4.66699 -0.666992 10.334 -2 17.001s-5 11 -11 13v75v75l2.5 58.5l3 69c1 22.333 2 41.666 3 57.999l1.5 24.5l80 50h20c0.666992 -8 1.5 -22.5 2.5 -43.5s2 -43.167 3 -66.5s2 -45.5 3 -66.5
s1.5 -35.5 1.5 -43.5v-14c0 -7.33301 0.166992 -16 0.5 -26s0.5 -20.333 0.5 -31v-24v-19c0 -8.66699 -0.166992 -18.167 -0.5 -28.5s-0.5 -20.166 -0.5 -29.499v-18c-6 -2 -9.66699 -6.33301 -11 -13s-2 -12.334 -2 -17.001h106c0 4.66699 -0.666992 10.334 -2 17.001
s-5 11 -11 13l-60 1140v7c0 4.66699 -0.166992 9.5 -0.5 14.5s-0.5 9.83301 -0.5 14.5v12c0 15.333 2.16699 27.833 6.5 37.5s6.5 21.167 6.5 34.5h-184c0 -11.333 2.16699 -21.166 6.5 -29.499s6.5 -19.166 6.5 -32.499v-9c0 -4 -0.166992 -8 -0.5 -12
s-0.5 -7.66699 -0.5 -11v-6zM171 1230l19.9961 0.000976562c0.666992 -15.333 1.83398 -38.5 3.50098 -69.5l5.5 -106l6.5 -124.5c2.33301 -43.333 4.33301 -84.833 6 -124.5s3.33398 -75 5.00098 -106s2.83398 -54.167 3.50098 -69.5v-50v-50l-16 -11
c-6.66699 -4.66699 -13.834 -9.33398 -21.501 -14.001s-15.5 -8.66699 -23.5 -12s-15.333 -5 -22 -5c0 4.66699 0.166992 13.334 0.5 26.001l1 40c0.333008 14 0.666016 27.167 0.999023 39.5s0.5 21.166 0.5 26.499c0.666992 15.333 1.83398 39 3.50098 71
s3.33398 68 5.00098 108s3.66699 82.167 6 126.5l6.5 126.5l5.5 107.5c1.66699 31.667 2.83398 55.167 3.50098 70.5z" />
    <glyph glyph-name="afii10018" unicode="&#x411;" horiz-adv-x="288" 
d="M50 24c-8 -4 -12 -10.666 -12 -19.999h152c9.33301 0 18 4.16699 26 12.5s15.333 19 22 32s12.5 27.333 17.5 43s9.33301 31 13 46s6.5 28.5 8.5 40.5s3 20.667 3 26v16c0 9.33301 0.166992 20.5 0.5 33.5s0.5 26.167 0.5 39.5v31c0 33.333 -0.333008 62.5 -1 87.5
s-2.16699 47.5 -4.5 67.5s-5.83301 38.5 -10.5 55.5s-11 34.333 -19 52s-18.333 36.667 -31 57l-45 70.5c-3.33301 4.66699 -5.33301 9.33398 -6 14.001s-1.5 8.66699 -2.5 12s-3 6.16602 -6 8.49902s-8.16699 3.5 -15.5 3.5v-181c0.666992 0 2.33398 0.333008 5.00098 1
s4.33398 1.33398 5.00098 2.00098l20 20l2 0.5c1.33301 0.333008 2.33301 0.5 3 0.5c5.33301 0 9.5 -2.33301 12.5 -7s5.5 -9.83398 7.5 -15.501s3.33301 -11.334 4 -17.001s1 -9.5 1 -11.5l3 -18.5c1.33301 -8.33301 2.5 -16.666 3.5 -24.999s1.83301 -16 2.5 -23
s1 -11.5 1 -13.5v-19c0 -11.333 0.166992 -24.333 0.5 -39s0.5 -29.667 0.5 -45v-37v-28c0 -13.333 -0.166992 -27.333 -0.5 -42s-0.5 -28.667 -0.5 -42v-28c-2 -13.333 -4.5 -27.333 -7.5 -42s-7.33301 -28 -13 -40s-13.334 -22 -23.001 -30s-21.834 -12 -36.501 -12v1182
c35.333 -6.66699 64.333 -28.667 87 -66h20l-23 106l-11 12h-172c0.666992 -10.667 2.5 -17.834 5.5 -21.501s7.5 -12.167 13.5 -25.5v-1223z" />
    <glyph glyph-name="afii10019" unicode="&#x412;" horiz-adv-x="339" 
d="M61 43c-16.667 -8.66699 -25.0039 -23.3291 -25.0039 -43.9961c5.33301 0 14.833 0.166992 28.5 0.5s28.334 0.666016 44.001 0.999023s30.334 0.833008 44.001 1.5s23.167 1 28.5 1c2.66699 0 7.83398 1.33301 15.501 4s12.5 4.66699 14.5 6
c22.667 16.667 40.334 37.5 53.001 62.5s21.667 51.667 27 80s8.5 57 9.5 86s1.5 55.833 1.5 80.5c0 52 -2.5 103 -7.5 153s-16.167 99.333 -33.5 148c-0.666992 1.33301 -2 4.5 -4 9.5l-6.5 15.5l-6.5 15.5c-2 5 -3 8.16699 -3 9.5c0 11.333 2 23.166 6 35.499
s8.5 25 13.5 38s9.66699 26 14 39s6.5 25.5 6.5 37.5v19c0 12 0.166992 25.667 0.5 41s0.5 31 0.5 47v38v38c0 16 -0.166992 31.667 -0.5 47s-0.5 28.666 -0.5 39.999v20c0 10 -1.83301 25 -5.5 45s-9 40 -16 60s-16.167 37.5 -27.5 52.5s-25 22.5 -41 22.5h-153
c0 -6 3 -11.833 9 -17.5s10.667 -9.83398 14 -12.501v-1220zM130.996 1243c0.666992 0 2.16504 0.166992 4.49805 0.5s4.16602 0.5 5.49902 0.5c12.667 0 23.5 -4.5 32.5 -13.5s16.333 -19.833 22 -32.5s9.66699 -26 12 -40s3.5 -25.667 3.5 -35v-340l-1.5 -10
c-1 -6.66699 -2.66699 -13.667 -5 -21s-5 -14.166 -8 -20.499s-6.5 -9.5 -10.5 -9.5c-4.66699 0 -8.5 0.833008 -11.5 2.5s-6 3.5 -9 5.5s-6.33301 3.83301 -10 5.5s-8.5 2.5 -14.5 2.5v-145l10 -10c2 2.66699 6.83301 7.83398 14.5 15.501s12.834 12.5 15.501 14.5l2 0.5
c1.33301 0.333008 2.33301 0.5 3 0.5c4.66699 0 9.16699 -4.33301 13.5 -13s8 -18.334 11 -29.001s5.5 -20.834 7.5 -30.501s3 -15.834 3 -18.501c2.66699 -20.667 4.83398 -38.167 6.50098 -52.5s2.83398 -28.166 3.50098 -41.499s1 -27 1 -41v-51v-42
c0 -18 -0.666992 -37.667 -2 -59s-4 -42.833 -8 -64.5s-9.66699 -41.5 -17 -59.5s-17 -32.667 -29 -44s-27 -17 -45 -17v1192z" />
    <glyph glyph-name="afii10020" unicode="&#x413;" horiz-adv-x="229" 
d="M42.5 1258c4.33301 -6.66699 7.5 -11.665 9.5 -14.998v-1204c-4 -3.33301 -8.5 -8.33301 -13.5 -15s-7.5 -14.334 -7.5 -23.001h108c0 0.666992 -0.166992 2.16699 -0.5 4.5s-0.5 4.16602 -0.5 5.49902v6c-0.666992 2 -2 6.5 -4 13.5s-3.66699 12.167 -5 15.5v1193
c8.66699 -0.666992 17.167 -3.16699 25.5 -7.5s16.166 -9.66602 23.499 -15.999s14.333 -13.333 21 -21s12.667 -15.167 18 -22.5h18c0 0.666992 -0.166992 2.16699 -0.5 4.5s-0.5 4.16602 -0.5 5.49902v6c-1.33301 6.66699 -3.16602 15.167 -5.49902 25.5l-6.5 30
c-2 9.66699 -3.83301 18.167 -5.5 25.5l-2.5 11l-11 11h-172v-9c0 -4.66699 0.666992 -7.66699 2 -9c2 -3.33301 5.16699 -8.33301 9.5 -15z" />
    <glyph glyph-name="afii10021" unicode="&#x414;" horiz-adv-x="360" 
d="M307 1267c1.33301 1.33301 3.16797 4.66699 5.50098 10s3.83301 8.66602 4.5 9.99902c0.666992 0.666992 1.16699 2.33398 1.5 5.00098s0.5 4.33398 0.5 5.00098h-162c-20.667 0 -37.5 -8.5 -50.5 -25.5s-23 -37 -30 -60s-11.833 -46.333 -14.5 -70
s-4.33398 -41.834 -5.00098 -54.501v-1046c-6.66699 -2.66699 -10.667 -7.16699 -12 -13.5s-2 -14.5 -2 -24.5h277c0 4.66699 -0.5 11 -1.5 19s-4.83301 13 -11.5 15v1230zM227.002 55.001l-100.002 0.00195312v1012c0.666992 12.667 1.83398 29.167 3.50098 49.5
s5.33398 40.166 11.001 59.499s14 36.166 25 50.499s26.167 21.5 45.5 21.5c1.33301 0 3.83301 -0.166992 7.5 -0.5s6.16699 -0.5 7.5 -0.5v-1192z" />
    <glyph glyph-name="afii10022" unicode="&#x415;" horiz-adv-x="338" 
d="M39 341v-48.002c0 -29.333 1.16699 -60.833 3.5 -94.5s8.33301 -65 18 -94s24.167 -53.167 43.5 -72.5s46 -29 80 -29c22.667 0 41 6.33301 55 19s25.333 28.167 34 46.5s14.834 38.166 18.501 59.499s6.5 41 8.5 59c0.666992 6 1.66699 15.833 3 29.5s2.5 28 3.5 43
s1.83301 29 2.5 42s1 21.5 1 25.5c0 8 0.166992 22.667 0.5 44s0.666016 44 0.999023 68s0.666016 46.833 0.999023 68.5s0.5 36.5 0.5 44.5c-19.333 0 -34.833 -4 -46.5 -12s-22.834 -19 -33.501 -33c0 -8.66699 0.166992 -17.334 0.5 -26.001s0.5 -16.667 0.5 -24l2 -62.5
c0.666992 -20.333 1 -40.166 1 -59.499c0 -32 -1 -64 -3 -96s-5.66699 -65.333 -11 -100c-0.666992 -4 -2 -10.167 -4 -18.5s-4.5 -16.833 -7.5 -25.5s-6.83301 -16.167 -11.5 -22.5s-10 -9.5 -16 -9.5c-12.667 0 -23.167 5.33301 -31.5 16s-15.333 24.334 -21 41.001
s-10.167 35.167 -13.5 55.5s-5.83301 40.5 -7.5 60.5s-2.66699 38.5 -3 55.5s-0.5 30.167 -0.5 39.5v10c0 44 2 88 6 132s11.667 87.333 23 130v-1c3.33301 11.333 7 21.333 11 30l11 24c7.33301 14 13.833 28.167 19.5 42.5s8.5 29.166 8.5 44.499
c0 12.667 -1.83301 23 -5.5 31s-8.5 16 -14.5 24c-3.33301 4.66699 -6.66602 9.83398 -9.99902 15.501s-6.66602 12.834 -9.99902 21.501c-10.667 28 -16.834 57.167 -18.501 87.5s-2.5 60.166 -2.5 89.499v55c0 17.333 0.666992 37 2 59s4.5 42.5 9.5 61.5s12.333 35 22 48
s22.5 19.5 38.5 19.5h3c4.66699 0 9.66699 -0.333008 15 -1s8 -3.33398 8 -8.00098c0 -16.667 -1 -33.334 -3 -50.001s-4.33301 -33.667 -7 -51s-5 -34.666 -7 -51.999s-3 -35 -3 -53v-33c0 -14.667 0.5 -29.5 1.5 -44.5s4.16699 -30.167 9.5 -45.5
c0.666992 0 2.33398 -0.166992 5.00098 -0.5s4.66699 -0.5 6 -0.5h8c7.33301 0 13.666 0.5 18.999 1.5s11.666 5.16699 18.999 12.5c-0.666992 8.66699 -1 17.334 -1 26.001v25c0 50 2.83301 97.667 8.5 143s12.834 93.333 21.501 144v7
c0 9.33301 -3.16699 16.666 -9.5 21.999s-14 9.33301 -23 12s-18.667 4.33398 -29 5.00098s-19.166 1 -26.499 1h-13c-34 0 -60.5 -8.5 -79.5 -25.5s-33 -38.5 -42 -64.5s-14.5 -54.333 -16.5 -85s-3 -60 -3 -88v-67c0 -30 1 -59.667 3 -89s7.66699 -57.666 17 -84.999
c0.666992 -1.33301 2.16699 -4.16602 4.5 -8.49902s5.5 -9.5 9.5 -15.5l17 -29.5c6 -10.333 9 -16.833 9 -19.5l-1 -4l1 1l-33 -67l-3.5 -10.5l-5 -15.5c-1.66699 -5.33301 -3.16699 -10.5 -4.5 -15.5l-3 -11.5c-12 -46 -20 -91.167 -24 -135.5s-6 -90.5 -6 -138.5z" />
    <glyph glyph-name="afii10024" unicode="&#x416;" horiz-adv-x="520" 
d="M311 1263c1.33301 1.33301 3.16699 4.66211 5.5 9.99512s3.83301 8.66602 4.5 9.99902c0.666992 0.666992 1.16699 2.33398 1.5 5.00098s0.5 4.33398 0.5 5.00098h-104c0 -9.33301 4 -16 12 -20v-470l-90 430c-4 18 -10.833 34.333 -20.5 49s-24.5 22 -44.5 22
c-14.667 0 -22.667 -3.5 -24 -10.5s-2 -17.167 -2 -30.5c0 -2.66699 0.166992 -7.83398 0.5 -15.501s0.5 -12.5 0.5 -14.5c11.333 0 18.833 -4.66699 22.5 -14s6.16699 -18 7.5 -26l105 -494l-125 -646c-2 -3.33301 -5.5 -10 -10.5 -20s-8.16699 -16.667 -9.5 -20
c-0.666992 -0.666992 -1.16699 -2.16699 -1.5 -4.5s-0.5 -4.16602 -0.5 -5.49902h104c0 7.33301 -0.833008 14.5 -2.5 21.5s-4.83398 13.167 -9.50098 18.5l100 550v-560c-1.33301 -1.33301 -3.16602 -4.66602 -5.49902 -9.99902s-3.83301 -8.66602 -4.5 -9.99902
c-0.666992 -0.666992 -1.16699 -2.16699 -1.5 -4.5s-0.5 -4.16602 -0.5 -5.49902h105c0 4.66699 -0.666992 10.334 -2 17.001s-5 11 -11 13v1230zM311.001 592.996l100.001 -550c-4.66699 -5.33301 -7.83398 -11.5 -9.50098 -18.5s-2.5 -14.167 -2.5 -21.5h104
c0 1.33301 -0.166992 3.16602 -0.5 5.49902s-0.833008 3.83301 -1.5 4.5c-1.33301 3.33301 -4.5 10 -9.5 20s-8.5 16.667 -10.5 20l-125 646l105 494c1.33301 8 3.83301 16.667 7.5 26s11.167 14 22.5 14c0 2 0.166992 6.83301 0.5 14.5s0.5 12.834 0.5 15.501
c0 13.333 -0.666992 23.5 -2 30.5s-9.33301 10.5 -24 10.5c-20 0 -34.833 -7.33301 -44.5 -22s-16.5 -31 -20.5 -49l-90 -430v-210z" />
    <glyph glyph-name="afii10025" unicode="&#x417;" horiz-adv-x="338" 
d="M307 479.5c-4 44.333 -12 89.502 -24 135.502l-3 11.5c-1.33301 5 -2.83301 10.167 -4.5 15.5l-5 15.5l-3.5 10.5l-33 67l1 -1l-1 4c0 2.66699 3 9.16699 9 19.5l17 29.5c4 6 7.16699 11.167 9.5 15.5s3.83301 7.16602 4.5 8.49902c9.33301 27.333 15 55.666 17 84.999
s3 59 3 89v67c0 28 -1 57.333 -3 88s-7.5 59 -16.5 85s-23 47.5 -42 64.5s-45.5 25.5 -79.5 25.5h-13c-7.33301 0 -16.166 -0.333008 -26.499 -1s-20 -2.33398 -29 -5.00098s-16.667 -6.66699 -23 -12s-9.5 -12.666 -9.5 -21.999v-7
c8.66699 -50.667 15.834 -98.667 21.501 -144s8.5 -93 8.5 -143v-25c0 -8.66699 -0.333008 -17.334 -1 -26.001c7.33301 -7.33301 13.666 -11.5 18.999 -12.5s11.666 -1.5 18.999 -1.5h8c1.33301 0 3.33301 0.166992 6 0.5s4.33398 0.5 5.00098 0.5
c5.33301 15.333 8.5 30.5 9.5 45.5s1.5 29.833 1.5 44.5v33c0 18 -1 35.667 -3 53s-4.33301 34.666 -7 51.999s-5 34.333 -7 51s-3 33.334 -3 50.001c0 4.66699 2.66699 7.33398 8 8.00098s10.333 1 15 1h3c16 0 28.833 -6.5 38.5 -19.5s17 -29 22 -48
s8.16699 -39.5 9.5 -61.5s2 -41.667 2 -59v-55c0 -29.333 -0.833008 -59.166 -2.5 -89.499s-7.83398 -59.5 -18.501 -87.5c-3.33301 -8.66699 -6.66602 -15.834 -9.99902 -21.501s-6.66602 -10.834 -9.99902 -15.501c-6 -8 -10.833 -16 -14.5 -24s-5.5 -18.333 -5.5 -31
c0 -15.333 2.83301 -30.166 8.5 -44.499s12.167 -28.5 19.5 -42.5l11 -24c4 -8.66699 7.66699 -18.667 11 -30v1c11.333 -42.667 19 -86 23 -130s6 -88 6 -132v-10c0 -9.33301 -0.166992 -22.5 -0.5 -39.5s-1.33301 -35.5 -3 -55.5s-4.16699 -40.167 -7.5 -60.5
s-7.83301 -38.833 -13.5 -55.5s-12.667 -30.334 -21 -41.001s-18.833 -16 -31.5 -16c-6 0 -11.333 3.16699 -16 9.5s-8.5 13.833 -11.5 22.5s-5.5 17.167 -7.5 25.5s-3.33301 14.5 -4 18.5c-5.33301 34.667 -9 68 -11 100s-3 64 -3 96c0 19.333 0.333008 39.166 1 59.499
l2 62.5c0 7.33301 0.166992 15.333 0.5 24s0.5 17.334 0.5 26.001c-10.667 14 -21.834 25 -33.501 33s-27.167 12 -46.5 12c0 -8 0.166992 -22.833 0.5 -44.5s0.666016 -44.5 0.999023 -68.5s0.666016 -46.667 0.999023 -68s0.5 -36 0.5 -44c0 -4 0.333008 -12.5 1 -25.5
s1.5 -27 2.5 -42s2.16699 -29.333 3.5 -43s2.33301 -23.5 3 -29.5c2 -18 4.83301 -37.667 8.5 -59s9.83398 -41.166 18.501 -59.499s20 -33.833 34 -46.5s32.333 -19 55 -19c34 0 60.667 9.66699 80 29s33.833 43.5 43.5 72.5s15.667 60.333 18 94s3.5 65.167 3.5 94.5v48
c0 48 -2 94.167 -6 138.5z" />
    <glyph glyph-name="afii10026" unicode="&#x418;" horiz-adv-x="349" 
d="M302 1261c4 6 7.00098 11.332 9.00098 15.999s3 10.667 3 18c-2 0 -6 -0.166992 -12 -0.5s-12.333 -0.666016 -19 -0.999023s-13 -0.833008 -19 -1.5s-10 -1 -12 -1c-1.33301 0 -3.33301 -1.33301 -6 -4s-4 -4.66699 -4 -6l-110 -740v730c8 4 12 10.667 12 20h-104
c0 -0.666992 0.166992 -2.33398 0.5 -5.00098s0.833008 -4.33398 1.5 -5.00098l10 -10c1.33301 -2 3.33301 -5.5 6 -10.5s4 -8.16699 4 -9.5v-1200c0 -6 -1.16699 -10.667 -3.5 -14s-5 -6.66602 -8 -9.99902s-5.66699 -7 -8 -11s-3.5 -9 -3.5 -15h73l120 840v-800
c-4.66699 -5.33301 -7.83398 -11.5 -9.50098 -18.5s-2.5 -14.167 -2.5 -21.5h95c0 4.66699 -0.666992 10.334 -2 17.001s-5 11 -11 13v1230zM125.501 458.499c1 -2.33301 1.5 -4.83301 1.5 -7.5s-0.5 -5.16699 -1.5 -7.5s-2.16699 -3.16602 -3.5 -2.49902
c-3.33301 1.33301 -5 4.66602 -5 9.99902s1.66699 8.66602 5 9.99902c1.33301 0.666992 2.5 -0.166016 3.5 -2.49902z" />
    <glyph glyph-name="afii10027" unicode="&#x419;" horiz-adv-x="349" 
d="M302 1261c4 6 7.00098 11.332 9.00098 15.999s3 10.667 3 18c-2 0 -6 -0.166992 -12 -0.5s-12.333 -0.666016 -19 -0.999023s-13 -0.833008 -19 -1.5s-10 -1 -12 -1c-1.33301 0 -3.33301 -1.33301 -6 -4s-4 -4.66699 -4 -6l-110 -740v730c8 4 12 10.667 12 20h-104
c0 -0.666992 0.166992 -2.33398 0.5 -5.00098s0.833008 -4.33398 1.5 -5.00098l10 -10c1.33301 -2 3.33301 -5.5 6 -10.5s4 -8.16699 4 -9.5v-1200c0 -6 -1.16699 -10.667 -3.5 -14s-5 -6.66602 -8 -9.99902s-5.66699 -7 -8 -11s-3.5 -9 -3.5 -15h73l120 840v-800
c-4.66699 -5.33301 -7.83398 -11.5 -9.50098 -18.5s-2.5 -14.167 -2.5 -21.5h95c0 4.66699 -0.666992 10.334 -2 17.001s-5 11 -11 13v1230zM125.501 458.499c1 -2.33301 1.5 -4.83301 1.5 -7.5s-0.5 -5.16699 -1.5 -7.5s-2.16699 -3.16602 -3.5 -2.49902
c-3.33301 1.33301 -5 4.66602 -5 9.99902s1.66699 8.66602 5 9.99902c1.33301 0.666992 2.5 -0.166016 3.5 -2.49902zM123.001 1426c0 -12.667 0.498047 -22.665 1.49805 -29.998s2.33301 -12.833 4 -16.5s3.33398 -6.33398 5.00098 -8.00098s3.16699 -2.83398 4.5 -3.50098
c0.666992 -0.666992 1.5 -1.33398 2.5 -2.00098s2.16699 -1.33398 3.5 -2.00098l3 -1.5c0.666992 -0.333008 1.33398 -0.5 2.00098 -0.5h62c0.666992 0 1.5 0.166992 2.5 0.5s2.16699 0.833008 3.5 1.5s2.5 1.33398 3.5 2.00098s1.83301 1.33398 2.5 2.00098
c1.33301 0 2.83301 1 4.5 3s3.5 5.16699 5.5 9.5s3.66699 10.333 5 18s2 18.167 2 31.5c-2 0 -3.5 -1.16699 -4.5 -3.5s-2.16699 -4.83301 -3.5 -7.5c-1.33301 -2 -2.5 -3.83301 -3.5 -5.5s-2.16699 -2.83398 -3.5 -3.50098
c-0.666992 -0.666992 -1.83398 -1.33398 -3.50098 -2.00098l-5 -2c-1.66699 -0.666992 -3.16699 -1.16699 -4.5 -1.5l-2 -0.5h-4h-6c-2 0 -4 -0.166992 -6 -0.5s-4 -0.5 -6 -0.5h-5h-5c-2 0 -4 0.166992 -6 0.5s-4 0.5 -6 0.5h-5h-5l-2 0.5
c-1.33301 0.333008 -3 0.833008 -5 1.5s-3.66699 1.33398 -5 2.00098l-4 2c-0.666992 0.666992 -1.66699 1.83398 -3 3.50098s-2.66602 3.5 -3.99902 5.5c-2 2.66699 -3.66699 5 -5 7s-3 3 -5 3v-3z" />
    <glyph glyph-name="afii10028" unicode="&#x41a;" horiz-adv-x="354" 
d="M52 33c-6 -2 -9.66602 -6.3291 -10.999 -12.9961s-2 -12.334 -2 -17.001h105c0 1.33301 -0.166992 3.16602 -0.5 5.49902s-0.833008 3.83301 -1.5 4.5c-0.666992 1.33301 -2.16699 4.66602 -4.5 9.99902s-4.16602 8.66602 -5.49902 9.99902v560l100 -550
c-4.66699 -5.33301 -7.83398 -11.5 -9.50098 -18.5s-2.5 -14.167 -2.5 -21.5h104c0 1.33301 -0.166992 3.16602 -0.5 5.49902s-0.833008 3.83301 -1.5 4.5c-1.33301 3.33301 -4.5 10 -9.5 20s-8.5 16.667 -10.5 20l-125 646l105 494c1.33301 8 3.83301 16.667 7.5 26
s11.167 14 22.5 14c0 2 0.166992 6.83301 0.5 14.5s0.5 12.834 0.5 15.501c0 13.333 -0.666992 23.5 -2 30.5s-9.33301 10.5 -24 10.5c-20 0 -34.833 -7.33301 -44.5 -22s-16.5 -31 -20.5 -49l-90 -430v470c8 4 12 10.667 12 20h-104
c0 -0.666992 0.166992 -2.33398 0.5 -5.00098s0.833008 -4.33398 1.5 -5.00098c0.666992 -1.33301 2.16699 -4.66602 4.5 -9.99902s4.16602 -8.66602 5.49902 -9.99902v-1230z" />
    <glyph glyph-name="afii10029" unicode="&#x41b;" horiz-adv-x="333" 
d="M206 1247c0 6 1.33203 11.0029 3.99902 15.0029s5.5 7.66699 8.5 11s5.83301 7 8.5 11s4 9.33301 4 16h-107c0 -9.33301 2 -17 6 -23s6 -13 6 -21v-6l-80 -1120c-0.666992 -8.66699 -1.16699 -17.5 -1.5 -26.5s-1.66602 -16.833 -3.99902 -23.5
s-6.16602 -12.167 -11.499 -16.5s-13 -6.5 -23 -6.5v-47c0 -2.66699 1.83301 -4.83398 5.5 -6.50098s8 -2.83398 13 -3.50098s9.83301 -1 14.5 -1h7c16 0 29.667 4 41 12s17.666 21 18.999 39l50 690l10 10l50 -660c0 -1.33301 0.166992 -5.33301 0.5 -12
s0.5 -11.667 0.5 -15c0 -10.667 -2.16699 -19.834 -6.5 -27.501s-6.5 -16.167 -6.5 -25.5h104c0 4.66699 -1.16699 8.5 -3.5 11.5s-4.83301 5.83301 -7.5 8.5s-5.16699 5.5 -7.5 8.5s-3.5 6.83301 -3.5 11.5l-90 1180v17z" />
    <glyph glyph-name="afii10030" unicode="&#x41c;" horiz-adv-x="443" 
d="M55 81c-0.666992 -5.33301 -2.16797 -11.498 -4.50098 -18.498s-4.83301 -14 -7.5 -21s-5 -14 -7 -21s-3 -13.5 -3 -19.5h104c0 5.33301 -1.16699 10.166 -3.5 14.499s-4.83301 8.66602 -7.5 12.999s-5.16699 8.66602 -7.5 12.999s-3.5 9.5 -3.5 15.5v24
c0.666992 19.333 1.5 49.166 2.5 89.499l3.5 136.5l4 159.5l4 159.5l3.5 136c1 40 1.83301 69.667 2.5 89l80 -850c0.666992 0 1.5 -0.166992 2.5 -0.5s1.83301 -0.5 2.5 -0.5s1.66699 0.166992 3 0.5l2 0.5c1.33301 1.33301 3.33301 4.66602 6 9.99902s4 8.66602 4 9.99902
l80 860c0 -12 0.333008 -30.5 1 -55.5s1.33398 -53.333 2.00098 -85l2 -99.5l2 -99.5c0.666992 -31.667 1.33398 -60 2.00098 -85s1 -43.5 1 -55.5v-185v-185c-1.33301 -1.33301 -3.16602 -4.66602 -5.49902 -9.99902s-3.83301 -8.66602 -4.5 -9.99902
c0 -0.666992 -0.333008 -2.16699 -1 -4.5s-1 -4.16602 -1 -5.49902h95c0 4.66699 -0.666992 10.334 -2 17.001s-5 11 -11 13l-30 1220c1.33301 2 3.16602 6.83301 5.49902 14.5s3.83301 12.834 4.5 15.501c0 0.666992 0.166992 2.33398 0.5 5.00098s0.5 4.33398 0.5 5.00098
h-71l-80 -820l-83 820h-80c0 -8.66699 4.33301 -15.334 13 -20.001v-37c0 -17.333 0.166992 -35.833 0.5 -55.5s0.5 -38.5 0.5 -56.5v-36v-47c0 -19.333 -0.166992 -38.833 -0.5 -58.5s-0.5 -37.167 -0.5 -52.5v-27c-0.666992 -20.667 -1.33398 -52.334 -2.00098 -95.001
s-1.66699 -91 -3 -145l-4 -170c-1.33301 -59.333 -2.83301 -116 -4.5 -170s-3 -102.333 -4 -145s-1.83301 -74.334 -2.5 -95.001z" />
    <glyph glyph-name="afii10031" unicode="&#x41d;" horiz-adv-x="346" 
d="M53 33c-6 -2 -9.66211 -6.33301 -10.9951 -13s-2 -12.334 -2 -17.001h106c0 4.66699 -0.666992 10.334 -2 17.001s-5 11 -11 13v570c0 0.666992 1.33301 2.16699 4 4.5s4.66699 4.16602 6 5.49902c2.66699 2 7.83398 5.33301 15.501 10l24.5 15l24 15l16 10v-620
c-4.66699 -5.33301 -7.83398 -11.5 -9.50098 -18.5s-2.5 -14.167 -2.5 -21.5h94c0 7.33301 -0.833008 14.5 -2.5 21.5s-4.83398 13.167 -9.50098 18.5v1220c1.33301 1.33301 3.16602 4.66602 5.49902 9.99902s3.83301 8.66602 4.5 9.99902
c0 0.666992 0.333008 2.33398 1 5.00098s1 4.33398 1 5.00098h-94c0 -0.666992 0.333008 -2.33398 1 -5.00098s1 -4.33398 1 -5.00098c0.666992 -1.33301 2.16699 -4.66602 4.5 -9.99902s4.16602 -8.66602 5.49902 -9.99902v-510c0 -0.666992 -1.33301 -2.16699 -4 -4.5
s-4.66699 -4.16602 -6 -5.49902l-16 -10l-24 -15l-24.5 -15c-7.66699 -4.66699 -12.834 -8 -15.501 -10v580c8 4 12 10.667 12 20h-104c0 -0.666992 0.166992 -2.33398 0.5 -5.00098s0.833008 -4.33398 1.5 -5.00098c0.666992 -1.33301 2.16699 -4.66602 4.5 -9.99902
s4.16602 -8.66602 5.49902 -9.99902v-1230z" />
    <glyph glyph-name="afii10032" unicode="&#x41e;" horiz-adv-x="304" 
d="M160 1310c-30 0 -53.167 -9.00098 -69.5 -27.001s-28.166 -39.833 -35.499 -65.5s-11.5 -53 -12.5 -82s-1.5 -54.5 -1.5 -76.5v-780c0 -4 0.333008 -12 1 -24s1.5 -25 2.5 -39s2.16699 -27.333 3.5 -40s2.33301 -21.667 3 -27c2 -14 4.66699 -29.833 8 -47.5
s8.66602 -34.167 15.999 -49.5s17 -28.166 29 -38.499s27.667 -15.5 47 -15.5c24.667 0 44.167 7.5 58.5 22.5s25.333 33.5 33 55.5s12.667 45.167 15 69.5s3.5 45.5 3.5 63.5v900c0 16 -1.16699 35.5 -3.5 58.5s-7 45 -14 66s-17.167 39 -30.5 54s-31 22.5 -53 22.5z
M156 1260c3.33301 0 6.5 -2.50391 9.5 -7.50391s5.5 -10.5 7.5 -16.5l5.5 -17c1.66699 -5.33301 2.5 -8.66602 2.5 -9.99902c0.666992 -4 1.66699 -9.5 3 -16.5s2.5 -14.333 3.5 -22s1.83301 -14.5 2.5 -20.5s1 -9.66699 1 -11v-990c0 -1.33301 -0.333008 -4.5 -1 -9.5
s-1.5 -10.667 -2.5 -17s-2.16699 -12.666 -3.5 -18.999l-3 -14.5c-0.666992 -2 -1.5 -5.5 -2.5 -10.5s-2.66699 -10 -5 -15s-5.33301 -9 -9 -12s-8.16699 -3.83301 -13.5 -2.5c-4.66699 0.666992 -8.66699 3.16699 -12 7.5s-6.33301 9 -9 14s-4.66699 10.167 -6 15.5
s-2.33301 9.66602 -3 12.999l-3 24.5c-1.33301 11 -2.5 22.333 -3.5 34s-1.83301 22.334 -2.5 32.001s-1 16.167 -1 19.5v870c0 2.66699 0.333008 8.83398 1 18.501s1.5 20.334 2.5 32.001s2.16699 23.167 3.5 34.5l3 25c0.666992 2.66699 1.66699 8 3 16s3.33301 16 6 24
s6.16699 15.167 10.5 21.5s9.5 9.5 15.5 9.5z" />
    <glyph glyph-name="afii10033" unicode="&#x41f;" 
d="M38 14.5c-4 -5.66699 -6.00195 -11.168 -6.00195 -16.501h104c0 9.33301 -4 16 -12 20v1230h80v-1230c-8 -4 -12 -10.667 -12 -20h104c0 5.33301 -2 10.833 -6 16.5s-7.66699 10.167 -11 13.5v1238c9.33301 6 13.333 11.667 12 17s-4.33301 9.33301 -9 12
s-9.16699 4 -13.5 4h-102.5h-104.5c-4.33301 0 -8.66602 -1.33301 -12.999 -4s-7.16602 -6.16699 -8.49902 -10.5s1.66699 -10.166 9 -17.499v-1239c-3.33301 -3.33301 -7 -7.83301 -11 -13.5z" />
    <glyph glyph-name="afii10034" unicode="&#x420;" horiz-adv-x="294" 
d="M50 34c-6 -2 -9.66699 -6.33203 -11 -12.999s-2 -12.334 -2 -17.001h118c0 18 -8.33301 31.333 -25 40v1194c14.667 0 26.834 -4 36.501 -12s17.334 -18 23.001 -30s10 -25.333 13 -40s5.5 -28.667 7.5 -42v-28c0 -13.333 0.166992 -27.333 0.5 -42s0.5 -28.667 0.5 -42
v-28v-37c0 -15.333 -0.166992 -30.333 -0.5 -45s-0.5 -27.667 -0.5 -39v-19c0 -2 -0.333008 -6.5 -1 -13.5s-1.5 -14.667 -2.5 -23s-2.16699 -16.666 -3.5 -24.999l-3 -18.5c0 -2 -0.333008 -5.83301 -1 -11.5s-2 -11.334 -4 -17.001s-4.5 -10.834 -7.5 -15.501
s-7.16699 -7 -12.5 -7c-0.666992 0 -1.66699 0.166992 -3 0.5l-2 0.5l-20 20c-0.666992 0.666992 -2.33398 1.33398 -5.00098 2.00098s-4.33398 1 -5.00098 1v-181c7.33301 0 12.5 1.16699 15.5 3.5s5 5.16602 6 8.49902s1.83301 7.33301 2.5 12s2.66699 9.33398 6 14.001
l45 70.5c12.667 20.333 23 39.333 31 57s14.333 35 19 52s8.16699 35.5 10.5 55.5s3.83301 42.5 4.5 67.5s1 54.167 1 87.5v31c0 13.333 -0.166992 26.5 -0.5 39.5s-0.5 24.167 -0.5 33.5v16c0 5.33301 -1 14 -3 26s-4.83301 25.5 -8.5 40.5s-8 30.333 -13 46
s-10.833 30 -17.5 43s-14 23.667 -22 32s-16.667 12.5 -26 12.5h-152c0 -9.33301 4 -16 12 -20v-1240z" />
    <glyph glyph-name="afii10035" unicode="&#x421;" horiz-adv-x="352" 
d="M41 679l-0.00390625 -47.0029v-58c0 -20.667 0.166992 -41.334 0.5 -62.001s0.5 -39.667 0.5 -57v-42v-20c0 -3.33301 0.333008 -12 1 -26s1.5 -29.5 2.5 -46.5s2.16699 -33.667 3.5 -50l3 -37.5c1.33301 -19.333 3.66602 -42.333 6.99902 -69s9.16602 -52 17.499 -76
s20.5 -44.333 36.5 -61s37.333 -25 64 -25c24 0 43.833 8 59.5 24s28.167 36.333 37.5 61s16 52.167 20 82.5s6.66699 60 8 89s1.66602 55.5 0.999023 79.5s-1 42.333 -1 55v40c-8.66699 6.66699 -19 12.334 -31 17.001s-23.667 7 -35 7v-28
c0 -12.667 -0.166992 -27 -0.5 -43s-0.666016 -33 -0.999023 -51s-0.666016 -35 -0.999023 -51s-0.666016 -30.333 -0.999023 -43s-0.5 -22 -0.5 -28c0 -8 -0.166992 -19.833 -0.5 -35.5s-2 -31.834 -5 -48.501s-8 -32.167 -15 -46.5s-16.833 -24.166 -29.5 -29.499
c-8 -3.33301 -15.667 0.833984 -23 12.501s-13.666 25.667 -18.999 42s-9.5 32 -12.5 47s-4.83301 24.5 -5.5 28.5c-0.666992 5.33301 -1.66699 12.666 -3 21.999s-2.5 18.833 -3.5 28.5s-1.83301 18.334 -2.5 26.001s-1 12.167 -1 13.5v730c0 2 0.333008 8.16699 1 18.5
s1.5 21.833 2.5 34.5s2.16699 25.334 3.5 38.001l3 29c0.666992 9.33301 1.83398 22 3.50098 38s4.83398 31.667 9.50098 47s11 28.5 19 39.5s19 16.5 33 16.5c6.66699 0 13.334 -2.16699 20.001 -6.5s12.667 -9.83301 18 -16.5s9.5 -13.834 12.5 -21.501
s4.5 -14.834 4.5 -21.501c0 -20 -1.66699 -39.833 -5 -59.5l-10.5 -59.5l-10.5 -60c-3.33301 -20 -5 -40.333 -5 -61c0 -25.333 0.333008 -48 1 -68s4 -42.333 10 -67c1.33301 0 4.66602 -0.166992 9.99902 -0.5s8.66602 -0.5 9.99902 -0.5c7.33301 0 14.333 0.333008 21 1
s13 4 19 10c-0.666992 8.66699 -1.16699 24.5 -1.5 47.5s-0.5 47.167 -0.5 72.5s0.166992 49.333 0.5 72s0.833008 38.667 1.5 48c0 2.66699 1 8.83398 3 18.501s4.33301 20.167 7 31.5s5 21.833 7 31.5s3 15.834 3 18.501c0 1.33301 0.166992 4.66602 0.5 9.99902
s0.5 9.33301 0.5 12c0 18.667 -3.5 35.5 -10.5 50.5s-16.167 27.5 -27.5 37.5s-24.666 17.667 -39.999 23s-31.333 8 -48 8c-25.333 0 -45.666 -8 -60.999 -24s-27.333 -35.5 -36 -58.5s-15 -47.167 -19 -72.5s-7 -47.333 -9 -66
c-0.666992 -7.33301 -1.66699 -17.666 -3 -30.999s-2.5 -26.833 -3.5 -40.5s-1.83301 -26.167 -2.5 -37.5s-1 -18.333 -1 -21v-38c0 -22.667 -0.166992 -49.167 -0.5 -79.5s-0.5 -61.166 -0.5 -92.499v-74z" />
    <glyph glyph-name="afii10036" unicode="&#x422;" horiz-adv-x="258" 
d="M82 14c-1.33301 -2 -1.99902 -5.00195 -1.99902 -9.00195v-8h109v5c0 2 -0.333008 4 -1 6c0 1.33301 -0.666992 3.33301 -2 6h1l-4 8l-5 10v1195h11l48 -49h18v10v6c-1.33301 4.66699 -3 11.167 -5 19.5l-6 25.5l-5.5 23c-1.66699 6.66699 -2.83398 10.667 -3.50098 12
c-0.666992 2 -2.83398 4.66699 -6.50098 8s-6.16699 5 -7.5 5h-183c-0.666992 0 -2 -3.16699 -4 -9.5l-7 -23c-2.66699 -9 -5.16699 -18.167 -7.5 -27.5s-4.16602 -17 -5.49902 -23v1c-0.666992 -1.33301 -1.16699 -5.66602 -1.5 -12.999s-0.5 -12 -0.5 -14h20l48 49h11
v-1194l-5 -10.5c-2 -4.33301 -3.33301 -7.16602 -4 -8.49902z" />
    <glyph glyph-name="afii10037" unicode="&#x423;" horiz-adv-x="311" 
d="M26.5 256.5c1 -29 3.49805 -58.666 7.49805 -88.999s10.5 -57.666 19.5 -81.999s21 -44.333 36 -60s34.167 -23.5 57.5 -23.5c14 0 27.333 3.83301 40 11.5s24 17.5 34 29.5s17.833 25.167 23.5 39.5s8.5 28.166 8.5 41.499l1 1133
c4 3.33301 8.16699 8.16602 12.5 14.499s6.5 12.5 6.5 18.5h-115c0 -0.666992 0.166992 -2.5 0.5 -5.5s1.16602 -4.83301 2.49902 -5.5c0.666992 -0.666992 2.33398 -2.5 5.00098 -5.5s4.66699 -4.83301 6 -5.5c1.33301 -2 3.5 -5.83301 6.5 -11.5s4.5 -9.16699 4.5 -10.5
l-1 -1045v-27c0 -12.667 -0.833008 -26.5 -2.5 -41.5s-4.83398 -29.5 -9.50098 -43.5s-11.667 -24.333 -21 -31c-13.333 6.66699 -21.666 16.167 -24.999 28.5s-6 24.833 -8 37.5c-6.66699 34.667 -11.167 67.5 -13.5 98.5s-3.66602 62.167 -3.99902 93.5
s-12.666 36.5 -36.999 15.5s-36 -46 -35 -75zM183.998 720.001c-24 0 -38.3311 3.83203 -42.998 11.499s-8.5 16.5 -11.5 26.5s-5.5 19.833 -7.5 29.5s-3.33301 17.167 -4 22.5c-5.33301 40.667 -9 79.667 -11 117s-3 74.666 -3 111.999c0 22.667 0.333008 46 1 70l2 74
c0 8 0.166992 17.167 0.5 27.5s0.5 20.5 0.5 30.5c-10.667 16.667 -21.834 29.667 -33.501 39s-27.167 14 -46.5 14c0 -9.33301 0.166992 -26.666 0.5 -51.999s0.666016 -52.166 0.999023 -80.499s0.666016 -55 0.999023 -80s0.5 -42.167 0.5 -51.5
c0 -4.66699 0.333008 -14.667 1 -30s1.5 -31.833 2.5 -49.5s2.16699 -34.5 3.5 -50.5s2.33301 -27.333 3 -34c2 -21.333 4.83301 -44.5 8.5 -69.5s9.83398 -48.167 18.501 -69.5s20 -39.5 34 -54.5s40.667 -22.5 80 -22.5z" />
    <glyph glyph-name="afii10038" unicode="&#x424;" horiz-adv-x="448" 
d="M268 1274c8 4 12 10.666 12 19.999h-152c-9.33301 0 -18 -4.16699 -26 -12.5s-15.333 -19 -22 -32s-12.5 -27.333 -17.5 -43s-9.33301 -31 -13 -46s-6.5 -28.5 -8.5 -40.5s-3 -20.667 -3 -26v-16c0 -9.33301 -0.166992 -20.5 -0.5 -33.5s-0.5 -26.167 -0.5 -39.5v-31
c0 -33.333 0.333008 -62.5 1 -87.5s2.16699 -47.5 4.5 -67.5s5.83301 -38.5 10.5 -55.5s11 -34.333 19 -52s18.333 -36.667 31 -57l45 -70.5c3.33301 -4.66699 5.33301 -9.33398 6 -14.001s1.5 -8.66699 2.5 -12s3 -6.16602 6 -8.49902s8.16699 -3.5 15.5 -3.5v181
c-0.666992 0 -2.33398 -0.333008 -5.00098 -1s-4.33398 -1.33398 -5.00098 -2.00098l-20 -20l-2 -0.5c-1.33301 -0.333008 -2.33301 -0.5 -3 -0.5c-5.33301 0 -9.5 2.33301 -12.5 7s-5.5 9.83398 -7.5 15.501s-3.33301 11.334 -4 17.001s-1 9.5 -1 11.5l-3 18.5
c-1.33301 8.33301 -2.5 16.666 -3.5 24.999s-1.83301 16 -2.5 23s-1 11.5 -1 13.5v19c0 11.333 -0.166992 24.333 -0.5 39s-0.5 29.667 -0.5 45v37v28c0 13.333 0.166992 27.333 0.5 42s0.5 28.667 0.5 42v28c2 13.333 4.5 27.333 7.5 42s7.33301 28 13 40
s13.334 22 23.001 30s21.834 12 36.501 12v-1194c-16.667 -8.66699 -25 -22 -25 -40h118c0 4.66699 -0.666992 10.334 -2 17.001s-5 11 -11 13v1240zM268 1238c14.667 0 26.834 -4 36.501 -12s17.334 -18 23.001 -30s10 -25.333 13 -40s5.5 -28.667 7.5 -42v-28
c0 -13.333 0.166992 -27.333 0.5 -42s0.5 -28.667 0.5 -42v-28v-37c0 -15.333 -0.166992 -30.333 -0.5 -45s-0.5 -27.667 -0.5 -39v-19c0 -2 -0.333008 -6.5 -1 -13.5s-1.5 -14.667 -2.5 -23s-2.16699 -16.666 -3.5 -24.999l-3 -18.5c0 -2 -0.333008 -5.83301 -1 -11.5
s-2 -11.334 -4 -17.001s-4.5 -10.834 -7.5 -15.501s-7.16699 -7 -12.5 -7c-0.666992 0 -1.66699 0.166992 -3 0.5l-2 0.5l-20 20c-0.666992 0.666992 -2.33398 1.33398 -5.00098 2.00098s-4.33398 1 -5.00098 1v-181c7.33301 0 12.5 1.16699 15.5 3.5s5 5.16602 6 8.49902
s1.83301 7.33301 2.5 12s2.66699 9.33398 6 14.001l45 70.5c12.667 20.333 23 39.333 31 57s14.333 35 19 52s8.16699 35.5 10.5 55.5s3.83301 42.5 4.5 67.5s1 54.167 1 87.5v31c0 13.333 -0.166992 26.5 -0.5 39.5s-0.5 24.167 -0.5 33.5v16c0 5.33301 -1 14 -3 26
s-4.83301 25.5 -8.5 40.5s-8 30.333 -13 46s-10.833 30 -17.5 43s-14 23.667 -22 32s-16.667 12.5 -26 12.5h-152c0 -9.33301 4 -16 12 -20z" />
    <glyph glyph-name="afii10039" unicode="&#x425;" horiz-adv-x="363" 
d="M43 40c-4.66699 -5.33301 -7.83301 -11.499 -9.5 -18.499s-2.5 -14.167 -2.5 -21.5h107c0 6 -1.33301 10.833 -4 14.5s-5.5 6.83398 -8.5 9.50098s-5.83301 5.5 -8.5 8.5s-4 6.83301 -4 11.5v6l60 430l60 -420c0 -0.666992 0.166992 -3 0.5 -7s0.5 -7 0.5 -9
c0 -5.33301 -0.666992 -9.5 -2 -12.5s-3 -5.83301 -5 -8.5s-3.66699 -5.66699 -5 -9s-2 -8 -2 -14h106c0 12.667 -3.33301 24.167 -10 34.5s-11 22.166 -13 35.499l-93 590l93 570c1.33301 6 5.83301 9.66699 13.5 11s13.167 2 16.5 2v47c0 2.66699 -2 4.83398 -6 6.50098
s-8.5 2.83398 -13.5 3.50098s-9.83301 1 -14.5 1h-7c-10.667 0 -19.334 -2.66699 -26.001 -8s-12.334 -12 -17.001 -20s-8.16699 -16.667 -10.5 -26s-4.16602 -18.333 -5.49902 -27l-6 -36l-9 -54.5l-10.5 -64l-10.5 -64.5c-3.33301 -20.667 -6.16602 -39 -8.49902 -55
s-4.16602 -28 -5.49902 -36l-10 -30l-50 320v70c8 4 12 10.667 12 20h-103c0 -0.666992 0.166992 -2.33398 0.5 -5.00098s0.5 -4.33398 0.5 -5.00098c0.666992 -2.66699 2.16699 -7.83398 4.5 -15.501s4.16602 -12.5 5.49902 -14.5l98 -589z" />
    <glyph glyph-name="afii10040" unicode="&#x426;" 
d="M49 1269l0.00292969 -1239c-7.33301 -7.33301 -10.333 -13.166 -9 -17.499s4.16602 -7.66602 8.49902 -9.99902s8.66602 -3.66602 12.999 -3.99902s39.166 -0.5 104.499 -0.5c64 0 109.167 -16.5 135.5 -49.5s32.833 -28.667 19.5 13s-20 63.834 -20 66.501
s-7.33301 3.66699 -22 3v1238c3.33301 3.33301 7 7.83301 11 13.5s6 11.167 6 16.5h-104c0 -9.33301 4 -16 12 -20v-1230h-80v1230c8 4 12 10.667 12 20h-104c0 -5.33301 2 -10.833 6 -16.5s7.66699 -10.167 11 -13.5z" />
    <glyph glyph-name="afii10041" unicode="&#x427;" horiz-adv-x="346" 
d="M53 594c0 -8.66699 3.33691 -14.8311 10.0039 -18.498s22.667 2.16602 48 17.499c14.667 7.33301 23.334 12.166 26.001 14.499s4.66699 4.16602 6 5.49902c2.66699 2 7.83398 5.33301 15.501 10l24.5 15l24 15l16 10v-620
c-4.66699 -5.33301 -7.83398 -11.5 -9.50098 -18.5s-2.5 -14.167 -2.5 -21.5h94c0 7.33301 -0.833008 14.5 -2.5 21.5s-4.83398 13.167 -9.50098 18.5v1220c1.33301 1.33301 3.16602 4.66602 5.49902 9.99902s3.83301 8.66602 4.5 9.99902
c0 0.666992 0.333008 2.33398 1 5.00098s1 4.33398 1 5.00098h-94c0 -0.666992 0.333008 -2.33398 1 -5.00098s1 -4.33398 1 -5.00098c0.666992 -1.33301 2.16699 -4.66602 4.5 -9.99902s4.16602 -8.66602 5.49902 -9.99902v-510c0 -0.666992 -1.33301 -2.16699 -4 -4.5
s-4.66699 -4.16602 -6 -5.49902l-16 -10l-24 -15l-24.5 -15c-7.66699 -4.66699 -12.834 -8 -15.501 -10v580c8 4 12 10.667 12 20h-104c0 -0.666992 0.166992 -2.33398 0.5 -5.00098s0.833008 -4.33398 1.5 -5.00098c0.666992 -1.33301 2.16699 -4.66602 4.5 -9.99902
s4.16602 -8.66602 5.49902 -9.99902v-669z" />
    <glyph glyph-name="afii10042" unicode="&#x428;" horiz-adv-x="522" 
d="M45 41c-2 -2 -5.5 -6.8291 -10.5 -14.4961s-8.16699 -12.834 -9.5 -15.501c-0.666992 -0.666992 -1.16699 -2.16699 -1.5 -4.5s-0.5 -4.16602 -0.5 -5.49902h456c0 6.66699 -0.666992 12 -2 16s-3 7.83301 -5 11.5s-3.66699 7.66699 -5 12s-2 10.5 -2 18.5
c0 3.33301 0.166992 9.16602 0.5 17.499s0.5 13.166 0.5 14.499v1140c0 5.33301 1.66699 9 5 11s7 3.83301 11 5.5s7.66699 4 11 7s5 8.5 5 16.5c0 14.667 -4 23.5 -12 26.5s-18.667 4.5 -32 4.5c-10.667 0 -21 -3.83301 -31 -11.5s-15.667 -17.5 -17 -29.5l-1 -1187h-109
v1183v4l10 20c0 0.666992 0.333008 2.33398 1 5.00098s1 4.33398 1 5.00098h-87v-1215h-105v1125c0 1.33301 -0.166992 6.16602 -0.5 14.499s-0.5 14.166 -0.5 17.499c0 12 2.16699 22 6.5 30s6.5 17.333 6.5 28h-104c0 -4.66699 1.16699 -8.33398 3.5 -11.001
s4.83301 -5.33398 7.5 -8.00098s5.16699 -5.66699 7.5 -9s3.5 -7.33301 3.5 -12z" />
    <glyph glyph-name="afii10043" unicode="&#x429;" horiz-adv-x="542" 
d="M47 41c-2 -2 -5.5 -6.83008 -10.5 -14.4971s-8.16699 -12.834 -9.5 -15.501c-0.666992 -0.666992 -1.16699 -2.16699 -1.5 -4.5s-0.5 -4.16602 -0.5 -5.49902h436c19.333 -4 33.333 -26.833 42 -68.5s14.667 -40.834 18 2.49902c1.33301 92 -10.667 138.667 -36 140h-21
l2 1156c0 5.33301 1.66699 9 5 11s7 3.83301 11 5.5s7.66699 4 11 7s5 8.5 5 16.5c0 14.667 -4 23.5 -12 26.5s-18.667 4.5 -32 4.5c-10.667 0 -21 -3.83301 -31 -11.5s-15.667 -17.5 -17 -29.5v-1187h-110v1183v4l10 20c0 0.666992 0.333008 2.33398 1 5.00098
s1 4.33398 1 5.00098h-87v-1215h-105v1125c0 1.33301 -0.166992 6.16602 -0.5 14.499s-0.5 14.166 -0.5 17.499c0 12 2.16699 22 6.5 30s6.5 17.333 6.5 28h-104c0 -4.66699 1.16699 -8.33398 3.5 -11.001s4.83301 -5.33398 7.5 -8.00098s5.16699 -5.66699 7.5 -9
s3.5 -7.33301 3.5 -12z" />
    <glyph glyph-name="afii10044" unicode="&#x42a;" horiz-adv-x="294" 
d="M50 24c-8 -4 -12 -10.666 -12 -19.999h152c9.33301 0 18 4.16699 26 12.5s15.333 19 22 32s12.5 27.333 17.5 43s9.33301 31 13 46s6.5 28.5 8.5 40.5s3 20.667 3 26v16c0 9.33301 0.166992 20.5 0.5 33.5s0.5 26.167 0.5 39.5v31c0 33.333 -0.333008 62.5 -1 87.5
s-2.16699 47.5 -4.5 67.5s-5.83301 38.5 -10.5 55.5s-11 34.333 -19 52s-18.333 36.667 -31 57l-45 70.5c-3.33301 4.66699 -5.33301 9.33398 -6 14.001s-1.5 8.66699 -2.5 12s-3 6.16602 -6 8.49902s-8.16699 3.5 -15.5 3.5v-181c0.666992 0 2.33398 0.333008 5.00098 1
s4.33398 1.33398 5.00098 2.00098l20 20l2 0.5c1.33301 0.333008 2.33301 0.5 3 0.5c5.33301 0 9.5 -2.33301 12.5 -7s5.5 -9.83398 7.5 -15.501s3.33301 -11.334 4 -17.001s1 -9.5 1 -11.5l3 -18.5c1.33301 -8.33301 2.5 -16.666 3.5 -24.999s1.83301 -16 2.5 -23
s1 -11.5 1 -13.5v-19c0 -11.333 0.166992 -24.333 0.5 -39s0.5 -29.667 0.5 -45v-37v-28c0 -13.333 -0.166992 -27.333 -0.5 -42s-0.5 -28.667 -0.5 -42v-28c-2 -13.333 -4.5 -27.333 -7.5 -42s-7.33301 -28 -13 -40s-13.334 -22 -23.001 -30s-21.834 -12 -36.501 -12v1194
c16.667 8.66699 25 22 25 40h-155c0 -4.66699 0.666992 -10.334 2 -17.001s17.333 -11 48 -13v-1240z" />
    <glyph glyph-name="afii10045" unicode="&#x42b;" horiz-adv-x="463" 
d="M50 24c-8 -4 -12 -10.666 -12 -19.999h152c9.33301 0 18 4.16699 26 12.5s15.333 19 22 32s12.5 27.333 17.5 43s9.33301 31 13 46s6.5 28.5 8.5 40.5s3 20.667 3 26v16c0 9.33301 0.166992 20.5 0.5 33.5s0.5 26.167 0.5 39.5v31c0 33.333 -0.333008 62.5 -1 87.5
s-2.16699 47.5 -4.5 67.5s-5.83301 38.5 -10.5 55.5s-11 34.333 -19 52s-18.333 36.667 -31 57l-45 70.5c-3.33301 4.66699 -5.33301 9.33398 -6 14.001s-1.5 8.66699 -2.5 12s-3 6.16602 -6 8.49902s-8.16699 3.5 -15.5 3.5v-181c0.666992 0 2.33398 0.333008 5.00098 1
s4.33398 1.33398 5.00098 2.00098l20 20l2 0.5c1.33301 0.333008 2.33301 0.5 3 0.5c5.33301 0 9.5 -2.33301 12.5 -7s5.5 -9.83398 7.5 -15.501s3.33301 -11.334 4 -17.001s1 -9.5 1 -11.5l3 -18.5c1.33301 -8.33301 2.5 -16.666 3.5 -24.999s1.83301 -16 2.5 -23
s1 -11.5 1 -13.5v-19c0 -11.333 0.166992 -24.333 0.5 -39s0.5 -29.667 0.5 -45v-37v-28c0 -13.333 -0.166992 -27.333 -0.5 -42s-0.5 -28.667 -0.5 -42v-28c-2 -13.333 -4.5 -27.333 -7.5 -42s-7.33301 -28 -13 -40s-13.334 -22 -23.001 -30s-21.834 -12 -36.501 -12v1194
c16.667 8.66699 25 22 25 40h-118c0 -4.66699 0.666992 -10.334 2 -17.001s5 -11 11 -13v-1240zM366 30.001c-6 -2 -9.66699 -6.3291 -11 -12.9961s-2 -12.334 -2 -17.001h105c0 1.33301 -0.166992 3.16602 -0.5 5.49902s-0.833008 3.83301 -1.5 4.5
c-0.666992 1.33301 -2.16699 4.66602 -4.5 9.99902s-4.16602 8.66602 -5.49902 9.99902v1240c8 4 12 10.667 12 20h-104c0 -0.666992 0.166992 -2.33398 0.5 -5.00098s0.833008 -4.33398 1.5 -5.00098c0.666992 -1.33301 2.16699 -4.66602 4.5 -9.99902
s4.16602 -8.66602 5.49902 -9.99902v-1230z" />
    <glyph glyph-name="afii10046" unicode="&#x42c;" horiz-adv-x="294" 
d="M50 24c-8 -4 -12 -10.666 -12 -19.999h152c9.33301 0 18 4.16699 26 12.5s15.333 19 22 32s12.5 27.333 17.5 43s9.33301 31 13 46s6.5 28.5 8.5 40.5s3 20.667 3 26v16c0 9.33301 0.166992 20.5 0.5 33.5s0.5 26.167 0.5 39.5v31c0 33.333 -0.333008 62.5 -1 87.5
s-2.16699 47.5 -4.5 67.5s-5.83301 38.5 -10.5 55.5s-11 34.333 -19 52s-18.333 36.667 -31 57l-45 70.5c-3.33301 4.66699 -5.33301 9.33398 -6 14.001s-1.5 8.66699 -2.5 12s-3 6.16602 -6 8.49902s-8.16699 3.5 -15.5 3.5v-181c0.666992 0 2.33398 0.333008 5.00098 1
s4.33398 1.33398 5.00098 2.00098l20 20l2 0.5c1.33301 0.333008 2.33301 0.5 3 0.5c5.33301 0 9.5 -2.33301 12.5 -7s5.5 -9.83398 7.5 -15.501s3.33301 -11.334 4 -17.001s1 -9.5 1 -11.5l3 -18.5c1.33301 -8.33301 2.5 -16.666 3.5 -24.999s1.83301 -16 2.5 -23
s1 -11.5 1 -13.5v-19c0 -11.333 0.166992 -24.333 0.5 -39s0.5 -29.667 0.5 -45v-37v-28c0 -13.333 -0.166992 -27.333 -0.5 -42s-0.5 -28.667 -0.5 -42v-28c-2 -13.333 -4.5 -27.333 -7.5 -42s-7.33301 -28 -13 -40s-13.334 -22 -23.001 -30s-21.834 -12 -36.501 -12v1194
c16.667 8.66699 25 22 25 40h-118c0 -4.66699 0.666992 -10.334 2 -17.001s5 -11 11 -13v-1240z" />
    <glyph glyph-name="afii10047" unicode="&#x42d;" horiz-adv-x="352" 
d="M304 753c0 31.333 -0.170898 62.1689 -0.503906 92.502s-0.5 56.833 -0.5 79.5v38c0 2.66699 -0.333008 9.66699 -1 21s-1.5 23.833 -2.5 37.5s-2.16699 27.167 -3.5 40.5s-2.33301 23.666 -3 30.999c-2 18.667 -5 40.667 -9 66s-10.333 49.5 -19 72.5
s-20.667 42.5 -36 58.5s-35.666 24 -60.999 24c-16.667 0 -32.667 -2.66699 -48 -8s-28.666 -13 -39.999 -23s-20.5 -22.5 -27.5 -37.5s-10.5 -31.833 -10.5 -50.5c0 -2.66699 0.166992 -6.66699 0.5 -12s0.5 -8.66602 0.5 -9.99902c0 -2.66699 1 -8.83398 3 -18.501
s4.33301 -20.167 7 -31.5s5 -21.833 7 -31.5s3 -15.834 3 -18.501c0.666992 -9.33301 1.16699 -25.333 1.5 -48s0.5 -46.667 0.5 -72s-0.166992 -49.5 -0.5 -72.5s-0.833008 -38.833 -1.5 -47.5c6 -6 12.333 -9.33301 19 -10s13.667 -1 21 -1
c1.33301 0 4.66602 0.166992 9.99902 0.5s8.66602 0.5 9.99902 0.5c6 24.667 9.33301 47 10 67s1 42.667 1 68c0 20.667 -1.66699 41 -5 61l-10.5 60l-10.5 59.5c-3.33301 19.667 -5 39.5 -5 59.5c0 6.66699 1.5 13.834 4.5 21.501s7.16699 14.834 12.5 21.501
s11.333 12.167 18 16.5s13.334 6.5 20.001 6.5c14 0 25 -5.5 33 -16.5s14.333 -24.167 19 -39.5s7.83398 -31 9.50098 -47s2.83398 -28.667 3.50098 -38l3 -29c1.33301 -12.667 2.5 -25.334 3.5 -38.001s1.83301 -24.167 2.5 -34.5s1 -16.5 1 -18.5v-322h-165v-64h165v-344
c0 -1.33301 -0.333008 -5.83301 -1 -13.5s-1.5 -16.334 -2.5 -26.001s-2.16699 -19.167 -3.5 -28.5s-2.33301 -16.666 -3 -21.999c-0.666992 -4 -2.5 -13.5 -5.5 -28.5s-7.16699 -30.667 -12.5 -47s-11.666 -30.333 -18.999 -42s-15 -15.834 -23 -12.501
c-12.667 5.33301 -22.5 15.166 -29.5 29.499s-12 29.833 -15 46.5s-4.66699 32.834 -5 48.501s-0.5 27.5 -0.5 35.5c0 6 -0.166992 15.333 -0.5 28s-0.666016 27 -0.999023 43s-0.666016 33 -0.999023 51s-0.666016 35 -0.999023 51s-0.5 30.333 -0.5 43v28
c-11.333 0 -23 -2.33301 -35 -7s-22.333 -10.334 -31 -17.001v-40c0 -12.667 -0.333008 -31 -1 -55s-0.333984 -50.5 0.999023 -79.5s4 -58.667 8 -89s10.667 -57.833 20 -82.5s21.833 -45 37.5 -61s35.5 -24 59.5 -24c26.667 0 48 8.33301 64 25s28.167 37 36.5 61
s14.166 49.333 17.499 76s5.66602 49.667 6.99902 69l3 37.5c1.33301 16.333 2.5 33 3.5 50s1.83301 32.5 2.5 46.5s1 22.667 1 26v20v42c0 17.333 0.166992 36.333 0.5 57s0.5 41.334 0.5 62.001v58v47v74z" />
    <glyph glyph-name="afii10048" unicode="&#x42e;" horiz-adv-x="448" 
d="M42 30c-6 -2 -9.66699 -6.3291 -11 -12.9961s-2 -12.334 -2 -17.001h105c0 1.33301 -0.166992 3.16602 -0.5 5.49902s-0.833008 3.83301 -1.5 4.5c-0.666992 1.33301 -2.16699 4.66602 -4.5 9.99902s-4.16602 8.66602 -5.49902 9.99902v1240c8 4 12 10.667 12 20h-104
c0 -0.666992 0.166992 -2.33398 0.5 -5.00098s0.833008 -4.33398 1.5 -5.00098c0.666992 -1.33301 2.16699 -4.66602 4.5 -9.99902s4.16602 -8.66602 5.49902 -9.99902v-1230zM315 1289c-30 0 -53.167 -8.83691 -69.5 -26.5039s-28.166 -39.167 -35.499 -64.5
s-11.5 -52.166 -12.5 -80.499s-1.5 -53.5 -1.5 -75.5v-358h-74v-72h74v-336c0 -4 0.333008 -11.833 1 -23.5s1.5 -24.334 2.5 -38.001s2.16699 -26.834 3.5 -39.501s2.33301 -21.667 3 -27c2 -13.333 4.66699 -28.666 8 -45.999s8.66602 -33.666 15.999 -48.999
s17 -28 29 -38s27.667 -15 47 -15c24.667 0 44.167 7.33301 58.5 22s25.333 32.834 33 54.501s12.667 44.5 15 68.5s3.5 44.667 3.5 62v885c0 15.333 -1.16699 34.333 -3.5 57s-7 44.334 -14 65.001s-17.167 38.334 -30.5 53.001s-31 22 -53 22zM311 1240
c3.33301 0 6.5 -2.49902 9.5 -7.49902s5.5 -10.5 7.5 -16.5l5.5 -16.5c1.66699 -5 2.5 -8.16699 2.5 -9.5c0.666992 -4 1.66699 -9.5 3 -16.5s2.5 -14.167 3.5 -21.5s1.83301 -14 2.5 -20s1 -9.66699 1 -11v-973c0 -1.33301 -0.333008 -4.33301 -1 -9
s-1.5 -10.167 -2.5 -16.5s-2.16699 -12.666 -3.5 -18.999l-3 -14.5c-0.666992 -2 -1.5 -5.33301 -2.5 -10s-2.66699 -9.5 -5 -14.5s-5.33301 -9 -9 -12s-8.16699 -3.83301 -13.5 -2.5c-4.66699 0.666992 -8.66699 3.16699 -12 7.5s-6.33301 9 -9 14s-4.66699 10 -6 15
s-2.33301 9.16699 -3 12.5l-3 24.5c-1.33301 11 -2.5 22.167 -3.5 33.5s-1.83301 21.666 -2.5 30.999s-1 15.666 -1 18.999v855c0 2.66699 0.333008 8.66699 1 18s1.5 19.833 2.5 31.5s2.16699 23 3.5 34l3 24.5c0.666992 2.66699 1.66699 8 3 16s3.33301 15.833 6 23.5
s6.16699 14.667 10.5 21s9.5 9.5 15.5 9.5z" />
    <glyph glyph-name="afii10049" unicode="&#x42f;" 
d="M290 1258c1.33301 1.33301 3.16602 4.66504 5.49902 9.99805s3.83301 8.66602 4.5 9.99902c0.666992 0.666992 1.16699 2.33398 1.5 5.00098s0.5 4.33398 0.5 5.00098h-142c-16 0 -29.667 -7.16699 -41 -21.5s-20.666 -32.5 -27.999 -54.5s-13.166 -46.167 -17.499 -72.5
s-7.5 -51.5 -9.5 -75.5s-3.16699 -45.167 -3.5 -63.5s-0.5 -30.5 -0.5 -36.5c0 -32.667 0.666992 -65.5 2 -98.5s4 -65.5 8 -97.5c1.33301 -9.33301 4 -20.166 8 -32.499s8.5 -25.166 13.5 -38.499s9.33301 -26.333 13 -39s5.5 -23.667 5.5 -33v-17l-50 -550
c-0.666992 -7.33301 -2.33398 -13.333 -5.00098 -18s-5.33398 -9 -8.00098 -13s-5.16699 -8.16699 -7.5 -12.5s-3.5 -9.83301 -3.5 -16.5h83l51 570c4 -1.33301 7.16699 -4.5 9.5 -9.5s4.33301 -10.167 6 -15.5s2.83398 -10.5 3.50098 -15.5s1 -8.16699 1 -9.5h10v204
c-5.33301 0 -9.16602 -1.83301 -11.499 -5.5s-4.33301 -7.66699 -6 -12s-3.66699 -8.33301 -6 -12s-6.16602 -5.5 -11.499 -5.5c-6.66699 0 -12.334 5.5 -17.001 16.5s-8.33398 25.167 -11.001 42.5s-4.5 36.333 -5.5 57s-1.66699 41 -2 61s-0.5 38 -0.5 54v36
c0 10.667 -0.333008 25.167 -1 43.5s-0.666992 37.666 0 57.999s2.16699 41 4.5 62s6.5 40 12.5 57s14.167 30.833 24.5 41.5s23.833 16 40.5 16v-1204c-6 -2 -9.66699 -6.33301 -11 -13s-2 -12.334 -2 -17.001h106c0 4.66699 -0.666992 10.334 -2 17.001s-5 11 -11 13v1230
z" />
    <glyph glyph-name="afii10065" unicode="&#x430;" horiz-adv-x="322" 
d="M185 113c0 -3.33301 0.501953 -9.33398 1.50195 -18.001s2 -17.834 3 -27.501s2 -18.667 3 -27s1.83301 -14.166 2.5 -17.499c1.33301 -4.66699 4.33301 -11 9 -19s10 -12 16 -12c4.66699 0 10.834 2.16699 18.501 6.5s15 9.83301 22 16.5s13 13.334 18 20.001
s7.5 12.667 7.5 18c0 4 -1.83301 7.83301 -5.5 11.5l-13 13c-5 5 -9.66699 11.167 -14 18.5s-7.16602 16.333 -8.49902 27l-3 31c-1.33301 14 -2.5 28.5 -3.5 43.5s-1.83301 28.667 -2.5 41s-1 20.5 -1 24.5l1 722c-5.33301 0 -9.16602 -1 -11.499 -3
s-5.16602 -5 -8.49902 -9l-18 -23.5l-22.5 -28.5c-7.66699 -9.33301 -14.334 -17.833 -20.001 -25.5s-8.83398 -11.834 -9.50098 -12.501c-25.333 -39.333 -44.833 -79.333 -58.5 -120s-23.834 -82.167 -30.501 -124.5s-10.5 -85.166 -11.5 -128.499s-1.5 -87.333 -1.5 -132
v-41c0 -16.667 0.166992 -33.167 0.5 -49.5s0.5 -30.833 0.5 -43.5v-21c0 -1.33301 0.333008 -5.83301 1 -13.5s1.5 -16.334 2.5 -26.001s2.16699 -19.167 3.5 -28.5s2.33301 -16.666 3 -21.999c0.666992 -6 1.66699 -16.167 3 -30.5s3.66602 -29 6.99902 -44
s8.16602 -28.167 14.499 -39.5s15.166 -17 26.499 -17c9.33301 0 16.333 2.5 21 7.5s10.667 12.833 18 23.5c2 2.66699 4.83301 7.66699 8.5 15l12 24l12 24.5c3.66699 7.66699 6.16699 13.167 7.5 16.5zM95.002 383.999v19.001c0.666992 9.33301 2 25.5 4 48.5
s4 47.333 6 73s4 49.667 6 72s3.33301 37.833 4 46.5c4 41.333 9.83301 79.333 17.5 114s22.167 70 43.5 106l-1 -680c0 -2.66699 -0.666992 -9 -2 -19s-3.33301 -20.333 -6 -31s-6.16699 -20.167 -10.5 -28.5s-9.83301 -12.5 -16.5 -12.5c-3.33301 0 -6.5 2.5 -9.5 7.5
s-5.5 10.5 -7.5 16.5l-5.5 17c-1.66699 5.33301 -2.5 8.66602 -2.5 9.99902c-8.66699 40 -14.167 80.167 -16.5 120.5s-3.5 80.5 -3.5 120.5z" />
    <glyph glyph-name="afii10066" unicode="&#x431;" horiz-adv-x="284" 
d="M210 122c-9.33301 -12 -19.666 -24 -30.999 -36l-37 -38c-37.333 -32 -65.666 -48 -84.999 -48c-0.666992 0 -2.33398 0.166992 -5.00098 0.5s-5.33398 1.83301 -8.00098 4.5l-3 996h197v-182c-14 -1.33301 -24.167 23.167 -30.5 73.5s-37.166 73.5 -92.499 69.5v-328
c3.33301 5.33301 6.66602 11.833 9.99902 19.5s7 15.667 11 24l12 25c4 8.33301 8.66699 15.5 14 21.5c24 30.667 44.667 46 62 46c16 0 24 -2.33301 24 -7l2 -580c0 -4.66699 -13.333 -25 -40 -61zM183 585c0 12.667 -1.00195 25.832 -3.00195 39.499
s-4.66699 27.5 -8 41.5c-18 -7.33301 -32 -29 -42 -65c-2 -6 -3.5 -13.5 -4.5 -22.5s-1.83301 -17.833 -2.5 -26.5l-2 -26.5c-0.666992 -9 -1 -16.833 -1 -23.5c-1.33301 -30.667 -3 -72.334 -5 -125.001s-3.66699 -117 -5 -193v-40v-4
c0 -1.33301 -0.333008 -3.66602 -1 -6.99902c-0.666992 -5.33301 -0.666992 -9.33301 0 -12c0 -12 4.33301 -20.333 13 -25c17.333 7.33301 32.333 23.666 45 48.999c11.333 23.333 17 44.333 17 63c0.666992 19.333 1.16699 43.833 1.5 73.5s0.5 64.834 0.5 105.501
c0 4 -0.166992 10.5 -0.5 19.5s-0.666016 19.167 -0.999023 30.5s-0.666016 23.333 -0.999023 36s-0.5 25.334 -0.5 38.001v74z" />
    <glyph glyph-name="afii10067" unicode="&#x432;" horiz-adv-x="289" 
d="M56 32c-13.333 -6.66699 -19.998 -17.6689 -19.998 -33.002c4 0 11.667 0.166992 23 0.5s23.333 0.666016 36 0.999023s24.5 0.666016 35.5 0.999023s18.833 0.5 23.5 0.5c2 0 6.16699 1 12.5 3s10.166 3.66699 11.499 5c18.667 12.667 33.167 28.334 43.5 47.001
s17.666 38.834 21.999 60.501s6.83301 43.5 7.5 65.5s1 42.333 1 61c0 39.333 -2 77.833 -6 115.5s-13 75.167 -27 112.5c-0.666992 0.666992 -1.83398 2.83398 -3.50098 6.50098l-5.5 12l-5.5 12c-1.66699 3.66699 -2.5 5.83398 -2.5 6.50098
c0 8.66699 1.66699 17.667 5 27s7 19 11 29l11.5 29.5c3.66699 9.66699 5.5 19.167 5.5 28.5v14c0 9.33301 0.166992 19.833 0.5 31.5s0.5 23.5 0.5 35.5v29v29c0 12 -0.166992 23.833 -0.5 35.5s-0.5 21.834 -0.5 30.501v15c0 7.33301 -1.5 18.5 -4.5 33.5
s-7.33301 30.167 -13 45.5s-13.167 28.666 -22.5 39.999s-20.333 17 -33 17h-124c0 -4.66699 2.33301 -9.16699 7 -13.5s8.33398 -7.5 11.001 -9.5v-924zM113.002 940.998c0.666992 0 2 0.166992 4 0.5s3.33301 0.5 4 0.5c10.667 0 19.667 -3.5 27 -10.5
s13.166 -15.167 17.499 -24.5s7.5 -19.333 9.5 -30s3 -19.667 3 -27v-257l-1 -7.5c-0.666992 -5 -2 -10.333 -4 -16s-4.16699 -10.834 -6.5 -15.501s-5.16602 -7 -8.49902 -7c-4 0 -7.16699 0.5 -9.5 1.5s-4.66602 2.33301 -6.99902 4s-5 3.16699 -8 4.5s-7.16699 2 -12.5 2
v-110l8 -8l12 12c6 6 10.333 9.66699 13 11l1.5 0.5c1 0.333008 1.83301 0.5 2.5 0.5c3.33301 0 6.83301 -3.33301 10.5 -10s6.66699 -14 9 -22s4.33301 -15.667 6 -23s2.5 -12 2.5 -14c2 -16 3.83301 -29.333 5.5 -40s2.66699 -21 3 -31s0.5 -20.333 0.5 -31v-39v-32
c0 -13.333 -0.5 -28.166 -1.5 -44.499s-3.16699 -32.666 -6.5 -48.999s-8 -31.333 -14 -45s-13.833 -24.834 -23.5 -33.501s-21.834 -13 -36.501 -13v903z" />
    <glyph glyph-name="afii10068" unicode="&#x433;" horiz-adv-x="217" 
d="M38 36l0.993164 0.996094c-7.33301 -2.66699 -11.666 -8.5 -12.999 -17.5s-2 -16.5 -2 -22.5h119c0 14.667 -2.83301 25.5 -8.5 32.5s-13.167 12.5 -22.5 16.5v821c0 6 1.33301 12 4 18s6.33398 11.833 11.001 17.5s9.83398 10.834 15.501 15.501
s11.167 8.33398 16.5 11.001v-2c0 -11.333 -1.16699 -24.5 -3.5 -39.5s-4.83301 -29.833 -7.5 -44.5c-0.666992 -5.33301 -1.66699 -11.666 -3 -18.999s-2.5 -13.5 -3.5 -18.5s-1.5 -7.83301 -1.5 -8.5v-10c0 -2 0.5 -5.5 1.5 -10.5l3 -15.5l3 -15.5
c1 -5 1.83301 -8.5 2.5 -10.5c0.666992 -1.33301 2 -2.16602 4 -2.49902s3.66699 -0.5 5 -0.5c4.66699 0 9.33398 9 14.001 27s8.83398 38.667 12.501 62s6.66699 45.833 9 67.5s3.5 36.167 3.5 43.5c0 1.33301 -0.166992 3.5 -0.5 6.5s-0.5 6.5 -0.5 10.5v20
c0 7.33301 -8.5 11.166 -25.5 11.499s-41.167 0.5 -72.5 0.5h-66c0 -2.66699 0.333008 -7.5 1 -14.5s1.33398 -11.167 2.00098 -12.5v1c0.666992 -0.666992 1.83398 -2.16699 3.50098 -4.5s3.16699 -4.16602 4.5 -5.49902l1 -1v-902z" />
    <glyph glyph-name="afii10069" unicode="&#x434;" horiz-adv-x="360" 
d="M307 976c1.33301 0.666992 3.16797 3.16895 5.50098 7.50195s3.83301 6.83301 4.5 7.5s1.16699 2 1.5 4s0.5 3.33301 0.5 4h-162c-20.667 0 -37.5 -6.5 -50.5 -19.5s-23 -28.333 -30 -46s-11.833 -35.667 -14.5 -54s-4.33398 -32.5 -5.00098 -42.5v-805
c-6.66699 -2 -10.667 -5.33301 -12 -10s-2 -11 -2 -19h277c0 3.33301 -0.5 8.16602 -1.5 14.499s-4.83301 10.166 -11.5 11.499v947zM227.002 43.002l-100.002 -0.000976562v779c0.666992 10 1.83398 22.833 3.50098 38.5s5.33398 30.834 11.001 45.501s14 27.5 25 38.5
s26.167 16.5 45.5 16.5h7.5h7.5v-918z" />
    <glyph glyph-name="afii10070" unicode="&#x435;" horiz-adv-x="281" 
d="M89 570l0.00195312 -6.99414v-1c-0.666992 -2 -1.66699 -4.5 -3 -7.5s-2.66602 -6.83301 -3.99902 -11.5v1c-2.66699 -8.66699 -6.33398 -18.167 -11.001 -28.5l-14 -31.5c-4.66699 -10.667 -8.66699 -20.834 -12 -30.501s-5 -17.834 -5 -24.501v-337
c0 -12 3.66699 -23.5 11 -34.5s16.333 -20.833 27 -29.5s22 -15.5 34 -20.5s23 -7.5 33 -7.5c18 0 33 4.16699 45 12.5s21.667 19.166 29 32.499s12.666 28 15.999 44s5.33301 32 6 48c0 4 0.5 15.5 1.5 34.5s2 40.667 3 65l3 72c1 23.667 1.83301 42.167 2.5 55.5
c0 2 0.166992 5.83301 0.5 11.5s0.5 11.834 0.5 18.501v31c-5.33301 0 -11.5 -0.166992 -18.5 -0.5s-13.667 -1.5 -20 -3.5s-12.333 -5 -18 -9s-9.5 -9.33301 -11.5 -16c0 -6.66699 -0.166992 -17.167 -0.5 -31.5s-0.666016 -30.333 -0.999023 -48
s-0.833008 -36.334 -1.5 -56.001s-1.33398 -38.334 -2.00098 -56.001s-1.33398 -33.334 -2.00098 -47.001s-1.33398 -23.834 -2.00098 -30.501v-3c0 -4 -0.5 -9.5 -1.5 -16.5s-2.33301 -14 -4 -21s-4 -13 -7 -18s-6.83301 -7.5 -11.5 -7.5c-8 0 -14.667 3.33301 -20 10
s-9.66602 14.667 -12.999 24s-5.83301 18.833 -7.5 28.5s-2.5 17.5 -2.5 23.5v16v24c0 9.33301 -0.166992 18.833 -0.5 28.5s-0.5 18.834 -0.5 27.501v22v48c0 6.66699 -0.166992 13 -0.5 19s-0.5 11.667 -0.5 17c0 14 0.666992 27.833 2 41.5s4.66602 31.167 9.99902 52.5
c1.33301 6.66699 3.83301 14.334 7.5 23.001l10.5 26c5.33301 12 10.166 24.167 14.499 36.5s6.5 25.5 6.5 39.5c0 1.33301 -0.166992 3.16602 -0.5 5.49902s-0.5 4.16602 -0.5 5.49902v5c-0.666992 1.33301 -1.83398 4.16602 -3.50098 8.49902
s-3.83398 9.33301 -6.50098 15s-5.16699 11.5 -7.5 17.5s-4.5 11.333 -6.5 16l-2 5c-1.33301 3.33301 -2.66602 6 -3.99902 8h1c-4.66699 14 -7.66699 26.833 -9 38.5s-2 24.167 -2 37.5v23c0 4.66699 0.166992 9.66699 0.5 15s0.5 11 0.5 17c0 3.33301 -0.166992 7 -0.5 11
s-0.5 8 -0.5 12c0 5.33301 -0.166992 10.5 -0.5 15.5s-0.5 10.167 -0.5 15.5c0 11.333 0.5 22.833 1.5 34.5s3.16699 22.334 6.5 32.001s8.33301 17.667 15 24s15.667 10.166 27 11.499v-235h43c0.666992 0 2.33398 9.5 5.00098 28.5l9.5 68.5
c3.66699 26.667 7.16699 54.5 10.5 83.5s6 53.167 8 72.5v12c0 8.66699 -2.33301 15.334 -7 20.001s-10.167 8.16699 -16.5 10.5s-13.166 3.66602 -20.499 3.99902s-13.666 0.5 -18.999 0.5h-3c-12.667 0 -26.667 -2 -42 -6s-29.5 -10.167 -42.5 -18.5
s-24 -18.666 -33 -30.999s-13.5 -26.5 -13.5 -42.5v-259c0 -0.666992 1.16699 -2.16699 3.5 -4.5l8 -8l9 -9c3 -3 4.83301 -5.5 5.5 -7.5zM132.002 643.006v-2v2z" />
    <glyph glyph-name="afii10072" unicode="&#x436;" horiz-adv-x="439" 
d="M150 389c2.66699 -1.33301 5.99609 -2.83691 9.99609 -4.50391l11.5 -5c3.66699 -1.66699 6.83398 -3.16699 9.50098 -4.5l4 -2v-376c0 -0.666992 2 -2 6 -4s7 -3 9 -3s6 -0.333008 12 -1s12.5 -1.16699 19.5 -1.5s13.5 -0.666016 19.5 -0.999023s10 -0.5 12 -0.5
c0 4 -0.5 9 -1.5 15s-4.83301 10 -11.5 12l-1 927c10.667 -2 17 -0.5 19 4.5s3 9.83301 3 14.5c0 9.33301 -3.33301 16.5 -10 21.5s-14.667 8.83301 -24 11.5s-19.333 3 -30 1s-20 -7 -28 -15l1 -533c-11.333 0 -22.166 4.66699 -32.499 14s-19.5 20.333 -27.5 33
s-14.333 25.667 -19 39s-7 24 -7 32v416c0 4 -3.16699 7.33301 -9.5 10s-13.333 4.83398 -21 6.50098s-15 2.66699 -22 3s-11.167 0.5 -12.5 0.5v-467c0 -0.666992 1.33301 -4 4 -10s4.66699 -10.333 6 -13c0.666992 -1.33301 2 -5.66602 4 -12.999l6.5 -24l6.5 -24
c2 -7.33301 3.33301 -11.333 4 -12v-4v-4c-0.666992 -1.33301 -2.5 -3.5 -5.5 -6.5l-9 -9c-3 -3 -6 -6.16699 -9 -9.5s-5.16699 -5.33301 -6.5 -6v-337c0 -5.33301 1.5 -12 4.5 -20s6.66699 -15.833 11 -23.5s8.83301 -14.667 13.5 -21s8.33398 -11 11.001 -14
s6.66699 -6.66699 12 -11l16 -13c5.33301 -4.33301 10.166 -8 14.499 -11s6.83301 -4.5 7.5 -4.5h24c0 10 -2.33301 19.167 -7 27.5s-9.66699 16.333 -15 24s-10.333 15.834 -15 24.501s-7 17.334 -7 26.001v298c0 5.33301 0.833008 10.666 2.5 15.999
s4.33398 10.333 8.00098 15s8.33398 8.5 14.001 11.5s12.5 4.5 20.5 4.5h5zM289.996 388.996c8 0 14.8291 -1.33301 20.4961 -4s10.334 -6.33398 14.001 -11.001s6.33398 -9.83398 8.00098 -15.501s2.5 -11.167 2.5 -16.5v-298c0 -8.66699 -2.33301 -17.167 -7 -25.5
s-9.66699 -16.5 -15 -24.5s-10.333 -16.167 -15 -24.5s-7 -17.166 -7 -26.499h24c0.666992 0 3.16699 1.5 7.5 4.5l14.5 10.5c5.33301 4 10.666 8.33301 15.999 13s9.33301 8.5 12 11.5s6.33398 7.66699 11.001 14s9.16699 13.333 13.5 21s8 15.334 11 23.001
s4.5 14.167 4.5 19.5v337l-6.5 6.5c-3 3 -6 6.16699 -9 9.5s-6 6.5 -9 9.5l-5.5 5.5v4v4c0.666992 1.33301 2 5.66602 4 12.999l6.5 24l6.5 24c2 7.33301 3.33301 11.333 4 12c1.33301 3.33301 3.33301 8 6 14s4 9.33301 4 10v467c-1.33301 0 -5.5 -0.333008 -12.5 -1
s-14.333 -1.66699 -22 -3s-14.667 -3.33301 -21 -6s-9.5 -6.33398 -9.5 -11.001v-415c0 -8 -2.33301 -18.667 -7 -32s-11 -26.5 -19 -39.5s-17.167 -24 -27.5 -33s-21.166 -13.5 -32.499 -13.5l1 531c-7.33301 10 -16.5 15.833 -27.5 17.5s-21.167 1.16699 -30.5 -1.5
s-17.333 -6.66699 -24 -12s-10 -12.333 -10 -21c0 -4.66699 1 -9.5 3 -14.5s8.33301 -6.83301 19 -5.5l-1 -927c-6.66699 -1.33301 -10.5 -5.16602 -11.5 -11.499s-1.5 -11.166 -1.5 -14.499c2 0 6 0.166992 12 0.5s12.5 0.666016 19.5 0.999023
s13.5 0.666016 19.5 0.999023s10 0.5 12 0.5c2 0.666992 5 1.83398 9 3.50098s6 3.16699 6 4.5v376l4 2c2.66699 1.33301 5.83398 2.83301 9.50098 4.5l11.5 5c4 1.66699 7.33301 2.83398 10 3.50098h5z" />
    <glyph glyph-name="afii10073" unicode="&#x437;" horiz-adv-x="281" 
d="M222 620c0.666992 2 2.50195 4.49414 5.50195 7.49414l9 9l8 8c2.33301 2.33301 3.5 3.83301 3.5 4.5v259c0 16 -4.5 30.167 -13.5 42.5s-20 22.666 -33 30.999s-27.167 14.5 -42.5 18.5s-29.333 6 -42 6h-3c-5.33301 0 -11.666 -0.166992 -18.999 -0.5
s-14.166 -1.66602 -20.499 -3.99902s-11.833 -5.83301 -16.5 -10.5s-7 -11.334 -7 -20.001v-12c2 -19.333 4.66699 -43.5 8 -72.5s6.83301 -56.833 10.5 -83.5l9.5 -68.5c2.66699 -19 4.33398 -28.5 5.00098 -28.5h43v235c11.333 -1.33301 20.333 -5.16602 27 -11.499
s11.667 -14.333 15 -24s5.5 -20.334 6.5 -32.001s1.5 -23.167 1.5 -34.5c0 -5.33301 -0.166992 -10.5 -0.5 -15.5s-0.5 -10.167 -0.5 -15.5c0 -4 -0.166992 -8 -0.5 -12s-0.5 -7.66699 -0.5 -11c0 -6 0.166992 -11.667 0.5 -17s0.5 -10.333 0.5 -15v-23
c0 -13.333 -0.666992 -25.833 -2 -37.5s-4.33301 -24.5 -9 -38.5h1c-1.33301 -2 -2.66602 -4.66699 -3.99902 -8l-2 -5c-2 -4.66699 -4.16699 -10 -6.5 -16s-4.83301 -11.833 -7.5 -17.5s-4.83398 -10.667 -6.50098 -15s-2.83398 -7.16602 -3.50098 -8.49902v-5
c0 -1.33301 -0.166992 -3.16602 -0.5 -5.49902s-0.5 -4.16602 -0.5 -5.49902c0 -14 2.16699 -27.167 6.5 -39.5s9.16602 -24.5 14.499 -36.5l10.5 -26c3.66699 -8.66699 6.16699 -16.334 7.5 -23.001c5.33301 -21.333 8.66602 -38.833 9.99902 -52.5s2 -27.5 2 -41.5
c0 -5.33301 -0.166992 -11 -0.5 -17s-0.5 -12.333 -0.5 -19v-48v-22c0 -8.66699 -0.166992 -17.834 -0.5 -27.501s-0.5 -19.167 -0.5 -28.5v-24v-16c0 -6 -0.833008 -13.833 -2.5 -23.5s-4.16699 -19.167 -7.5 -28.5s-7.66602 -17.333 -12.999 -24s-12 -10 -20 -10
c-4.66699 0 -8.5 2.5 -11.5 7.5s-5.33301 11 -7 18s-3 14 -4 21s-1.5 12.5 -1.5 16.5v3c-0.666992 6.66699 -1.33398 16.834 -2.00098 30.501s-1.33398 29.334 -2.00098 47.001s-1.33398 36.334 -2.00098 56.001s-1.16699 38.334 -1.5 56.001s-0.666016 33.667 -0.999023 48
s-0.5 24.833 -0.5 31.5c-2 6.66699 -5.83301 12 -11.5 16s-11.667 7 -18 9s-13 3.16699 -20 3.5s-13.167 0.5 -18.5 0.5v-31c0 -6.66699 0.166992 -12.834 0.5 -18.501s0.5 -9.5 0.5 -11.5c0.666992 -13.333 1.5 -31.833 2.5 -55.5l3 -72c1 -24.333 2 -46 3 -65
s1.5 -30.5 1.5 -34.5c0.666992 -16 2.66699 -32 6 -48s8.66602 -30.667 15.999 -44s17 -24.166 29 -32.499s27 -12.5 45 -12.5c10 0 21 2.5 33 7.5s23.333 11.833 34 20.5s19.667 18.5 27 29.5s11 22.5 11 34.5v337c0 6.66699 -1.66699 14.834 -5 24.501
s-7.33301 19.834 -12 30.501l-14 31.5c-4.66699 10.333 -8.33398 19.833 -11.001 28.5v-1c-1.33301 4.66699 -2.66602 8.5 -3.99902 11.5s-2.33301 5.5 -3 7.5v1v7zM132.002 642.994v-2v2z" />
    <glyph glyph-name="afii10074" unicode="&#x438;" horiz-adv-x="287" 
d="M41 476c0 -13.333 0.166992 -24.334 0.5 -33.001s0.5 -14 0.5 -16c0 -13.333 0.166992 -34 0.5 -62s0.5 -59.667 0.5 -95v-82c0 -28 0.166992 -54.5 0.5 -79.5s0.666016 -47.333 0.999023 -67s0.5 -34.5 0.5 -44.5c14 2.66699 25.667 7 35 13s17.333 13 24 21
s12.334 16.667 17.001 26l14 28c4.66699 10.667 9.5 20.834 14.5 30.501s11.833 18.167 20.5 25.5c0 -5.33301 0.5 -14.166 1.5 -26.499s2 -25.333 3 -39s1.83301 -26.5 2.5 -38.5s1.33398 -20.333 2.00098 -25c0.666992 -2.66699 2.66699 -5.66699 6 -9s6.33301 -5 9 -5
c3.33301 0 8.5 1.5 15.5 4.5s14.333 6.5 22 10.5l21.5 11c6.66699 3.33301 11 5.66602 13 6.99902v14c-1.33301 2 -3.5 7.33301 -6.5 16s-5.83301 15.667 -8.5 21l-6 920c-15.333 0 -29.5 -4.83301 -42.5 -14.5s-19.5 -23.167 -19.5 -40.5
c0 -15.333 -0.166992 -37.833 -0.5 -67.5s-0.666016 -63.334 -0.999023 -101.001s-0.666016 -77.5 -0.999023 -119.5s-0.5 -83 -0.5 -123c0 -48 -0.166992 -91.667 -0.5 -131s-0.5 -67.666 -0.5 -84.999c-0.666992 -37.333 -7.33398 -72.333 -20.001 -105
s-28.334 -64.667 -47.001 -96v57c0 24 0.166992 50.5 0.5 79.5s0.5 59.833 0.5 92.5v101v108c0 36 -0.166992 69.5 -0.5 100.5s-0.5 58.167 -0.5 81.5v56c0 7.33301 -0.333008 20.833 -1 40.5s-1.5 40.334 -2.5 62.001s-1.83301 42 -2.5 61s-1.33398 32.167 -2.00098 39.5
h-15c-8.66699 0 -18.5 -1.33301 -29.5 -4s-18.833 -9 -23.5 -19v-22c0 -9.33301 -0.166992 -20.333 -0.5 -33s-0.5 -26.334 -0.5 -41.001v-43v-148l4 2v-46c0 -18 0.166992 -36.833 0.5 -56.5l1 -59c0.333008 -19.667 0.5 -37.167 0.5 -52.5z" />
    <glyph glyph-name="afii10075" unicode="&#x439;" horiz-adv-x="287" 
d="M41 476c0 -13.333 0.166992 -24.334 0.5 -33.001s0.5 -14 0.5 -16c0 -13.333 0.166992 -34 0.5 -62s0.5 -59.667 0.5 -95v-82c0 -28 0.166992 -54.5 0.5 -79.5s0.666016 -47.333 0.999023 -67s0.5 -34.5 0.5 -44.5c14 2.66699 25.667 7 35 13s17.333 13 24 21
s12.334 16.667 17.001 26l14 28c4.66699 10.667 9.5 20.834 14.5 30.501s11.833 18.167 20.5 25.5c0 -5.33301 0.5 -14.166 1.5 -26.499s2 -25.333 3 -39s1.83301 -26.5 2.5 -38.5s1.33398 -20.333 2.00098 -25c0.666992 -2.66699 2.66699 -5.66699 6 -9s6.33301 -5 9 -5
c3.33301 0 8.5 1.5 15.5 4.5s14.333 6.5 22 10.5l21.5 11c6.66699 3.33301 11 5.66602 13 6.99902v14c-1.33301 2 -3.5 7.33301 -6.5 16s-5.83301 15.667 -8.5 21l-6 920c-15.333 0 -29.5 -4.83301 -42.5 -14.5s-19.5 -23.167 -19.5 -40.5
c0 -15.333 -0.166992 -37.833 -0.5 -67.5s-0.666016 -63.334 -0.999023 -101.001s-0.666016 -77.5 -0.999023 -119.5s-0.5 -83 -0.5 -123c0 -48 -0.166992 -91.667 -0.5 -131s-0.5 -67.666 -0.5 -84.999c-0.666992 -37.333 -7.33398 -72.333 -20.001 -105
s-28.334 -64.667 -47.001 -96v57c0 24 0.166992 50.5 0.5 79.5s0.5 59.833 0.5 92.5v101v108c0 36 -0.166992 69.5 -0.5 100.5s-0.5 58.167 -0.5 81.5v56c0 7.33301 -0.333008 20.833 -1 40.5s-1.5 40.334 -2.5 62.001s-1.83301 42 -2.5 61s-1.33398 32.167 -2.00098 39.5
h-15c-8.66699 0 -18.5 -1.33301 -29.5 -4s-18.833 -9 -23.5 -19v-22c0 -9.33301 -0.166992 -20.333 -0.5 -33s-0.5 -26.334 -0.5 -41.001v-43v-148l4 2v-46c0 -18 0.166992 -36.833 0.5 -56.5l1 -59c0.333008 -19.667 0.5 -37.167 0.5 -52.5zM88 1163
c0 -12.667 0.498047 -22.665 1.49805 -29.998s2.33301 -12.833 4 -16.5s3.33398 -6.33398 5.00098 -8.00098s3.16699 -2.83398 4.5 -3.50098c0.666992 -0.666992 1.5 -1.33398 2.5 -2.00098s2.16699 -1.33398 3.5 -2.00098l3 -1.5
c0.666992 -0.333008 1.33398 -0.5 2.00098 -0.5h62c0.666992 0 1.5 0.166992 2.5 0.5s2.16699 0.833008 3.5 1.5s2.5 1.33398 3.5 2.00098s1.83301 1.33398 2.5 2.00098c1.33301 0 2.83301 1 4.5 3s3.5 5.16699 5.5 9.5s3.66699 10.333 5 18s2 18.167 2 31.5
c-2 0 -3.5 -1.16699 -4.5 -3.5s-2.16699 -4.83301 -3.5 -7.5c-1.33301 -2 -2.5 -3.83301 -3.5 -5.5s-2.16699 -2.83398 -3.5 -3.50098c-0.666992 -0.666992 -1.83398 -1.33398 -3.50098 -2.00098l-5 -2c-1.66699 -0.666992 -3.16699 -1.16699 -4.5 -1.5l-2 -0.5h-4h-6
c-2 0 -4 -0.166992 -6 -0.5s-4 -0.5 -6 -0.5h-5h-5c-2 0 -4 0.166992 -6 0.5s-4 0.5 -6 0.5h-5h-5l-2 0.5c-1.33301 0.333008 -3 0.833008 -5 1.5s-3.66699 1.33398 -5 2.00098l-4 2c-0.666992 0.666992 -1.66699 1.83398 -3 3.50098s-2.66602 3.5 -3.99902 5.5
c-2 2.66699 -3.66699 5 -5 7s-3 3 -5 3v-3z" />
    <glyph glyph-name="afii10076" unicode="&#x43a;" horiz-adv-x="311" 
d="M155 389c8 0 14.8301 -1.49805 20.4971 -4.49805s10.334 -6.83301 14.001 -11.5s6.33398 -9.66699 8.00098 -15s2.5 -10.666 2.5 -15.999v-298c0 -8.66699 -2.33301 -17.167 -7 -25.5s-9.66699 -16.5 -15 -24.5s-10.333 -16.167 -15 -24.5s-7 -17.5 -7 -27.5h24
c0.666992 0 3.16699 1.5 7.5 4.5s9.16602 6.66699 14.499 11l16 13c5.33301 4.33301 9.33301 8 12 11s6.33398 7.83301 11.001 14.5s9.16699 13.667 13.5 21s8 15 11 23s4.5 14.667 4.5 20v337c-1.33301 0.666992 -3.5 2.66699 -6.5 6s-6 6.5 -9 9.5s-6 6.16699 -9 9.5
s-4.83301 5.33301 -5.5 6v4v4c0.666992 1.33301 2 5.66602 4 12.999l6.5 24l6.5 23.5c2 7 3.33301 11.167 4 12.5c1.33301 3.33301 3.33301 8 6 14s4 9.33301 4 10v467c-1.33301 0 -5.5 -0.333008 -12.5 -1s-14.333 -1.66699 -22 -3s-14.667 -3.33301 -21 -6
s-9.5 -6 -9.5 -10v-416c0 -8.66699 -2.33301 -19.667 -7 -33s-11 -26.333 -19 -39s-17.167 -23.5 -27.5 -32.5s-21.166 -13.5 -32.499 -13.5l1 552c-8 0 -17.333 -0.166992 -28 -0.5s-20.667 -1.83301 -30 -4.5s-17.333 -6.66699 -24 -12s-10 -12.333 -10 -21
c0 -4.66699 1 -9.5 3 -14.5s8.33301 -6.83301 19 -5.5l-1 -927c-6.66699 -2 -10.5 -6 -11.5 -12s-1.5 -11 -1.5 -15c2 0 6 0.166992 12 0.5s12.5 0.666016 19.5 0.999023s13.5 0.833008 19.5 1.5s10 1 12 1s5 1 9 3s6 3.33301 6 4v376l4 2l9.5 5
c3.66699 2 7.5 3.66699 11.5 5s7.33301 2.66602 10 3.99902h5z" />
    <glyph glyph-name="afii10077" unicode="&#x43b;" horiz-adv-x="283" 
d="M258 70l-80 935.999h-60v-50l-74 -886h-26v-64c6 0 13.5 -0.166992 22.5 -0.5s17.5 0.333984 25.5 2.00098s15.167 5 21.5 10s9.83301 12.5 10.5 22.5l50 596l50 -546v-80h71c0 1.33301 -0.166992 3 -0.5 5s-0.5 3.66699 -0.5 5c0 2 -0.5 5.33301 -1.5 10
s-2 9.66699 -3 15s-2 10.333 -3 15s-1.83301 8 -2.5 10z" />
    <glyph glyph-name="afii10078" unicode="&#x43c;" horiz-adv-x="443" 
d="M55 63c-0.666992 -4.66699 -2.16797 -9.66992 -4.50098 -15.0029s-4.83301 -10.666 -7.5 -15.999s-5 -10.666 -7 -15.999s-3 -10.333 -3 -15h104c0 4 -1.16699 7.66699 -3.5 11l-7.5 10.5l-7.5 10.5c-2.33301 3.33301 -3.5 7 -3.5 11v19
c0.666992 14.667 1.5 37.667 2.5 69l3.5 105.5c1.33301 39 2.66602 80.167 3.99902 123.5l4 124l3.5 105.5c1 31 1.83301 53.833 2.5 68.5l80 -658c0.666992 0 1.5 -0.166992 2.5 -0.5s1.83301 -0.5 2.5 -0.5s1.66699 0.166992 3 0.5l2 0.5c1.33301 0.666992 3.33301 3 6 7
s4 7 4 9l80 666c0 -10 0.333008 -24.5 1 -43.5s1.33398 -40.833 2.00098 -65.5l2 -77.5c0.666992 -27 1.33398 -52.667 2.00098 -77s1.33398 -46.333 2.00098 -66s1 -33.834 1 -42.501v-144v-143c-1.33301 -1.33301 -3.16602 -4 -5.49902 -8s-3.83301 -6.33301 -4.5 -7
c0 -0.666992 -0.333008 -2 -1 -4s-1 -3.33301 -1 -4h95c0 4 -0.666992 8.5 -2 13.5s-5 8.16699 -11 9.5l-30 945c1.33301 1.33301 3.16602 5 5.49902 11s3.83301 10 4.5 12c0 0.666992 0.166992 2 0.5 4s0.5 3.33301 0.5 4h-71l-80 -635l-83 635h-80
c0 -6.66699 4.33301 -11.667 13 -15v-29c0 -13.333 0.166992 -27.666 0.5 -42.999s0.5 -30 0.5 -44v-28v-36c0 -15.333 -0.166992 -30.5 -0.5 -45.5s-0.5 -28.5 -0.5 -40.5v-21c-0.666992 -16 -1.33398 -40.5 -2.00098 -73.5s-1.66699 -70.5 -3 -112.5l-4 -132
c-1.33301 -46 -2.83301 -89.833 -4.5 -131.5s-3 -79.167 -4 -112.5s-1.83301 -57.666 -2.5 -72.999z" />
    <glyph glyph-name="afii10079" unicode="&#x43d;" horiz-adv-x="346" 
d="M53 26c-6 -1.33301 -9.66211 -4.66602 -10.9951 -9.99902s-2 -9.66602 -2 -12.999h106c0 3.33301 -0.666992 7.66602 -2 12.999s-5 8.66602 -11 9.99902v441c0 0.666992 1.33301 1.83398 4 3.50098s4.66699 3.16699 6 4.5l15.5 7.5l24.5 11.5l24 11.5
c7.33301 3.66699 12.666 6.5 15.999 8.5v-480c-4.66699 -4 -7.83398 -8.66699 -9.50098 -14s-2.5 -11 -2.5 -17h94c0 6 -0.833008 11.667 -2.5 17s-4.83398 10 -9.50098 14v944c1.33301 0.666992 3.16602 3.16699 5.49902 7.5s3.83301 6.83301 4.5 7.5
c0 0.666992 0.333008 2 1 4s1 3.33301 1 4h-94c0 -0.666992 0.333008 -2 1 -4s1 -3.33301 1 -4c0.666992 -0.666992 2.16699 -3.16699 4.5 -7.5s4.16602 -6.83301 5.49902 -7.5v-395c0 -0.666992 -1.33301 -1.83398 -4 -3.50098s-4.66699 -3.16699 -6 -4.5
c-3.33301 -1.33301 -8.66602 -3.83301 -15.999 -7.5l-24 -11.5l-24.5 -11.5l-15.5 -7.5v449c8 2.66699 12 7.66699 12 15h-104c0 -0.666992 0.166992 -2 0.5 -4s0.833008 -3.33301 1.5 -4s2.16699 -3.16699 4.5 -7.5s4.16602 -6.83301 5.49902 -7.5v-952z" />
    <glyph glyph-name="afii10080" unicode="&#x43e;" horiz-adv-x="346" 
d="M43 497l-0.000976562 -45.999c0 -18.667 0.166992 -37.334 0.5 -56.001s0.5 -35 0.5 -49v-24c0 -9.33301 1.16699 -23.833 3.5 -43.5s5.83301 -41.334 10.5 -65.001s10.5 -48.167 17.5 -73.5s15.333 -48.166 25 -68.499s20.667 -37.166 33 -50.499s26.166 -20 41.499 -20
c10 0 20 5.33301 30 16s19 23 27 37s14.833 27.5 20.5 40.5s9.5 22.167 11.5 27.5c1.33301 3.33301 3.5 10.833 6.5 22.5s6 24.5 9 38.5l8.5 40.5c2.66699 13 4.66699 22.5 6 28.5c0.666992 4 1.66699 10.667 3 20s2.5 19.333 3.5 30s1.83301 20.667 2.5 30s1 16 1 20v22
c0 13.333 0.166992 28.5 0.5 45.5s0.5 34.167 0.5 51.5v41c0 34 -0.333008 70.167 -1 108.5s-3.33398 76.666 -8.00098 114.999s-12 75.833 -22 112.5s-24.333 70.334 -43 101.001c-2 4 -5.5 8.83301 -10.5 14.5s-10.167 11.167 -15.5 16.5s-10.333 9.83301 -15 13.5
s-7.66699 5.5 -9 5.5h-20c-0.666992 0 -3.16699 -1.83301 -7.5 -5.5s-9.16602 -8.16699 -14.499 -13.5l-16 -16.5c-5.33301 -5.66699 -9.33301 -10.5 -12 -14.5c-12 -15.333 -22.167 -34.833 -30.5 -58.5s-15.166 -48.334 -20.499 -74.001s-9.16602 -51.334 -11.499 -77.001
s-3.83301 -48.167 -4.5 -67.5v-24c0 -14 -0.166992 -30.167 -0.5 -48.5s-0.5 -37.166 -0.5 -56.499v-46zM112.999 492.001c0 26 -0.168945 52.8398 -0.501953 80.5068s-0.166016 55.667 0.500977 84s2.33398 56.166 5.00098 83.499s7 53.666 13 78.999l8 28l9.5 33
c3 10.667 5.83301 19.834 8.5 27.501l4 11.5h20c0.666992 0 2.16699 -4.16699 4.5 -12.5l8.5 -30c3.33301 -11.667 6.5 -23.834 9.5 -36.501l7.5 -31c4.66699 -22.667 8.5 -46.834 11.5 -72.501s5.33301 -51.834 7 -78.501s2.83398 -52.834 3.50098 -78.501
s1 -49.834 1 -72.501v-15c-0.666992 -13.333 -1.5 -31.833 -2.5 -55.5l-3 -70.5c-1 -23.333 -2 -44.166 -3 -62.499s-1.5 -28.833 -1.5 -31.5l-2.5 -46.5c-1 -18.333 -3 -36.833 -6 -55.5s-7.66699 -36 -14 -52s-15.5 -28 -27.5 -36c-9.33301 6 -17.166 16 -23.499 30
s-11.333 29.167 -15 45.5s-6.33398 32.166 -8.00098 47.499s-2.83398 27.666 -3.50098 36.999c-2.66699 28 -4.66699 52 -6 72s-2.33301 39 -3 57s-1.16699 36.333 -1.5 55s-0.5 40.667 -0.5 66z" />
    <glyph glyph-name="afii10081" unicode="&#x43f;" horiz-adv-x="287" 
d="M260 523c0 13.333 -0.166992 24.334 -0.5 33.001s-0.5 14 -0.5 16c0 13.333 -0.166992 34 -0.5 62s-0.5 59.667 -0.5 95v82c0 28 -0.166992 54.5 -0.5 79.5s-0.666016 47.333 -0.999023 67s-0.5 34.5 -0.5 44.5c-14 -2.66699 -25.667 -7 -35 -13s-17.333 -13 -24 -21
s-12.334 -16.667 -17.001 -26l-14 -28c-4.66699 -10.667 -9.5 -20.834 -14.5 -30.501s-11.833 -18.167 -20.5 -25.5c0 5.33301 -0.5 14.166 -1.5 26.499s-2 25.333 -3 39s-1.83301 26.5 -2.5 38.5s-1.33398 20.333 -2.00098 25c-0.666992 2.66699 -2.66699 5.66699 -6 9
s-6.33301 5 -9 5c-3.33301 0 -8.5 -1.5 -15.5 -4.5s-14.333 -6.5 -22 -10.5l-21.5 -11c-6.66699 -3.33301 -11 -5.66602 -13 -6.99902v-14c1.33301 -2 3.5 -7.33301 6.5 -16s5.83301 -15.667 8.5 -21l6 -920c15.333 0 29.5 4.83301 42.5 14.5s19.5 23.167 19.5 40.5
c0 15.333 0.166992 37.833 0.5 67.5s0.666016 63.334 0.999023 101.001s0.666016 77.5 0.999023 119.5s0.5 83 0.5 123c0 48 0.166992 91.667 0.5 131s0.5 67.666 0.5 84.999c0.666992 37.333 7.33398 72.333 20.001 105s28.334 64.667 47.001 96v-57
c0 -24 -0.166992 -50.5 -0.5 -79.5s-0.5 -59.833 -0.5 -92.5v-101v-108c0 -36 0.166992 -69.5 0.5 -100.5s0.5 -58.167 0.5 -81.5v-56c0 -7.33301 0.333008 -20.833 1 -40.5s1.5 -40.334 2.5 -62.001s1.83301 -42 2.5 -61s1.33398 -32.167 2.00098 -39.5h15
c8.66699 0 18.5 1.33301 29.5 4s18.833 9 23.5 19v22c0 9.33301 0.166992 20.333 0.5 33s0.5 26.334 0.5 41.001v43v148l-4 -2v46c0 18 -0.166992 36.833 -0.5 56.5l-1 59c-0.333008 19.667 -0.5 37.167 -0.5 52.5z" />
    <glyph glyph-name="afii10082" unicode="&#x440;" horiz-adv-x="296" 
d="M36 -249c0 -11.333 5.33594 -19.1611 16.0029 -23.4941s20.667 -6.5 30 -6.5h7c3.33301 0 6.66602 0.333008 9.99902 1s6.33301 1.66699 9 3s4 3.66602 4 6.99902l1 272c29.333 44.667 53.666 90.167 72.999 136.5s34.5 93.666 45.5 141.999s18.667 97.666 23 147.999
s6.5 102.166 6.5 155.499v48c0 20 -0.166992 39.833 -0.5 59.5s-0.5 37.167 -0.5 52.5v26c0 1.33301 -0.166992 5.66602 -0.5 12.999s-0.833008 15.666 -1.5 24.999l-2 28c-0.666992 9.33301 -1.33398 16.666 -2.00098 21.999
c-0.666992 6.66699 -2.33398 17.167 -5.00098 31.5s-6.5 29 -11.5 44s-11.333 28.167 -19 39.5s-17.167 17 -28.5 17s-20.5 -4 -27.5 -12s-13.333 -16.667 -19 -26l-16.5 -26c-5.33301 -8 -12 -12 -20 -12v66c0 5.33301 -2.33301 8.5 -7 9.5s-8.66699 1.5 -12 1.5
c-5.33301 0 -11 -0.5 -17 -1.5s-11.667 -2.66699 -17 -5s-9.66602 -5.5 -12.999 -9.5s-5 -9 -5 -15s0.666992 -11.167 2 -15.5s4.33301 -9.16602 9 -14.499v-1140c-4 -8 -6.83301 -14.833 -8.5 -20.5s-2.5 -12.5 -2.5 -20.5zM117.003 852.005l12.001 17.5049
c5.33301 7.66699 11.5 16 18.5 25s14.333 17.667 22 26s14.5 15.166 20.5 20.499c2.66699 -14.667 4.66699 -27 6 -37s2.33301 -19.333 3 -28s1 -17.334 1 -26.001v-31v-38c-0.666992 -12 -1.16699 -27.5 -1.5 -46.5s-0.833008 -39 -1.5 -60l-2 -64.5
c-0.666992 -22 -1.33398 -42 -2.00098 -60s-1.33398 -33.333 -2.00098 -46s-1 -20.334 -1 -23.001c0 -5.33301 -1 -16.666 -3 -33.999s-4.33301 -36 -7 -56l-7.5 -58c-2.33301 -18.667 -4.16602 -32.334 -5.49902 -41.001c-0.666992 -3.33301 -1.83398 -10 -3.50098 -20
l-5.5 -32.5c-2 -11.667 -4.16699 -23 -6.5 -34s-3.83301 -18.833 -4.5 -23.5c-1.33301 -6.66699 -3.16602 -14.5 -5.49902 -23.5s-5 -17.667 -8 -26s-6.66699 -16.166 -11 -23.499s-9.5 -13 -15.5 -17v5v5c2 18.667 3.66699 47.667 5 87s2.5 83.666 3.5 132.999
s1.83301 101.166 2.5 155.499s1 106.166 1 155.499s-0.166992 93.5 -0.5 132.5s-0.833008 67.833 -1.5 86.5z" />
    <glyph glyph-name="afii10083" unicode="&#x441;" horiz-adv-x="316" 
d="M31 498l-0.00390625 -33.998c0 -14 0.166992 -28 0.5 -42s0.5 -26.333 0.5 -37v-18c0 -2.66699 0.333008 -8.83398 1 -18.501s1.5 -20.334 2.5 -32.001s2.16699 -23 3.5 -34s2.33301 -19.5 3 -25.5c1.33301 -10 3.33301 -23.167 6 -39.5s6.33398 -33.833 11.001 -52.5
s10.334 -37.5 17.001 -56.5s14.167 -36.167 22.5 -51.5s17.833 -27.833 28.5 -37.5s22.334 -14.5 35.001 -14.5c16.667 0 31.834 9 45.501 27s25.167 39 34.5 63s16.666 48.167 21.999 72.5s8 42.5 8 54.5v5l-10 80l-10 10c-10.667 -11.333 -17 -28 -19 -50
s-4.33301 -45.167 -7 -69.5s-8.16699 -47.666 -16.5 -69.999s-24.166 -39.166 -47.499 -50.499c-14.667 10.667 -26 25.167 -34 43.5s-13.833 38 -17.5 59s-6 41.833 -7 62.5s-1.5 39 -1.5 55v26c0 15.333 -0.166992 33 -0.5 53s-0.5 40.333 -0.5 61v50v50
c0 20.667 0.166992 41 0.5 61s0.5 37.667 0.5 53v26c0 12.667 0.666992 30.167 2 52.5s4 45.166 8 68.499s10 45 18 65s18.667 34.667 32 44c7.33301 -3.33301 14.166 -13.5 20.499 -30.5s11.666 -35.833 15.999 -56.5s7.83301 -40.334 10.5 -59.001s4 -31.334 4 -38.001
c0 -16 -1.66699 -31.667 -5 -47s-7 -30.833 -11 -46.5s-7.66699 -31.167 -11 -46.5s-5 -30.666 -5 -45.999h11c0.666992 0 2.83398 4.66699 6.50098 14s8 21.5 13 36.5l16.5 49c6 17.667 11.5 34.834 16.5 51.501s9.16699 31.5 12.5 44.5s5 22.5 5 28.5
c0 4.66699 -1.16699 14 -3.5 28s-5.66602 30.167 -9.99902 48.5s-9.5 37.333 -15.5 57s-12.833 37.834 -20.5 54.501s-15.834 30.5 -24.501 41.5s-17.667 16.5 -27 16.5h-4c-22 -15.333 -40.167 -35.333 -54.5 -60s-26.166 -52.167 -35.499 -82.5s-16.5 -62.333 -21.5 -96
s-8.5 -66.834 -10.5 -99.501s-3.16699 -63.834 -3.5 -93.501s-0.5 -55.5 -0.5 -77.5z" />
    <glyph glyph-name="afii10084" unicode="&#x442;" horiz-adv-x="433" 
d="M90 961c0 -16 0.165039 -42.002 0.498047 -78.002s0.666016 -77 0.999023 -123s0.833008 -94.5 1.5 -145.5s1.16699 -99.5 1.5 -145.5s0.5 -87.333 0.5 -124v-78c0 -6 -0.333008 -17.333 -1 -34s-1.5 -34.5 -2.5 -53.5s-2.16699 -37.333 -3.5 -55
s-2.33301 -30.167 -3 -37.5c-2.66699 -29.333 -7.16699 -58.666 -13.5 -87.999l-19 -87.5c-6.33301 -29 -11.833 -58.333 -16.5 -88s-7 -59.5 -7 -89.5c9.33301 0 18.166 5.33301 26.499 16s16 24.334 23 41.001s13 35.167 18 55.5s9.5 40.166 13.5 59.499
s7.16699 37.166 9.5 53.499l5.5 37.5c2 16 4.66699 39 8 69s6.5 60.5 9.5 91.5s5.83301 58.833 8.5 83.5s4 40 4 46c0.666992 10.667 1.33398 28.667 2.00098 54s1.33398 54 2.00098 86s1.33398 66 2.00098 102s1.33398 70 2.00098 102s1 60.667 1 86v54
c3.33301 17.333 7.66602 32.833 12.999 46.5s16 24.834 32 33.501l1 -844c0 -0.666992 1.83301 -2.16699 5.5 -4.5s6.83398 -4.16602 9.50098 -5.49902h5c23.333 0 38.5 3.33301 45.5 10s10.5 20 10.5 40c0 0.666992 0.166992 3 0.5 7s0.333008 8.33301 0 13
s-1.33301 9 -3 13s-4.5 6.33301 -8.5 7l-1 714l55 50l1 -844c0 -0.666992 1.83301 -2.16699 5.5 -4.5s6.83398 -4.16602 9.50098 -5.49902h5c5.33301 0 11.833 0.666992 19.5 2s15 3.5 22 6.5s12.833 7 17.5 12s7 11.167 7 18.5c0 6 -1.16699 11.333 -3.5 16l-7 14l-7 14.5
c-2.33301 5 -3.5 10.5 -3.5 16.5l-1 904c-16.667 0 -29.334 -1.66699 -38.001 -5s-15.167 -7.83301 -19.5 -13.5s-7.33301 -11.834 -9 -18.501l-5 -20c-1.66699 -6.66699 -4.5 -13 -8.5 -19s-10.667 -10.667 -20 -14c-2.66699 -1.33301 -5.83398 -1.16602 -9.50098 0.500977
l-5.5 2.5v77c0 5.33301 -3.33301 8.5 -10 9.5s-11.667 1.5 -15 1.5c-14 0 -24.5 -4.66699 -31.5 -14s-13 -19.5 -18 -30.5s-10.167 -21.167 -15.5 -30.5s-13.666 -14 -24.999 -14v78c0 6.66699 -3.5 10.167 -10.5 10.5s-11.833 0.5 -14.5 0.5
c-5.33301 0 -11.833 -0.833008 -19.5 -2.5s-15 -4.33398 -22 -8.00098s-13 -8 -18 -13s-7.5 -10.833 -7.5 -17.5h18z" />
    <glyph glyph-name="afii10085" unicode="&#x443;" horiz-adv-x="255" 
d="M152 78c0 -58.667 -5.16699 -115.499 -15.5 -170.499l-32.5 -167.5c-0.666992 -1.33301 -1.16699 -5 -1.5 -11s-0.5 -9.66699 -0.5 -11c10.667 0 20.667 7.83301 30 23.5s17.5 33.834 24.5 54.501s12.833 41 17.5 61l10 43c1.33301 6.66699 3 15.834 5 27.501
s4.16699 23.334 6.5 35.001l6 31c1.66699 9 2.5 14.5 2.5 16.5c0.666992 6 1.66699 16.667 3 32s2.5 31.5 3.5 48.5s1.83301 33 2.5 48s1 25.5 1 31.5c0 19.333 0.166992 49 0.5 89s0.5 85.333 0.5 136v159v160c0 50.667 -0.166992 96.167 -0.5 136.5
s-0.5 70.166 -0.5 89.499c6 6.66699 9.66699 14.834 11 24.501s2 18.5 2 26.5c-5.33301 0 -12.5 -1 -21.5 -3s-18.167 -5 -27.5 -9s-17.333 -8.83301 -24 -14.5s-10 -11.834 -10 -18.501v-6c0.666992 -2.66699 2.16699 -7.83398 4.5 -15.501s4.16602 -12.5 5.49902 -14.5
v-730c0 -6.66699 -2.33301 -13.334 -7 -20.001s-10.334 -12.834 -17.001 -18.501s-13.667 -10.167 -21 -13.5s-13.333 -5 -18 -5c0 12 0.166992 30.5 0.5 55.5s0.5 53.167 0.5 84.5s0.166992 64.166 0.5 98.499l1 98.5c0.333008 31.333 0.5 59.333 0.5 84v56
c0 9.33301 -0.166992 24.166 -0.5 44.499s-0.833008 43.166 -1.5 68.499s-1.33398 52.166 -2.00098 80.499l-2 81c-0.666992 25.667 -1.16699 48.5 -1.5 68.5s-0.833008 34.667 -1.5 44c-1.33301 0 -4.66602 0.333008 -9.99902 1s-8.66602 1 -9.99902 1
c-8 0 -16.667 -1.5 -26 -4.5s-14 -10.167 -14 -21.5v-6c0 -4 0.333008 -12 1 -24s1.33398 -26.167 2.00098 -42.5s1.33398 -33.666 2.00098 -51.999s1.33398 -35.666 2.00098 -51.999s1.16699 -30.666 1.5 -42.999s0.5 -20.166 0.5 -23.499c0 -17.333 0.166992 -44 0.5 -80
s0.5 -76.667 0.5 -122v-143v-143c0 -45.333 -0.166992 -86 -0.5 -122s-0.5 -62.667 -0.5 -80c-4 -14 -3 -22.833 3 -26.5s13 -5.5 21 -5.5c11.333 0 20.666 4.16699 27.999 12.5s14.166 17.5 20.499 27.5s13 19.167 20 27.5s15.5 12.5 25.5 12.5z" />
    </font>
</defs>
</svg>
